<svg width="496" height="489" viewBox="0 0 496 489" fill="none" xmlns="http://www.w3.org/2000/svg">
<path d="M61.9999 321.15L174.76 324.87C174.97 324.87 175.13 325.2 175.13 325.6V467.03C175.13 467.43 174.96 467.76 174.75 467.76H62.8899C62.6799 467.76 62.5099 467.44 62.5099 467.04L61.6099 321.89C61.6099 321.48 61.7799 321.15 61.9999 321.15Z" fill="white" stroke="black" stroke-miterlimit="10"/>
<path d="M31.9199 303.34C31.9199 303.13 61.4599 311.72 61.6199 311.86L61.9899 391.47C61.9899 391.47 62.0698 391.58 62.0698 391.64L62.9698 467.5C62.9698 467.71 62.7298 467.82 62.5698 467.68L32.9099 442.54" fill="#4E62F5"/>
<path d="M31.9199 303.34C31.9199 303.13 61.4599 311.72 61.6199 311.86L61.9899 391.47C61.9899 391.47 62.0698 391.58 62.0698 391.64L62.9698 467.5C62.9698 467.71 62.7298 467.82 62.5698 467.68L32.9099 442.54" stroke="black" stroke-miterlimit="10"/>
<path d="M353.59 164.47L367.85 90.29L494.52 196.84L392.22 196.67L353.59 164.47Z" fill="#CD89FF" stroke="black" stroke-miterlimit="10"/>
<path d="M75.6499 165.59L1.62988 103.67L257.61 103.81L295.51 144.09L280.38 165.59H75.6499Z" fill="#D7FF7B" stroke="black" stroke-miterlimit="10"/>
<path d="M103.7 2.3999V88.2799L176.47 148.08L176.49 62.7198L103.7 2.3999Z" fill="#CD89FF" stroke="black" stroke-miterlimit="10"/>
<path d="M72.52 352.61L1.43994 292.89L1.62 103.97L71.17 161.96C71.17 161.96 72.12 163.46 72.12 163.57L72.52 352.61Z" fill="#CD89FF" stroke="black" stroke-miterlimit="10"/>
<path d="M293.68 388.29L494.39 388.64V198.61H391.64L392.35 285.43L197.96 285.55L197.02 487.88H391.01V403.15H293.66L293.68 388.29Z" fill="#D7FF7B" stroke="black" stroke-miterlimit="10"/>
<path d="M330.57 462.68H362.14V429.1H330.57V462.68Z" fill="#4E62F5" stroke="black" stroke-miterlimit="10"/>
<path d="M261.25 352.78H241.41V315.64H261.25V352.78Z" fill="#CD89FF" stroke="black" stroke-miterlimit="10"/>
<path d="M292.34 352.78L289.37 333.84H287.83V352.78H270.05V315.64H296.9L299.87 334.58H301.09V315.64H318.87V352.78H292.34Z" fill="#CD89FF" stroke="black" stroke-miterlimit="10"/>
<path d="M349.02 315.64C366.58 315.64 372.68 320.42 372.68 334.21C372.68 348 366.58 352.78 349.02 352.78H327.69V315.64H349.02ZM347.53 328.43V340H348.38C351.19 340 351.99 338.73 351.99 334.22C351.99 329.71 351.19 328.44 348.38 328.44H347.53V328.43Z" fill="#CD89FF" stroke="black" stroke-miterlimit="10"/>
<path d="M400.01 352.78H380.17V315.64H400.01V352.78Z" fill="#CD89FF" stroke="black" stroke-miterlimit="10"/>
<path d="M427.45 347.47L426.97 352.78H406.59L413.43 315.64H447.02L453.86 352.78H433.17L432.69 347.47H427.44H427.45ZM430.95 327.52H429.2L428.35 337.44H431.85L430.95 327.52Z" fill="#CD89FF" stroke="black" stroke-miterlimit="10"/>
<path d="M494.53 196.84H391.68V209.16H494.53V196.84Z" fill="white" stroke="black" stroke-miterlimit="10"/>
<path d="M470.7 205.73C472.34 205.73 473.67 204.4 473.67 202.76C473.67 201.12 472.34 199.79 470.7 199.79C469.06 199.79 467.73 201.12 467.73 202.76C467.73 204.4 469.06 205.73 470.7 205.73Z" fill="#D7FF7B" stroke="black" stroke-miterlimit="10"/>
<path d="M483.08 205.73C484.72 205.73 486.05 204.4 486.05 202.76C486.05 201.12 484.72 199.79 483.08 199.79C481.44 199.79 480.11 201.12 480.11 202.76C480.11 204.4 481.44 205.73 483.08 205.73Z" fill="#D7FF7B" stroke="black" stroke-miterlimit="10"/>
<path d="M458.14 205.73C459.78 205.73 461.11 204.4 461.11 202.76C461.11 201.12 459.78 199.79 458.14 199.79C456.5 199.79 455.17 201.12 455.17 202.76C455.17 204.4 456.5 205.73 458.14 205.73Z" fill="#D7FF7B" stroke="black" stroke-miterlimit="10"/>
<path d="M135.2 58.2599C134.69 67.2099 130.93 66.7899 125.53 63.8599C123.59 62.7999 122.65 62.4699 122.57 63.9099L133.74 71.9999L132.94 85.9999L110.67 69.8599L111.1 62.3599C111.68 52.1899 115.18 49.9299 121.96 52.8699C123.03 53.3599 123.5 53.5299 123.54 52.9699C123.57 52.5299 122.98 51.9299 121.59 50.9199C118.35 48.5699 115.1 47.1399 112.9 46.9999L113.41 31.9299C117.21 33.4099 120.14 35.0799 124.97 38.5699C132.77 44.2199 135.68 49.8599 135.2 58.2499V58.2599Z" fill="#D7FF7B" stroke="black" stroke-miterlimit="10"/>
<path d="M162.41 83.68L150.19 74.82L149.99 77.05C150.59 77.43 151.08 77.78 152.64 78.91C160.47 84.58 163.11 89.62 162.63 98.01C162.1 107.29 158.47 108.19 148.89 101.25C145.22 98.59 141.45 95.34 138.69 92.42L139.77 79.38C142.14 81.79 144.21 83.58 147.51 85.97C150.48 88.12 151.16 88.38 151.23 87.16C151.3 85.88 150.62 85.16 146.95 82.5C144.34 80.61 142.02 79.04 140.16 77.87L141.83 54.49L163.17 69.96L162.39 83.68H162.41Z" fill="#D7FF7B" stroke="black" stroke-miterlimit="10"/>
<path d="M91.29 398.28C100.36 398.28 103.03 399.8 103.03 404.93C103.03 408.4 101.8 409.99 98.55 410.78V410.96C102.52 411.68 103.93 413.27 103.93 416.96C103.93 422.09 101.22 423.57 91.79 423.57H73.29V398.28H91.28H91.29ZM86.8101 404.17V408.29H87.39C89.2 408.29 89.85 407.75 89.85 406.23C89.85 404.71 89.2 404.17 87.39 404.17H86.8101ZM86.8101 413.6V417.72H87.39C89.2 417.72 89.85 417.18 89.85 415.66C89.85 414.14 89.2 413.6 87.39 413.6H86.8101Z" fill="#CD89FF" stroke="black" stroke-miterlimit="10"/>
<path d="M122.18 413.6H130.27V423.57H108.66V398.28H122.17V413.6H122.18Z" fill="#CD89FF" stroke="black" stroke-miterlimit="10"/>
<path d="M153.25 398.28C162.21 398.28 165.46 400.74 165.46 407.49C165.46 411.1 164.52 413.2 162.32 414.57L166.22 423.57H151.91L149.92 416.92H148.73V423.57H135.25V398.28H153.24H153.25ZM148.74 404.86V410.35H149.32C151.13 410.35 151.78 409.63 151.78 407.6C151.78 405.57 151.13 404.85 149.32 404.85H148.74V404.86Z" fill="#CD89FF" stroke="black" stroke-miterlimit="10"/>
<path d="M20.8301 119.69V308.87" stroke="black" stroke-miterlimit="10"/>
<path d="M10.6699 111.41V300.59" stroke="black" stroke-miterlimit="10"/>
<path d="M30.1099 127.81V317.17" stroke="black" stroke-miterlimit="10"/>
<path d="M39.6899 135.79V324.57" stroke="black" stroke-miterlimit="10"/>
<path d="M50.6499 145.88V333.28" stroke="black" stroke-miterlimit="10"/>
<path d="M61.5801 153.97V342.53" stroke="black" stroke-miterlimit="10"/>
<path d="M29.0699 251.45L29.12 237.94L39.1899 244.28L39.15 256.48L48.89 252.89L53.67 265.22L44.02 268.06L53.63 278.82L48.67 287.33L39.09 276.45L39.02 295.52L28.96 286.69L29 273.08L19.46 276.23L14.05 263.74L24.02 260.39L14.1 249.74L19.58 240.47L29.0699 251.45Z" fill="#4E62F5" stroke="black" stroke-miterlimit="10"/>
<path d="M369.59 171.9H465.1" stroke="black" stroke-miterlimit="10"/>
<path d="M372.9 180.56H474.8" stroke="black" stroke-miterlimit="10"/>
<path d="M383.97 189.78H486.2" stroke="black" stroke-miterlimit="10"/>
<path d="M369.87 163.24H454.23" stroke="black" stroke-miterlimit="10"/>
<path d="M369.87 154.28H443.98" stroke="black" stroke-miterlimit="10"/>
<path d="M370.02 145.16H433.16" stroke="black" stroke-miterlimit="10"/>
<path d="M370.02 135.94H421.6" stroke="black" stroke-miterlimit="10"/>
<path d="M369.43 126.72H410.67" stroke="black" stroke-miterlimit="10"/>
<path d="M369.8 117.8H400.51" stroke="black" stroke-miterlimit="10"/>
<path d="M369.09 101.08H380.23" stroke="black" stroke-miterlimit="10"/>
<path d="M367.66 108.88H390.19" stroke="black" stroke-miterlimit="10"/>
<path d="M174.57 265.79L368.95 265.68L392.35 285.43L198.2 285.55L174.57 265.79Z" fill="white" stroke="black" stroke-miterlimit="10"/>
<path d="M103.7 2.40002L295.7 1.25L369.87 62.72H176.49L103.7 2.40002Z" fill="#D7FF7B" stroke="black" stroke-miterlimit="10"/>
<path d="M273.24 162.94L72.52 162.59V352.61H175.27L174.57 265.79L368.95 265.68L369.89 63.3501H175.91V148.08H273.25L273.24 162.94Z" fill="#4E62F5" stroke="black" stroke-miterlimit="10"/>
<path d="M346.25 71.8499C347.89 71.8499 349.22 70.5202 349.22 68.8799C349.22 67.2397 347.89 65.9099 346.25 65.9099C344.61 65.9099 343.28 67.2397 343.28 68.8799C343.28 70.5202 344.61 71.8499 346.25 71.8499Z" fill="#D7FF7B" stroke="black" stroke-miterlimit="10"/>
<path d="M358.91 71.8499C360.55 71.8499 361.88 70.5202 361.88 68.8799C361.88 67.2397 360.55 65.9099 358.91 65.9099C357.27 65.9099 355.94 67.2397 355.94 68.8799C355.94 70.5202 357.27 71.8499 358.91 71.8499Z" fill="#D7FF7B" stroke="black" stroke-miterlimit="10"/>
<path d="M333.69 71.8499C335.33 71.8499 336.66 70.5202 336.66 68.8799C336.66 67.2397 335.33 65.9099 333.69 65.9099C332.05 65.9099 330.72 67.2397 330.72 68.8799C330.72 70.5202 332.05 71.8499 333.69 71.8499Z" fill="#D7FF7B" stroke="black" stroke-miterlimit="10"/>
<path d="M236.62 90.29H204.08V122.83H236.62V90.29Z" fill="#CD89FF" stroke="black" stroke-miterlimit="10"/>
<path d="M121.97 195.41C140.01 195.41 145.1 198.81 145.1 210.74C145.1 222.67 140.01 226.07 121.97 226.07H120.48V232.54H100.69V195.4H121.97V195.41ZM120.49 205.65V215.84H121.34C124.1 215.84 124.95 214.62 124.95 210.75C124.95 206.88 124.1 205.66 121.34 205.66H120.49V205.65Z" fill="white" stroke="black" stroke-miterlimit="10"/>
<path d="M180.39 232.56H160.33V222.27L146.64 195.42H168.77L169.83 207.57H171.32L172.38 195.42H194.14L180.4 222.37V232.56H180.39Z" fill="white" stroke="black" stroke-miterlimit="10"/>
<path d="M230.38 195.89L229.74 212.5C227.3 211.86 223.74 211.44 220.67 211.44C216.85 211.44 215.36 212.08 215.36 213.99C215.36 215.9 216.85 216.54 220.67 216.54C223.8 216.54 227.3 216.12 229.74 215.48L230.38 232.09C225.66 233.26 222.21 233.63 218.02 233.63C201.52 233.63 194.67 227.9 194.67 214C194.67 200.1 201.51 194.37 218.02 194.37C222.21 194.37 225.66 194.74 230.38 195.91V195.89Z" fill="white" stroke="black" stroke-miterlimit="10"/>
<path d="M282.97 213.98C282.97 227.51 275.81 233.61 259.94 233.61C244.07 233.61 236.91 227.51 236.91 213.98C236.91 200.45 244.07 194.35 259.94 194.35C275.81 194.35 282.97 200.45 282.97 213.98ZM257.6 213.98C257.6 218.33 258.18 219.76 259.93 219.76C261.68 219.76 262.26 218.33 262.26 213.98C262.26 209.63 261.68 208.2 259.93 208.2C258.18 208.2 257.6 209.63 257.6 213.98Z" fill="white" stroke="black" stroke-miterlimit="10"/>
<path d="M312.74 232.56L309.77 213.62H308.23V232.56H290.45V195.42H317.3L320.27 214.36H321.49V195.42H339.27V232.56H312.74Z" fill="white" stroke="black" stroke-miterlimit="10"/>
<path d="M32.8599 442.51L31.9199 318.5" stroke="black" stroke-miterlimit="10"/>
<path d="M174.82 265.79L197.96 285.55L197.02 487.88L174.15 468.05L174.82 265.79Z" fill="white" stroke="black" stroke-miterlimit="10"/>
<path d="M369.87 62.72H175.93V75.04H369.87V62.72Z" fill="white" stroke="black" stroke-miterlimit="10"/>
<path d="M349.32 71.8499C350.96 71.8499 352.29 70.5202 352.29 68.8799C352.29 67.2397 350.96 65.9099 349.32 65.9099C347.68 65.9099 346.35 67.2397 346.35 68.8799C346.35 70.5202 347.68 71.8499 349.32 71.8499Z" fill="#D7FF7B" stroke="black" stroke-miterlimit="10"/>
<path d="M361.69 71.8499C363.33 71.8499 364.66 70.5202 364.66 68.8799C364.66 67.2397 363.33 65.9099 361.69 65.9099C360.05 65.9099 358.72 67.2397 358.72 68.8799C358.72 70.5202 360.05 71.8499 361.69 71.8499Z" fill="#D7FF7B" stroke="black" stroke-miterlimit="10"/>
<path d="M336.75 71.8499C338.39 71.8499 339.72 70.5202 339.72 68.8799C339.72 67.2397 338.39 65.9099 336.75 65.9099C335.11 65.9099 333.78 67.2397 333.78 68.8799C333.78 70.5202 335.11 71.8499 336.75 71.8499Z" fill="#D7FF7B" stroke="black" stroke-miterlimit="10"/>
</svg>
