<svg width="33" height="21" viewBox="0 0 33 21" fill="none" xmlns="http://www.w3.org/2000/svg">
<path d="M3.60903 17.8207L2.19452 18.4463C1.5029 18.7522 0.679215 18.4029 0.354259 17.6661L0.230882 17.3881C-0.094074 16.6513 0.20134 15.8085 0.892957 15.5026L2.30747 14.877L3.60729 17.8207H3.60903Z" fill="black"/>
<path d="M1.66959 18.6531C1.47844 18.6531 1.28381 18.6132 1.09787 18.535C0.727737 18.3786 0.432324 18.0831 0.263765 17.7043L0.140382 17.4263C-0.0264403 17.0475 -0.0455532 16.6304 0.0882521 16.2498C0.222057 15.8675 0.493142 15.5704 0.852853 15.4123L2.26737 14.7867C2.2917 14.7762 2.31776 14.7762 2.34209 14.7867C2.36642 14.7954 2.38553 14.8145 2.39596 14.8388L3.69578 17.7825C3.71837 17.8312 3.69578 17.8885 3.64713 17.9111L2.23261 18.5367C2.05363 18.6166 1.86248 18.6566 1.66959 18.6566V18.6531ZM2.25868 15.0056L0.932787 15.5912C0.623471 15.7285 0.388879 15.9857 0.272451 16.3159C0.156023 16.6495 0.171661 17.0162 0.319368 17.3481L0.442751 17.6261C0.590458 17.9598 0.849378 18.2187 1.17433 18.356C1.49755 18.4933 1.8451 18.4933 2.15441 18.356L3.4803 17.7704L2.25868 15.0056Z" fill="black"/>
<path d="M10.9941 28.758C10.3268 29.0534 9.5066 28.6607 9.1608 27.8805L5.79134 20.2536C5.44727 19.4733 5.70793 18.6027 6.37695 18.3073C7.04424 18.0119 7.86445 18.4046 8.21026 19.1849L11.5797 26.8118C11.9238 27.592 11.6631 28.4626 10.9941 28.758Z" fill="black"/>
<path d="M10.5267 28.9544C10.3234 28.9544 10.1166 28.9057 9.91504 28.8102C9.54838 28.6347 9.24949 28.3184 9.07224 27.9204L5.70278 20.2935C5.52727 19.8956 5.49425 19.4612 5.61068 19.0719C5.72885 18.6775 5.98777 18.3734 6.33705 18.2204C7.053 17.9042 7.93229 18.3212 8.29721 19.1484L11.6667 26.7753C12.0316 27.6024 11.7483 28.5339 11.0324 28.8501C10.8708 28.9214 10.6988 28.9561 10.525 28.9561L10.5267 28.9544ZM6.84447 18.3056C6.6985 18.3056 6.55427 18.3351 6.41699 18.3959C6.11983 18.5263 5.90088 18.7869 5.79835 19.1258C5.69409 19.4716 5.72363 19.8574 5.88177 20.2136L9.25123 27.8405C9.40936 28.1967 9.6735 28.4783 10.0002 28.6347C10.3199 28.7876 10.6605 28.7997 10.9559 28.6694C11.5728 28.3966 11.8144 27.5816 11.4912 26.8517L8.12171 19.2248C7.87147 18.6583 7.35363 18.3073 6.84447 18.3073V18.3056Z" fill="black"/>
<path d="M7.24901 16.3481L4.66137 17.4916C4.11974 17.7309 3.87468 18.364 4.11402 18.9056L4.36898 19.4826C4.60832 20.0242 5.24141 20.2693 5.78304 20.03L8.37068 18.8865C8.91231 18.6472 9.15736 18.0141 8.91802 17.4725L8.66307 16.8955C8.42373 16.3539 7.79064 16.1088 7.24901 16.3481Z" fill="#FFF8F2"/>
<path d="M5.34999 20.2206C5.2075 20.2206 5.065 20.1945 4.92772 20.1406C4.63579 20.0277 4.4064 19.8087 4.27955 19.522L4.0241 18.9451C3.76344 18.356 4.03105 17.6626 4.62188 17.402L7.20937 16.2586C7.79846 15.9979 8.49007 16.2655 8.75247 16.8563L9.00791 17.4333C9.13477 17.7182 9.14172 18.0363 9.02876 18.3282C8.91581 18.6201 8.69686 18.8495 8.41013 18.9764L5.82265 20.1198C5.67147 20.1858 5.5116 20.2206 5.34999 20.2206ZM7.68029 16.3559C7.54822 16.3559 7.41615 16.3819 7.28756 16.4393L4.70008 17.5827C4.2083 17.7999 3.98413 18.3768 4.20135 18.8686L4.45679 19.4456C4.5628 19.6836 4.75395 19.8661 4.99723 19.9617C5.24051 20.0555 5.50465 20.0503 5.74272 19.9443L8.3302 18.8009C8.82198 18.5836 9.04614 18.0067 8.82893 17.5149L8.57348 16.938C8.41187 16.5731 8.0539 16.3576 7.68029 16.3576V16.3559Z" fill="black"/>
<path d="M8.01377 17.6105L5.04051 18.9242C3.58777 19.5654 1.85699 18.8321 1.17232 17.2838L0.915143 16.6999C0.232214 15.1533 0.854319 13.3774 2.30706 12.7361L5.28032 11.4224L8.01377 17.6087V17.6105Z" fill="#1FFFB4" stroke="black" stroke-width="0.173773" stroke-miterlimit="10"/>
<path d="M3.94426 19.2526C2.76782 19.2526 1.61744 18.5263 1.08569 17.3238L0.828509 16.7399C0.487914 15.9683 0.449679 15.1186 0.720765 14.347C0.991851 13.572 1.54271 12.969 2.27082 12.6475L5.24408 11.3338C5.26841 11.3234 5.29448 11.3234 5.3188 11.3338C5.34313 11.3425 5.36225 11.3616 5.37267 11.3859L8.10612 17.5723C8.12871 17.6209 8.10612 17.6783 8.05746 17.7009L5.08421 19.0146C4.71581 19.1779 4.33003 19.2544 3.94773 19.2544L3.94426 19.2526ZM5.23192 11.5528L2.34728 12.8265C1.66957 13.1254 1.15694 13.6884 0.90323 14.4113C0.647784 15.136 0.684276 15.9353 1.00576 16.6617L1.26294 17.2456C1.92328 18.7418 3.60019 19.4542 5.00254 18.8356L7.88543 17.5618L5.23018 11.5528H5.23192Z" fill="#010000"/>
<path d="M5.28223 11.4242L8.01568 17.6105C10.2539 16.6217 12.7823 16.4323 15.2568 17.0683L19.1702 18.0119L12.4 2.7164L10.558 6.43514C9.36242 8.69246 7.52042 10.4354 5.28223 11.4242Z" fill="#FBEEE1"/>
<path d="M19.1704 18.1092C19.1704 18.1092 19.1548 18.1092 19.1478 18.1057L15.2345 17.1622C12.7686 16.5279 10.2854 16.7121 8.0559 17.6974C8.03157 17.7078 8.0055 17.7078 7.98117 17.6974C7.95684 17.6887 7.93773 17.6696 7.9273 17.6452L5.19386 11.4589C5.17126 11.4103 5.19386 11.3529 5.24251 11.3303C7.47202 10.345 9.281 8.63511 10.4713 6.38475L12.3116 2.66775C12.329 2.63473 12.3637 2.61388 12.4002 2.61388C12.4385 2.61388 12.4715 2.63647 12.4871 2.67122L19.2573 17.9667C19.2729 17.9997 19.266 18.0397 19.2434 18.0675C19.2243 18.0901 19.1965 18.1023 19.1687 18.1023L19.1704 18.1092ZM12.3637 16.5991C13.3282 16.5991 14.3048 16.7243 15.2796 16.9745L19.0019 17.8712L12.395 2.94405L10.6451 6.47685C9.44782 8.73764 7.63884 10.4632 5.40933 11.4711L8.06458 17.4802C9.42696 16.8928 10.8797 16.5974 12.3637 16.5974V16.5991Z" fill="black"/>
<path d="M5.28223 11.4242L8.01568 17.6105C10.2539 16.6217 12.7823 16.4323 15.2568 17.0683L19.1702 18.0119L12.4 2.7164L10.558 6.43514C9.36242 8.69246 7.52042 10.4354 5.28223 11.4242Z" fill="#010000"/>
<path d="M19.1704 18.1092C19.1704 18.1092 19.1548 18.1092 19.1478 18.1057L15.2345 17.1622C12.7686 16.5279 10.2854 16.7121 8.0559 17.6974C8.03157 17.7078 8.0055 17.7078 7.98117 17.6974C7.95684 17.6887 7.93773 17.6696 7.9273 17.6452L5.19386 11.4589C5.17126 11.4103 5.19386 11.3529 5.24251 11.3303C7.47202 10.345 9.281 8.63511 10.4713 6.38475L12.3116 2.66775C12.329 2.63473 12.3637 2.61388 12.4002 2.61388C12.4385 2.61388 12.4715 2.63647 12.4871 2.67122L19.2573 17.9667C19.2729 17.9997 19.266 18.0397 19.2434 18.0675C19.2243 18.0901 19.1965 18.1023 19.1687 18.1023L19.1704 18.1092ZM12.3637 16.5991C13.3282 16.5991 14.3048 16.7243 15.2796 16.9745L19.0019 17.8712L12.395 2.94405L10.6451 6.47685C9.44782 8.73764 7.63884 10.4632 5.40933 11.4711L8.06458 17.4802C9.42696 16.8928 10.8797 16.5974 12.3637 16.5974V16.5991Z" fill="#010000"/>
<path d="M19.9674 17.9385C21.4905 17.2515 21.1403 13.1812 19.1853 8.84727C17.2303 4.51335 14.4107 1.55699 12.8877 2.24405C11.3646 2.9311 11.7147 7.00141 13.6698 11.3353C15.6248 15.6692 18.4443 18.6256 19.9674 17.9385Z" fill="white"/>
<path d="M19.4829 18.1336C17.839 18.1336 15.3697 15.3532 13.5677 11.3442C12.0611 7.9939 11.4668 4.65919 12.0872 3.04832C12.2592 2.59998 12.5199 2.29762 12.8587 2.14991C14.4626 1.44787 17.2865 4.38463 19.2866 8.8367C20.7932 12.187 21.3875 15.5217 20.7671 17.1326C20.5951 17.581 20.3344 17.8833 19.9956 18.031C19.8357 18.1005 19.6654 18.1353 19.4829 18.1353V18.1336ZM13.38 2.23853C13.2219 2.23853 13.0742 2.26808 12.9369 2.32716C12.6467 2.45401 12.4208 2.71989 12.2679 3.11783C11.6649 4.68352 12.2575 7.95741 13.745 11.2643C15.4914 15.1481 17.9329 17.9407 19.476 17.9424C19.6341 17.9424 19.7818 17.9129 19.9191 17.8538C20.2093 17.7269 20.4352 17.4611 20.5881 17.0631C21.1911 15.4974 20.5986 12.2235 19.1111 8.91663C17.3647 5.03281 14.9231 2.23853 13.38 2.23853Z" fill="black"/>
<path d="M18.2078 9.18597C19.7318 12.5954 20.1054 15.739 19.0419 16.2064C17.9784 16.6739 15.8827 14.2879 14.3587 10.8768C12.8347 7.46735 12.4611 4.3238 13.5246 3.85635C14.5881 3.3889 16.6838 5.7748 18.2078 9.18597Z" fill="#F8F8F8"/>
<mask id="mask0_15_2" style="mask-type:luminance" maskUnits="userSpaceOnUse" x="12" y="3" width="8" height="14">
<path d="M18.2078 9.18597C19.7318 12.5954 20.1054 15.739 19.0419 16.2064C17.9784 16.6739 15.8827 14.2879 14.3587 10.8768C12.8347 7.46735 12.4611 4.3238 13.5246 3.85635C14.5881 3.3889 16.6838 5.7748 18.2078 9.18597Z" fill="white"/>
</mask>
<g mask="url(#mask0_15_2)">
<path d="M12.3306 10.0531L14.3429 9.17727C15.1648 8.81929 16.1918 9.33714 16.6367 10.3329C17.0815 11.3286 16.7739 12.4268 15.952 12.7848L13.9397 13.6606L12.3306 10.0548V10.0531Z" fill="#1FFFB4" stroke="black" stroke-width="0.173773" stroke-miterlimit="10"/>
<path d="M13.9397 13.7579C13.9032 13.7579 13.8667 13.7371 13.8511 13.7006L12.242 10.0948C12.2315 10.0705 12.2315 10.0444 12.242 10.0201C12.2506 9.99575 12.2698 9.97663 12.2941 9.96621L14.3064 9.09039C15.1752 8.71157 16.2613 9.252 16.727 10.2946C16.979 10.8594 17.0085 11.4815 16.807 11.9994C16.6506 12.4025 16.3604 12.7136 15.9937 12.8752L13.9814 13.751C13.9693 13.7562 13.9554 13.7597 13.9432 13.7597L13.9397 13.7579ZM12.4574 10.1035L13.9884 13.532L15.9138 12.6944C16.2335 12.5554 16.4855 12.2826 16.6245 11.9281C16.807 11.4572 16.7792 10.8907 16.548 10.3728C16.1258 9.42751 15.1544 8.93052 14.3828 9.26764L12.4592 10.1052L12.4574 10.1035Z" fill="#010000"/>
<path d="M16.1935 10.7847C16.0423 10.3989 16.0632 9.99054 16.2178 9.7264C16.4211 9.87411 16.6018 10.1104 16.7183 10.4111C16.859 10.7708 16.8781 11.1479 16.793 11.4485C16.5532 11.3616 16.3238 11.1218 16.1917 10.7847H16.1935Z" fill="white"/>
<path d="M16.7947 11.5458C16.7843 11.5458 16.7722 11.5441 16.7617 11.5406C16.4854 11.4415 16.2404 11.1722 16.1031 10.8212C15.9467 10.4163 15.9572 9.97837 16.1344 9.67774C16.1483 9.65342 16.1709 9.63778 16.1987 9.63256C16.2248 9.62735 16.2526 9.63256 16.2752 9.6482C16.5011 9.81155 16.6905 10.0705 16.8104 10.3763C16.9529 10.7412 16.9824 11.1427 16.8886 11.4746C16.8816 11.5006 16.8643 11.5232 16.8399 11.5354C16.826 11.5423 16.8104 11.5458 16.7947 11.5458ZM16.2839 10.7482C16.3829 11.0019 16.5445 11.2052 16.727 11.3095C16.7756 11.0401 16.7409 10.7325 16.6297 10.4458C16.541 10.2164 16.409 10.0201 16.2526 9.87932C16.1587 10.1226 16.1674 10.451 16.2839 10.7499V10.7482Z" fill="#010000"/>
</g>
<path d="M18.2078 9.18597C19.7318 12.5954 20.1054 15.739 19.0419 16.2064C17.9784 16.6738 15.8827 14.2879 14.3587 10.8768C12.8347 7.46735 12.4611 4.3238 13.5246 3.85635C14.5881 3.3889 16.6838 5.7748 18.2078 9.18597Z" stroke="black" stroke-width="0.173773" stroke-linecap="round" stroke-linejoin="round"/>
<path d="M5.9304 11.1149L8.643 17.3533L8.01394 17.5896L5.28223 11.4242L5.9304 11.1149Z" fill="#FFF8F2"/>
<path d="M8.01399 17.6852C7.9775 17.6852 7.94101 17.6644 7.92537 17.6279L5.19192 11.4641C5.17107 11.4155 5.19192 11.3599 5.23884 11.3373L5.88875 11.028C5.91308 11.0175 5.93915 11.0158 5.96521 11.0245C5.98954 11.0332 6.01039 11.0523 6.02082 11.0766L8.73342 17.3151C8.74384 17.3394 8.74384 17.3672 8.73342 17.3915C8.72299 17.4159 8.70387 17.435 8.67781 17.4454L8.04875 17.6817C8.03832 17.6852 8.02616 17.6887 8.01399 17.6887V17.6852ZM5.40914 11.4711L8.06613 17.4663L8.51273 17.2994L5.8818 11.2469L5.40914 11.4728V11.4711Z" fill="black"/>
<path d="M24.457 0.0995102L23.814 3.38903L23.2319 2.6922L22.0972 4.96863L22.8322 1.29507L23.4352 1.8998L24.457 0.0995102Z" fill="url(#paint0_linear_15_2)"/>
<path d="M22.0972 5.06421C22.0868 5.06421 22.0764 5.06421 22.066 5.059C22.019 5.04336 21.993 4.99644 22.0017 4.94778L22.7367 1.27596C22.7437 1.2412 22.7697 1.21166 22.8045 1.20124C22.8392 1.19081 22.8757 1.20124 22.9018 1.22556L23.4162 1.73993L24.3754 0.0491206C24.398 0.00741509 24.4484 -0.00996222 24.4936 0.00567736C24.5387 0.0213169 24.5648 0.0682358 24.5544 0.115155L23.9114 3.40468C23.9045 3.44117 23.8767 3.47071 23.8402 3.4794C23.8037 3.48809 23.7655 3.47593 23.7411 3.44812L23.2528 2.86598L22.1841 5.0086C22.1667 5.04162 22.1337 5.06247 22.0972 5.06247V5.06421ZM22.8914 1.49317L22.3353 4.27354L23.1451 2.6505C23.159 2.62096 23.1885 2.60185 23.2198 2.59663C23.2511 2.59316 23.2841 2.60532 23.305 2.63139L23.7568 3.17182L24.2468 0.666015L23.5187 1.94846C23.5031 1.97453 23.477 1.9919 23.4475 1.99712C23.4179 2.00059 23.3866 1.99017 23.3658 1.96931L22.8896 1.49317H22.8914Z" fill="#010000"/>
<path d="M29.7396 11.9422L26.5961 12.2306L27.0722 11.5199L24.7141 11.0959L28.2278 10.7883L27.842 11.4938L29.7396 11.9422Z" fill="url(#paint1_linear_15_2)"/>
<path d="M26.5963 12.3279C26.5615 12.3279 26.5302 12.3106 26.5128 12.281C26.4937 12.2497 26.4955 12.208 26.5163 12.1768L26.909 11.5894L24.6987 11.1915C24.65 11.1828 24.617 11.1393 24.6187 11.0907C24.6205 11.042 24.6587 11.002 24.7073 10.9986L28.221 10.691C28.2575 10.6875 28.2905 10.7049 28.3114 10.7344C28.3305 10.764 28.3323 10.8022 28.3149 10.8335L27.9899 11.4278L29.7641 11.8448C29.8111 11.8553 29.8423 11.8987 29.8389 11.9456C29.8354 11.9926 29.7989 12.0308 29.7502 12.036L26.6067 12.3262C26.6067 12.3262 26.6015 12.3262 26.598 12.3262L26.5963 12.3279ZM25.4494 11.1289L27.0898 11.4243C27.1228 11.4295 27.1489 11.4521 27.161 11.4817C27.1732 11.5112 27.1714 11.546 27.1523 11.5738L26.7909 12.1159L29.1386 11.9005L27.8196 11.5894C27.7901 11.5824 27.7657 11.5616 27.7536 11.5338C27.7414 11.506 27.7432 11.4747 27.7571 11.4469L28.0559 10.9013L25.4494 11.1289Z" fill="#010000"/>
<path d="M32.1256 3.99899L27.7483 7.2051L27.8195 5.73672L23.9705 7.19641L28.8778 3.63754L28.9317 5.0173L32.1256 3.99899Z" fill="#F04194" stroke="black" stroke-width="0.0868865" stroke-miterlimit="10"/>
<defs>
<linearGradient id="paint0_linear_15_2" x1="21.7525" y1="2.77122" x2="24.7877" y2="2.30676" gradientUnits="userSpaceOnUse">
<stop stop-color="white"/>
<stop offset="0.12" stop-color="#FAFEFE"/>
<stop offset="0.25" stop-color="#EEFDFC"/>
<stop offset="0.37" stop-color="#D9FAF9"/>
<stop offset="0.5" stop-color="#BCF7F4"/>
<stop offset="0.63" stop-color="#97F3EE"/>
<stop offset="0.76" stop-color="#69EEE7"/>
<stop offset="0.89" stop-color="#34E8DE"/>
<stop offset="1" stop-color="#00E3D6"/>
</linearGradient>
<linearGradient id="paint1_linear_15_2" x1="24.8284" y1="11.8902" x2="29.614" y2="11.1579" gradientUnits="userSpaceOnUse">
<stop stop-color="white"/>
<stop offset="0.12" stop-color="#FAFEFE"/>
<stop offset="0.25" stop-color="#EEFDFC"/>
<stop offset="0.37" stop-color="#D9FAF9"/>
<stop offset="0.5" stop-color="#BCF7F4"/>
<stop offset="0.63" stop-color="#97F3EE"/>
<stop offset="0.76" stop-color="#69EEE7"/>
<stop offset="0.89" stop-color="#34E8DE"/>
<stop offset="1" stop-color="#00E3D6"/>
</linearGradient>
</defs>
</svg>
