<svg width="402" height="472" viewBox="0 0 402 472" fill="none" xmlns="http://www.w3.org/2000/svg">
<path d="M121.561 108.086L121.076 105.426L102 1L111.78 9.15126" fill="#F5428E"/>
<path d="M121.561 108.086L121.076 105.426L102 1L111.78 9.15126" stroke="black" stroke-width="0.628956" stroke-miterlimit="10"/>
<path d="M124.189 11.3906L111.465 5.30859L120.767 107.992L124.189 11.3906Z" fill="#D0DCFF" stroke="black" stroke-width="0.628956" stroke-miterlimit="10"/>
<path d="M141.436 14.5916L124.51 3.25781L120.303 102.834L141.436 14.5916Z" fill="#D0DCFF" stroke="black" stroke-width="0.628956" stroke-miterlimit="10"/>
<path d="M159.568 14.0763L143.694 4.67969L120.932 102.834L159.568 14.0763Z" fill="#D0DCFF" stroke="black" stroke-width="0.628956" stroke-miterlimit="10"/>
<path d="M175.154 21.5863L162.241 8.67383L119.51 107.363L175.154 21.5863Z" fill="#D0DCFF" stroke="black" stroke-width="0.628956" stroke-miterlimit="10"/>
<path d="M121.076 105.425L172.751 12.0879L178.336 16.6793L121.076 105.425Z" fill="#D0DCFF" stroke="black" stroke-width="0.628956" stroke-miterlimit="10"/>
<path d="M119.045 108.085L181.318 12.0879L313.034 120.954L227.445 206.542L119.045 108.085Z" fill="#F5428E" stroke="black" stroke-width="0.628956" stroke-miterlimit="10"/>
<path d="M195.411 44.3109L146.568 113.242L163.329 125.118L212.171 56.1869L195.411 44.3109Z" fill="#CEFF62" stroke="black" stroke-width="0.628956" stroke-miterlimit="10"/>
<path d="M393.696 194.393C397.947 194.393 401.393 190.947 401.393 186.696C401.393 182.446 397.947 179 393.696 179C389.446 179 386 182.446 386 186.696C386 190.947 389.446 194.393 393.696 194.393Z" fill="#FF2A77" stroke="black" stroke-width="0.465036" stroke-miterlimit="10"/>
<path d="M219.431 278.861C225.744 278.861 230.861 273.744 230.861 267.431C230.861 261.118 225.744 256 219.431 256C213.118 256 208 261.118 208 267.431C208 273.744 213.118 278.861 219.431 278.861Z" fill="#CD89FF" stroke="black" stroke-width="0.465036" stroke-miterlimit="10"/>
<path d="M122.98 226.299C125.255 226.299 127.1 224.454 127.1 222.179C127.1 219.903 125.255 218.059 122.98 218.059C120.704 218.059 118.859 219.903 118.859 222.179C118.859 224.454 120.704 226.299 122.98 226.299Z" fill="#F04194" stroke="black" stroke-width="0.465036" stroke-miterlimit="10"/>
<path d="M15.3649 217.58V207H25.047V218.491L34.3756 212.743L38.998 220.956L29.7485 226.08L38.998 231.61L34.2733 239.752L25.047 234.121V245.179H15.3649V234.525L6.227 239.85L1 231.707L10.5518 226.09L1 220.751L6.227 211.846L15.3649 217.58Z" fill="#CEFF62" stroke="black" stroke-width="0.465036" stroke-miterlimit="10"/>
<path d="M112.353 416.882V396H131.464V418.681L149.876 407.336L159 423.546L140.743 433.661L159 444.574L149.674 460.646L131.464 449.531V471.358H112.353V450.329L94.317 460.839L84 444.767L102.853 433.679L84 423.142L94.317 405.564L112.353 416.882Z" fill="#CD89FF" stroke="black" stroke-width="0.917881" stroke-miterlimit="10"/>
</svg>
