<svg width="592" height="420" viewBox="0 0 592 420" fill="none" xmlns="http://www.w3.org/2000/svg">
<g clip-path="url(#clip0_60_84)">
<path d="M293.07 312.99L379.9 296.23L387.42 340.48C387.42 340.48 389.84 354.81 377.19 361.32C370.73 364.64 363.11 366.04 356.06 367.46C347.28 369.23 338.39 370.53 329.54 371.88C324.74 372.61 319.69 372.83 315.14 371.14C311.44 369.76 308.28 367.19 305.7 364.19C304.39 362.67 303.21 361.02 302.39 359.19C300.34 354.67 300.18 349.28 299.14 344.47C298.12 339.77 297.33 335.02 296.42 330.3C295.31 324.53 294.2 318.76 293.09 312.99H293.07Z" fill="#CEFF62"/>
<path d="M505.67 289.71L537.22 374.04H580.76V401.69H522.52C522.52 401.69 512.28 400.62 505.67 385.07C499.06 369.52 482.09 331.07 482.09 331.07L440.25 342.38L444.77 396.38L417.06 397.51L409.14 318.63L446.18 301.95L505.66 289.71H505.67Z" fill="#F073B4" stroke="black" stroke-width="0.75" stroke-miterlimit="10"/>
<path d="M479.82 219.05L505.67 289.7L460.65 298.53C460.65 298.53 451.17 319.85 429.63 323.95C408.09 328.04 403.57 328.04 403.57 328.04L401.42 308.08C401.42 308.08 434.16 304.78 438.25 285.83C442.34 266.88 441.91 245.12 441.91 245.12C441.91 245.12 440.4 227.89 458.71 223.15C477.02 218.41 479.82 219.05 479.82 219.05Z" fill="#7D83F9" stroke="black" stroke-width="0.75" stroke-miterlimit="10"/>
<path d="M460.65 298.54C460.65 298.54 466.35 279.47 463.99 263.7Z" fill="#7D83F9"/>
<path d="M460.65 298.54C460.65 298.54 466.35 279.47 463.99 263.7" stroke="black" stroke-width="0.75" stroke-miterlimit="10"/>
<path d="M477.57 318.91L482.09 331.07" stroke="black" stroke-width="0.75" stroke-miterlimit="10"/>
<path d="M401.42 308.09C401.42 308.09 388.3 308.13 379.9 296.23L380.88 304.49C377.44 304.02 373.87 303.17 370.41 303.06C368.94 303.01 367.44 303.24 366.16 303.96C365.77 304.18 365.37 304.49 365.3 304.93C365.2 305.54 365.76 306.03 366.27 306.38C368.47 307.88 371.68 309.95 374.46 309.96C372.09 309.95 369.72 309.95 367.36 309.94C366.49 309.94 365.6 309.94 364.77 310.21C362.38 310.99 361.66 313 364.22 314.01C368.84 315.83 377.1 317.23 377.1 317.23C374.8 316.84 372.47 316.79 370.15 316.71C368.22 316.64 366.28 316.15 365.02 318.03C364.59 318.66 364.35 319.54 364.79 320.17C365.08 320.58 365.6 320.77 366.08 320.91C369.43 321.91 372.93 321.79 376.34 322.47C377.43 322.69 378.44 323.18 379.54 323.37C376.23 323.55 372.81 323.38 369.48 323.37C368.46 323.37 367.08 323.95 367.17 325.22C367.31 327.23 373.26 327.77 374.7 328.12C378.37 329.02 382.12 329.73 385.92 329.75C391.84 329.77 397.66 328.1 403.58 328.06C402.87 321.4 402.15 314.75 401.43 308.09H401.42Z" fill="#F0EEFF" stroke="black" stroke-width="0.75" stroke-miterlimit="10"/>
<path d="M451.18 196.46C451.18 196.46 445.59 191.57 450.08 190.57C454.57 189.57 456.27 187.88 463.75 189.57C463.75 189.57 469.24 186.58 472.53 189.27C475.82 191.96 476.52 195.26 475.82 197.85C475.12 200.44 480.63 202.4 478.91 207.33L477.19 212.26C477.19 212.26 471.92 214.26 469.83 209.75C467.74 205.24 464.23 205.04 464.23 205.04L460.06 205.16L451.17 196.45L451.18 196.46Z" fill="black"/>
<path d="M479.82 219.05C479.26 217.51 478.69 215.98 478.13 214.44C477.94 213.93 477.69 212.52 477.2 212.26C476.83 212.07 475.23 212.6 474.72 212.6C473.87 212.6 473.01 212.49 472.22 212.15C470.62 211.48 469.36 209.79 469.65 208.09C469.82 207.03 470.53 206.14 470.96 205.15C471.39 204.16 471.45 202.82 470.58 202.19C470.29 201.98 469.93 201.88 469.57 201.82C467.26 201.47 465.18 203.01 464.24 205.04C463.05 205.1 461.86 205.15 460.67 205.21C460.47 205.21 460.26 205.23 460.07 205.16C459.86 205.09 459.7 204.93 459.53 204.79C457.89 203.27 456.24 201.77 454.63 200.22C453.52 199.14 451.85 197.9 451.18 196.46C450.82 198.42 450.72 200.46 449.96 202.33C449.17 204.27 447.11 205.34 446.51 207.44C446.37 207.91 446.54 208.34 446.91 208.66C447.15 208.86 447.44 209 447.73 209.11C448.54 209.43 449.41 209.59 450.28 209.72C450.64 209.78 450.79 213.26 451.01 213.85C451.5 215.18 452.2 216.36 453.57 216.91C457.09 218.31 460.78 217.81 460.78 217.81L463.13 222.04L479.84 219.05H479.82Z" fill="#F0EEFF" stroke="black" stroke-width="0.75" stroke-miterlimit="10"/>
<path d="M193.36 168.41C193.36 168.41 190.52 151.21 193.36 149.4C196.2 147.59 198.17 146.24 201.17 144.9C204.17 143.56 206.88 138.98 209.67 141.67C212.45 144.35 215.06 145.46 217.03 144.12C219 142.78 225.87 140.81 225.16 144.12C224.45 147.43 230.29 143.57 228.32 147.83C226.35 152.09 225.32 152.88 223.74 152.8C222.16 152.72 220.74 154.3 220.74 154.3L214.82 156.82L210.41 160.29L208.67 159.97L202.28 165.65L198.97 168.41L194.47 168.65" fill="black"/>
<path d="M220.73 153.23C220.73 153.23 222.68 158.4 222.89 158.89C223.75 160.84 225.04 162.54 225.96 164.43C225.26 164.98 223.88 165.11 223.02 165.36C222.25 165.58 221.49 165.79 220.72 166.01C219.92 166.24 219.66 168.47 219.45 169.14C219.04 170.45 218.77 172.99 217.2 173.43C216.82 173.54 216.41 173.53 216.01 173.53C214.39 173.51 212.78 173.5 211.16 173.48C209.19 173.46 208.62 174.75 207.58 176.19C207.45 176.37 205.92 178.75 205.73 178.63L193.34 170.98V167.35C193.34 167.35 202.49 168.3 201.94 163.09C201.39 157.88 203.6 156.38 203.6 156.38C203.6 156.38 206.99 154.09 207.94 158.27C208.89 162.45 216.07 154.64 216.07 154.64L220.72 153.22L220.73 153.23Z" fill="#F0EEFF" stroke="black" stroke-width="0.75" stroke-miterlimit="10"/>
<path d="M306.321 231.233L294.172 254.245L214.112 222.627L213.943 222.561L213.827 222.701L171.244 274.389L132.156 242.597L193.419 171.294L306.321 231.233Z" fill="#00DFBF" stroke="black" stroke-width="0.5"/>
<path d="M202.74 212.91L214.02 222.86" stroke="black" stroke-width="0.75" stroke-miterlimit="10"/>
<path d="M131.8 242.63L11 387L40.43 399.8C50.31 389.95 60.2 380.09 70.08 370.24C87.34 353.04 104.59 335.84 121.85 318.63C127.44 313.06 133.03 307.49 138.62 301.91C140.01 300.52 140.82 298.88 142.58 299.5C144.11 300.04 145.98 302.4 147.24 303.47C150.34 306.11 153.44 308.74 156.53 311.38C160.27 314.56 164.01 317.75 167.75 320.93C171.32 323.97 175.38 326.09 175.37 331.25C175.29 354.98 175.31 378.71 175.31 402.44H208.87C209.44 385.53 210 368.62 210.57 351.72C210.77 345.69 210.97 339.66 211.18 333.63C211.43 326.14 213.47 316.68 210.71 309.6C207.91 302.43 198.6 297.4 192.67 292.53C185.78 286.87 178.88 281.22 171.99 275.56C159.29 265.14 146.59 254.72 133.89 244.3C133.79 244.22 131.83 242.6 131.83 242.61L131.8 242.63Z" fill="#F93389" stroke="black" stroke-width="0.75" stroke-miterlimit="10"/>
<path d="M306.28 232.43C306.8 232.16 307.45 232.26 308.03 232.36C311.68 232.99 315.43 233.36 319.07 232.73C322.72 232.1 326.29 230.4 328.58 227.49C328.94 227.04 329.27 226.55 329.75 226.23C330.23 225.91 330.91 225.81 331.37 226.16C331.63 226.36 331.77 226.67 331.88 226.97C332.84 229.56 331.99 232.6 330.17 234.68C328.36 236.74 325.82 237.82 323.2 238.41C324.24 238.18 326.33 238.9 327.39 239.12C328.62 239.38 330.26 239.66 331.07 240.74C334.01 244.64 326.4 245.84 324.11 245.24C325.4 245.58 329.96 247.28 329.31 249.16C329.11 249.76 328.56 250.18 328.01 250.49C325.94 251.69 323.4 252.05 321.08 251.47C321.96 252.22 322.77 253.06 323.47 253.97C323.76 254.35 324.05 254.78 324.02 255.26C323.98 255.83 323.5 256.27 323.01 256.58C321.28 257.68 319.04 257.94 317.1 257.28C318.67 258.19 320.12 259.32 321.37 260.63C321.6 260.87 321.84 261.21 321.7 261.52C321.62 261.68 321.46 261.78 321.3 261.86C318.93 263.04 316.04 262.85 313.58 261.87C310.65 260.7 308.39 258.53 305.97 256.58C303.16 254.33 300.36 252.08 297.55 249.83C297.38 249.69 297.2 249.54 297.16 249.32C297.13 249.13 297.22 248.94 297.31 248.77C299.99 243.69 302.66 238.61 305.34 233.53C305.55 233.14 305.77 232.73 306.14 232.49C306.17 232.47 306.21 232.45 306.24 232.43H306.28Z" fill="#F0EEFF" stroke="black" stroke-width="0.75" stroke-miterlimit="10"/>
<path d="M373.97 297.38C377.32 279.94 384.2 262.8 392.24 247.06C402.36 227.24 415.6 210.27 430.48 194.03C449.65 173.1 465.89 150.98 469.42 121.95C474.26 82.18 455.21 44.59 422.92 21.8C402.26 7.21002 375.33 0.290017 350.27 0.380017C297.42 0.560017 242.46 39.1 239.58 95.17C238.57 114.83 244.46 134.19 251.73 152.49C259.54 172.15 268.36 191.2 274.08 211.62C280.17 233.34 283.34 256.37 284.13 278.88C284.21 281.05 284.68 284.05 283.85 286.14" stroke="white" stroke-miterlimit="10"/>
<path d="M303.26 301.41C308.43 282.8 313.6 264.2 318.76 245.59L319.07 244.47C323.64 228 327.85 211.49 331.04 194.68C331.68 191.33 332.5 187.99 333.22 184.64C334.18 180.12 333.93 175.47 334.27 170.89C334.68 165.26 335.1 159.63 335.53 154C336.04 147.24 331.46 139.43 324.11 139.24C318.24 139.09 313.7 143.75 313.14 149.4C312.9 151.79 313.2 154.21 313.6 156.58C314.53 162.05 316.06 167.45 318.65 172.35C323 180.57 330.73 186.9 339.83 189.12C353.39 192.42 366.59 185.11 366.6 185.11C370.32 183.05 373.6 179.31 376.15 175.99C379.57 171.53 382.14 166.32 382.92 160.71C383.12 159.29 383.2 157.83 382.84 156.44C381.69 151.98 375.63 150.46 371.7 151.66C368.6 152.61 366.14 154.98 364.07 157.48C359.15 163.39 355.84 170.31 353.75 177.68C349.55 192.47 343.51 207.15 340.32 222.27C338.8 229.48 337.23 236.69 335.67 243.89C331.62 262.53 328.22 281.31 325.25 300.15C324.97 301.94 324.69 303.73 324.39 305.51L324.14 306.99" stroke="white" stroke-miterlimit="10"/>
<path d="M580.76 374.04H591.88V418.64C591.88 418.64 588.33 421.58 584.41 414.36C580.49 407.14 580.76 401.69 580.76 401.69V374.04Z" fill="black"/>
<path d="M446.192 391.004L446.212 402.124L401.612 402.205C401.612 402.205 398.666 398.66 405.879 394.727C413.092 390.794 418.542 391.054 418.542 391.054L446.192 391.004Z" fill="black"/>
<path d="M174 396.004V407.124H218.6C218.6 407.124 221.54 403.574 214.32 399.654C207.1 395.734 201.65 396.004 201.65 396.004H174Z" fill="black"/>
<path d="M15.47 380.003L8.99999 389.047L45.2735 414.997C45.2735 414.997 49.7301 413.82 46.1388 406.431C42.5476 399.042 37.9579 396.091 37.9579 396.091L15.47 380.003Z" fill="black"/>
<path d="M453 204.6C453.398 204.6 453.72 204.278 453.72 203.88C453.72 203.482 453.398 203.16 453 203.16C452.602 203.16 452.28 203.482 452.28 203.88C452.28 204.278 452.602 204.6 453 204.6Z" fill="black"/>
<path d="M451.05 213.45C451.05 213.45 452.83 213.58 453.55 212.27Z" fill="#F0EEFF"/>
<path d="M451.05 213.45C451.05 213.45 452.83 213.58 453.55 212.27" stroke="black" stroke-width="0.75" stroke-linecap="round" stroke-linejoin="round"/>
<path d="M219.55 168.01C219.55 168.01 218.08 168.14 217.48 166.83Z" fill="#F0EEFF"/>
<path d="M219.55 168.01C219.55 168.01 218.08 168.14 217.48 166.83" stroke="black" stroke-width="0.75" stroke-linecap="round" stroke-linejoin="round"/>
<path d="M217.01 160.01C217.408 160.01 217.73 159.688 217.73 159.29C217.73 158.892 217.408 158.57 217.01 158.57C216.612 158.57 216.29 158.892 216.29 159.29C216.29 159.688 216.612 160.01 217.01 160.01Z" fill="black"/>
<path d="M505.67 172.41C507.747 172.41 509.43 170.726 509.43 168.65C509.43 166.573 507.747 164.89 505.67 164.89C503.593 164.89 501.91 166.573 501.91 168.65C501.91 170.726 503.593 172.41 505.67 172.41Z" fill="#CEFF62" stroke="black" stroke-miterlimit="10"/>
<path d="M547.91 147.44C552.439 147.44 556.11 143.769 556.11 139.24C556.11 134.711 552.439 131.04 547.91 131.04C543.381 131.04 539.71 134.711 539.71 139.24C539.71 143.769 543.381 147.44 547.91 147.44Z" fill="#F93389" stroke="black" stroke-width="0.75" stroke-miterlimit="10"/>
</g>
<defs>
<clipPath id="clip0_60_84">
<rect width="591.88" height="419.23" fill="white"/>
</clipPath>
</defs>
</svg>
