<svg width="415" height="241" viewBox="0 0 415 241" fill="none" xmlns="http://www.w3.org/2000/svg">
<g clip-path="url(#clip0_223_6388)">
<path d="M368.596 198.43H102.863V219.178H368.596V198.43Z" fill="#1C2948"/>
<path d="M339.37 239.81C348.914 239.81 356.65 232.074 356.65 222.53C356.65 212.987 348.914 205.25 339.37 205.25C329.826 205.25 322.09 212.987 322.09 222.53C322.09 232.074 329.826 239.81 339.37 239.81Z" fill="#212121"/>
<path d="M339.37 211.822C333.456 211.822 328.662 216.616 328.662 222.53C328.662 228.445 333.456 233.238 339.37 233.238C345.284 233.238 350.078 228.445 350.078 222.53C350.078 216.616 345.284 211.822 339.37 211.822ZM340.836 212.997C343.167 213.352 345.224 214.546 346.69 216.258L342.979 218.551C342.375 218.002 341.644 217.59 340.836 217.363V213.001V212.997ZM337.904 212.997V217.36C337.096 217.59 336.365 217.999 335.761 218.548L332.05 216.255C333.519 214.543 335.573 213.352 337.904 212.994V212.997ZM330.479 226.27C329.994 225.12 329.726 223.855 329.726 222.53C329.726 221.205 330 219.908 330.498 218.746L334.206 221.036C334.069 221.511 333.995 222.01 333.995 222.53C333.995 223.051 334.066 223.514 334.193 223.974L330.479 226.267V226.27ZM337.904 232.063C335.557 231.705 333.488 230.498 332.019 228.767L335.726 226.477C336.339 227.043 337.083 227.467 337.907 227.7V232.063H337.904ZM336.94 222.53C336.94 221.189 338.029 220.1 339.37 220.1C340.711 220.1 341.8 221.189 341.8 222.53C341.8 223.871 340.711 224.96 339.37 224.96C338.029 224.96 336.94 223.871 336.94 222.53ZM340.836 232.063V227.7C341.66 227.467 342.404 227.043 343.017 226.477L346.725 228.767C345.256 230.498 343.186 231.705 340.839 232.063H340.836ZM344.547 223.974C344.674 223.514 344.745 223.028 344.745 222.53C344.745 222.032 344.671 221.511 344.534 221.036L348.242 218.746C348.737 219.908 349.014 221.186 349.014 222.53C349.014 223.875 348.746 225.12 348.261 226.27L344.547 223.977V223.974Z" fill="#98BDF4"/>
<path d="M124.356 239.81C133.9 239.81 141.636 232.074 141.636 222.53C141.636 212.987 133.9 205.25 124.356 205.25C114.813 205.25 107.076 212.987 107.076 222.53C107.076 232.074 114.813 239.81 124.356 239.81Z" fill="#232323" stroke="black" stroke-width="0.319352" stroke-miterlimit="10"/>
<path d="M124.356 211.822C118.442 211.822 113.648 216.616 113.648 222.53C113.648 228.445 118.442 233.238 124.356 233.238C130.271 233.238 135.064 228.445 135.064 222.53C135.064 216.616 130.271 211.822 124.356 211.822ZM125.822 212.997C128.153 213.352 130.21 214.546 131.676 216.258L127.965 218.551C127.361 218.002 126.63 217.59 125.822 217.363V213.001V212.997ZM122.887 212.997V217.36C122.079 217.59 121.348 217.999 120.744 218.548L117.034 216.255C118.503 214.543 120.556 213.352 122.887 212.994V212.997ZM115.462 226.27C114.977 225.12 114.709 223.855 114.709 222.53C114.709 221.205 114.983 219.908 115.482 218.746L119.189 221.036C119.052 221.511 118.978 222.01 118.978 222.53C118.978 223.051 119.049 223.514 119.176 223.974L115.462 226.267V226.27ZM122.887 232.063C120.54 231.705 118.471 230.498 117.002 228.767L120.709 226.477C121.322 227.043 122.067 227.467 122.89 227.7V232.063H122.887ZM121.923 222.53C121.923 221.189 123.012 220.1 124.353 220.1C125.694 220.1 126.783 221.189 126.783 222.53C126.783 223.871 125.694 224.96 124.353 224.96C123.012 224.96 121.923 223.871 121.923 222.53ZM125.822 232.063V227.7C126.646 227.467 127.39 227.043 128.003 226.477L131.711 228.767C130.242 230.498 128.173 231.705 125.825 232.063H125.822ZM129.533 223.974C129.661 223.514 129.731 223.028 129.731 222.53C129.731 222.032 129.658 221.511 129.52 221.036L133.228 218.746C133.723 219.908 134.001 221.186 134.001 222.53C134.001 223.875 133.732 225.12 133.247 226.27L129.533 223.977V223.974Z" fill="#98BDF4" stroke="black" stroke-width="0.319352" stroke-miterlimit="10"/>
<path d="M214.893 113.047H63.75V108.387C63.75 106.286 65.4521 104.584 67.5535 104.584H206.989C208.228 104.584 209.391 105.188 210.103 106.206L214.893 113.047Z" fill="#1FFFB4" stroke="black" stroke-width="0.319352" stroke-miterlimit="10"/>
<path d="M63.75 110.277V113.046H214.893L212.955 110.277H63.75Z" fill="#1FFFB4" stroke="black" stroke-width="0.319352" stroke-miterlimit="10"/>
<path d="M372.567 113.047H54.3705C48.9767 113.047 44.6016 117.419 44.6016 122.816V211.752C44.6016 214.151 46.3133 216.204 48.6701 216.642L75.451 221.601H105.205C105.205 211.123 113.7 202.628 124.178 202.628C134.656 202.628 143.15 211.123 143.15 221.601H320.222C320.222 211.123 328.716 202.628 339.194 202.628C349.672 202.628 358.167 211.123 358.167 221.601H377.497C380.17 221.601 382.339 219.433 382.339 216.76V122.816C382.339 117.422 377.967 113.047 372.57 113.047H372.567Z" fill="#D7FF7B" stroke="black" stroke-width="0.319352" stroke-miterlimit="10"/>
<path d="M354.851 210.893C356.939 213.939 358.159 217.628 358.159 221.6H377.49C380.163 221.6 382.331 219.432 382.331 216.759C382.331 213.521 379.706 210.893 376.465 210.893H354.848H354.851Z" fill="#1FFFB4" stroke="black" stroke-width="0.319352" stroke-miterlimit="10"/>
<path d="M44.6016 210.893V211.752C44.6016 214.15 46.3133 216.203 48.6701 216.641L75.451 221.6H105.205C105.205 217.628 106.428 213.942 108.514 210.893H44.6016Z" fill="#1FFFB4" stroke="black" stroke-width="0.319352" stroke-miterlimit="10"/>
<path d="M139.838 210.893C141.926 213.939 143.146 217.628 143.146 221.6H320.218C320.218 217.628 321.441 213.942 323.526 210.893H139.838Z" fill="#1FFFB4" stroke="black" stroke-width="0.319352" stroke-miterlimit="10"/>
<path d="M46.8872 184.795H42.5664V207.667H46.8872V184.795Z" fill="#FF3079" stroke="black" stroke-width="0.319352" stroke-miterlimit="10"/>
<path d="M46.8872 178.594H42.5664V182.915H46.8872V178.594Z" fill="#1FFFB4" stroke="black" stroke-width="0.319352" stroke-miterlimit="10"/>
<path d="M382.331 183.637H380.105V204.318H382.331V183.637Z" fill="#FF3079" stroke="black" stroke-width="0.319352" stroke-miterlimit="10"/>
<path d="M249.059 126.09H163.916C160.389 126.09 157.529 128.949 157.529 132.477V167.459C157.529 170.986 160.389 173.846 163.916 173.846H249.059C252.586 173.846 255.446 170.986 255.446 167.459V132.477C255.446 128.949 252.586 126.09 249.059 126.09Z" fill="#163560" stroke="black" stroke-width="0.319352" stroke-miterlimit="10"/>
<path d="M343.507 126.09H316.25C312.723 126.09 309.863 128.949 309.863 132.477V167.459C309.863 170.986 312.723 173.846 316.25 173.846H343.507C347.035 173.846 349.894 170.986 349.894 167.459V132.477C349.894 128.949 347.035 126.09 343.507 126.09Z" fill="#163560" stroke="black" stroke-width="0.319352" stroke-miterlimit="10"/>
<path d="M359.432 126.09H375.949C379.474 126.09 382.336 128.951 382.336 132.477V173.846C366.17 173.846 353.045 160.72 353.045 144.555V132.477C353.045 128.951 355.906 126.09 359.432 126.09Z" fill="#163560" stroke="black" stroke-width="0.319352" stroke-miterlimit="10"/>
<path d="M249.059 126.09H163.916C160.389 126.09 157.529 128.949 157.529 132.477V167.459C157.529 170.986 160.389 173.846 163.916 173.846H249.059C252.586 173.846 255.446 170.986 255.446 167.459V132.477C255.446 128.949 252.586 126.09 249.059 126.09Z" fill="#98BDF4" stroke="black" stroke-width="0.319352" stroke-miterlimit="10"/>
<path d="M343.507 126.09H316.25C312.723 126.09 309.863 128.949 309.863 132.477V167.459C309.863 170.986 312.723 173.846 316.25 173.846H343.507C347.035 173.846 349.894 170.986 349.894 167.459V132.477C349.894 128.949 347.035 126.09 343.507 126.09Z" fill="#98BDF4" stroke="black" stroke-width="0.319352" stroke-miterlimit="10"/>
<path d="M359.432 126.09H375.949C379.474 126.09 382.336 128.951 382.336 132.477V173.846C366.17 173.846 353.045 160.72 353.045 144.555V132.477C353.045 128.951 355.906 126.09 359.432 126.09Z" fill="#98BDF4" stroke="black" stroke-width="0.319352" stroke-miterlimit="10"/>
<path d="M144.459 126.09H59.3167C55.7893 126.09 52.9297 128.949 52.9297 132.477V167.459C52.9297 170.986 55.7893 173.846 59.3167 173.846H144.459C147.987 173.846 150.846 170.986 150.846 167.459V132.477C150.846 128.949 147.987 126.09 144.459 126.09Z" fill="#163560" stroke="black" stroke-width="0.319352" stroke-miterlimit="10"/>
<path d="M144.459 126.09H59.3167C55.7893 126.09 52.9297 128.949 52.9297 132.477V167.459C52.9297 170.986 55.7893 173.846 59.3167 173.846H144.459C147.987 173.846 150.846 170.986 150.846 167.459V132.477C150.846 128.949 147.987 126.09 144.459 126.09Z" fill="#98BDF4" stroke="black" stroke-width="0.319352" stroke-miterlimit="10"/>
<path d="M304.063 126.09H261.691C259.944 126.09 258.529 127.505 258.529 129.251V221.602H307.224V129.251C307.224 127.505 305.809 126.09 304.063 126.09Z" fill="#98BDF4" stroke="black" stroke-width="0.319352" stroke-miterlimit="10"/>
<mask id="mask0_223_6388" style="mask-type:luminance" maskUnits="userSpaceOnUse" x="157" y="126" width="99" height="48">
<path d="M249.059 126.09H163.916C160.389 126.09 157.529 128.949 157.529 132.477V167.459C157.529 170.986 160.389 173.846 163.916 173.846H249.059C252.586 173.846 255.446 170.986 255.446 167.459V132.477C255.446 128.949 252.586 126.09 249.059 126.09Z" fill="white"/>
</mask>
<g mask="url(#mask0_223_6388)">
<path d="M159.638 200.004H146.123L205.644 95.1289H219.159L159.638 200.004Z" fill="#D5E7F7" stroke="black" stroke-width="0.319352" stroke-miterlimit="10"/>
<path d="M190.072 204.322H186.508L246.029 99.4434H249.593L190.072 204.322Z" fill="#D5E7F7" stroke="black" stroke-width="0.319352" stroke-miterlimit="10"/>
</g>
<path d="M249.059 126.09H163.916C160.389 126.09 157.529 128.949 157.529 132.477V167.459C157.529 170.986 160.389 173.846 163.916 173.846H249.059C252.586 173.846 255.446 170.986 255.446 167.459V132.477C255.446 128.949 252.586 126.09 249.059 126.09Z" stroke="black" stroke-width="0.319352" stroke-miterlimit="10"/>
<mask id="mask1_223_6388" style="mask-type:luminance" maskUnits="userSpaceOnUse" x="309" y="126" width="41" height="48">
<path d="M343.507 126.09H316.25C312.723 126.09 309.863 128.949 309.863 132.477V167.459C309.863 170.986 312.723 173.846 316.25 173.846H343.507C347.035 173.846 349.894 170.986 349.894 167.459V132.477C349.894 128.949 347.035 126.09 343.507 126.09Z" fill="white"/>
</mask>
<g mask="url(#mask1_223_6388)">
<path d="M314.423 194.6H300.908L360.429 89.7246H373.947L314.423 194.6Z" fill="#D5E7F7" stroke="black" stroke-width="0.319352" stroke-miterlimit="10"/>
<path d="M322.812 196.516H319.248L378.769 91.6406H382.333L322.812 196.516Z" fill="#D5E7F7" stroke="black" stroke-width="0.319352" stroke-miterlimit="10"/>
</g>
<path d="M343.507 126.09H316.25C312.723 126.09 309.863 128.949 309.863 132.477V167.459C309.863 170.986 312.723 173.846 316.25 173.846H343.507C347.035 173.846 349.894 170.986 349.894 167.459V132.477C349.894 128.949 347.035 126.09 343.507 126.09Z" stroke="black" stroke-width="0.319352" stroke-miterlimit="10"/>
<mask id="mask2_223_6388" style="mask-type:luminance" maskUnits="userSpaceOnUse" x="353" y="126" width="30" height="48">
<path d="M359.43 126.09H375.947C379.473 126.09 382.334 128.951 382.334 132.477V173.846C366.168 173.846 353.043 160.72 353.043 144.555V132.477C353.043 128.951 355.904 126.09 359.43 126.09Z" fill="white"/>
</mask>
<g mask="url(#mask2_223_6388)">
<path d="M346.754 192.688H339.996L399.517 87.8125H406.274L346.754 192.688Z" fill="#D5E7F7" stroke="black" stroke-width="0.319352" stroke-miterlimit="10"/>
<path d="M355.14 194.6H351.576L411.097 89.7246H414.661L355.14 194.6Z" fill="#D5E7F7" stroke="black" stroke-width="0.319352" stroke-miterlimit="10"/>
</g>
<path d="M359.43 126.09H375.947C379.473 126.09 382.334 128.951 382.334 132.477V173.846C366.168 173.846 353.043 160.72 353.043 144.555V132.477C353.043 128.951 355.904 126.09 359.43 126.09Z" stroke="black" stroke-width="0.319352" stroke-miterlimit="10"/>
<mask id="mask3_223_6388" style="mask-type:luminance" maskUnits="userSpaceOnUse" x="52" y="126" width="99" height="48">
<path d="M144.457 126.09H59.3148C55.7873 126.09 52.9277 128.949 52.9277 132.477V167.459C52.9277 170.986 55.7873 173.846 59.3148 173.846H144.457C147.985 173.846 150.844 170.986 150.844 167.459V132.477C150.844 128.949 147.985 126.09 144.457 126.09Z" fill="white"/>
</mask>
<g mask="url(#mask3_223_6388)">
<path d="M53.5501 198.895H40.0352L99.556 94.0195H113.074L53.5501 198.895Z" fill="#D5E7F7" stroke="black" stroke-width="0.319352" stroke-miterlimit="10"/>
<path d="M100.192 198.895H86.6738L146.195 94.0195H159.713L100.192 198.895Z" fill="#D5E7F7" stroke="black" stroke-width="0.319352" stroke-miterlimit="10"/>
<path d="M61.3017 198.895H57.7441L117.265 94.0195H120.823L61.3017 198.895Z" fill="#D5E7F7" stroke="black" stroke-width="0.319352" stroke-miterlimit="10"/>
</g>
<path d="M144.459 126.09H59.3167C55.7893 126.09 52.9297 128.949 52.9297 132.477V167.459C52.9297 170.986 55.7893 173.846 59.3167 173.846H144.459C147.987 173.846 150.846 170.986 150.846 167.459V132.477C150.846 128.949 147.987 126.09 144.459 126.09Z" stroke="black" stroke-width="0.319352" stroke-miterlimit="10"/>
<mask id="mask4_223_6388" style="mask-type:luminance" maskUnits="userSpaceOnUse" x="258" y="126" width="50" height="96">
<path d="M304.061 126.09H261.689C259.942 126.09 258.527 127.505 258.527 129.251V221.602H307.222V129.251C307.222 127.505 305.807 126.09 304.061 126.09Z" fill="white"/>
</mask>
<g mask="url(#mask4_223_6388)">
<path d="M241.239 224.548H227.721L287.242 119.67H300.76L241.239 224.548Z" fill="#D5E7F7" stroke="black" stroke-width="0.319352" stroke-miterlimit="10"/>
<path d="M249.625 226.461H246.061L305.581 121.586H309.145L249.625 226.461Z" fill="#D5E7F7" stroke="black" stroke-width="0.319352" stroke-miterlimit="10"/>
<path d="M273.564 222.633H266.807L326.327 117.758H333.085L273.564 222.633Z" fill="#D5E7F7" stroke="black" stroke-width="0.319352" stroke-miterlimit="10"/>
</g>
<path d="M304.061 126.09H261.689C259.942 126.09 258.527 127.505 258.527 129.251V221.602H307.222V129.251C307.222 127.505 305.807 126.09 304.061 126.09Z" stroke="black" stroke-width="0.319352" stroke-miterlimit="10"/>
<path d="M284.14 126.09H281.531V221.602H284.14V126.09Z" fill="#163560" stroke="black" stroke-width="0.319352" stroke-miterlimit="10"/>
<path d="M147.684 174.635H56.0903C53.9123 174.635 52.1367 172.862 52.1367 170.681V129.249C52.1367 127.071 53.9091 125.295 56.0903 125.295H147.68C149.858 125.295 151.634 127.067 151.634 129.249V170.681C151.634 172.859 149.862 174.635 147.68 174.635H147.684ZM56.0903 126.879C54.7841 126.879 53.7175 127.942 53.7175 129.252V170.684C53.7175 171.991 54.781 173.057 56.0903 173.057H147.68C148.987 173.057 150.053 171.994 150.053 170.684V129.252C150.053 127.946 148.99 126.879 147.68 126.879H56.0903Z" fill="#163560" stroke="black" stroke-width="0.319352" stroke-miterlimit="10"/>
<path d="M252.282 174.635H160.692C158.514 174.635 156.738 172.862 156.738 170.681V129.249C156.738 127.071 158.511 125.295 160.692 125.295H252.282C254.46 125.295 256.236 127.067 256.236 129.249V170.681C256.236 172.859 254.463 174.635 252.282 174.635ZM160.692 126.879C159.386 126.879 158.319 127.942 158.319 129.252V170.684C158.319 171.991 159.383 173.057 160.692 173.057H252.282C253.588 173.057 254.655 171.994 254.655 170.684V129.252C254.655 127.946 253.591 126.879 252.282 126.879H160.692Z" fill="#163560" stroke="black" stroke-width="0.319352" stroke-miterlimit="10"/>
<path d="M308.014 222.39H257.738V129.25C257.738 127.072 259.511 125.297 261.692 125.297H304.064C306.241 125.297 308.017 127.069 308.017 129.25V222.39H308.014ZM259.319 220.809H306.433V129.25C306.433 127.944 305.37 126.878 304.06 126.878H261.689C260.383 126.878 259.316 127.941 259.316 129.25V220.809H259.319Z" fill="#163560" stroke="black" stroke-width="0.319352" stroke-miterlimit="10"/>
<path d="M346.733 174.635H313.026C310.848 174.635 309.072 172.862 309.072 170.681V129.249C309.072 127.071 310.845 125.295 313.026 125.295H346.733C348.911 125.295 350.687 127.067 350.687 129.249V170.681C350.687 172.859 348.915 174.635 346.733 174.635ZM313.026 126.879C311.72 126.879 310.653 127.942 310.653 129.252V170.684C310.653 171.991 311.717 173.057 313.026 173.057H346.733C348.04 173.057 349.106 171.994 349.106 170.684V129.252C349.106 127.946 348.043 126.879 346.733 126.879H313.026Z" fill="#163560" stroke="black" stroke-width="0.319352" stroke-miterlimit="10"/>
<path d="M381.427 174.634H374.137C362.072 174.634 352.258 164.817 352.258 152.755V129.25C352.258 127.072 354.03 125.297 356.211 125.297H379.176C381.354 125.297 383.13 127.069 383.13 129.25V172.938C383.13 173.874 382.366 174.637 381.431 174.637L381.427 174.634ZM356.205 126.878C354.899 126.878 353.832 127.941 353.832 129.25V152.755C353.832 163.948 362.937 173.053 374.13 173.053H381.421C381.485 173.053 381.539 173.002 381.539 172.935V129.247C381.539 127.941 380.476 126.874 379.166 126.874H356.202L356.205 126.878Z" fill="#163560" stroke="black" stroke-width="0.319352" stroke-miterlimit="10"/>
<path d="M312.678 221.602H252.994V224.428H312.678V221.602Z" fill="#D7FF7B" stroke="black" stroke-width="0.319352" stroke-miterlimit="10"/>
<path d="M315.287 224.428H250.389V227.254H315.287V224.428Z" fill="#1FFFB4" stroke="black" stroke-width="0.319352" stroke-miterlimit="10"/>
<path d="M389.857 155.916C387.995 155.916 386.484 154.405 386.484 152.543V124.929C386.484 123.067 387.995 121.557 389.857 121.557C391.719 121.557 393.229 123.067 393.229 124.929V152.543C393.229 154.405 391.719 155.916 389.857 155.916Z" fill="#1FFFB4" stroke="black" stroke-width="0.319352" stroke-miterlimit="10"/>
<path d="M388.423 123.758H356.698C355.482 123.758 354.498 122.774 354.498 121.558C354.498 120.341 355.482 119.357 356.698 119.357H388.423C389.64 119.357 390.623 120.341 390.623 121.558C390.623 122.774 389.64 123.758 388.423 123.758Z" fill="#1FFFB4" stroke="black" stroke-width="0.319352" stroke-miterlimit="10"/>
<path d="M410.218 239.686H3.30922C3.12226 239.686 2.9707 239.837 2.9707 240.024V240.027C2.9707 240.214 3.12226 240.366 3.30922 240.366H410.218C410.405 240.366 410.557 240.214 410.557 240.027V240.024C410.557 239.837 410.405 239.686 410.218 239.686Z" fill="#283250"/>
</g>
<defs>
<clipPath id="clip0_223_6388">
<rect width="414.934" height="240.364" fill="white"/>
</clipPath>
</defs>
</svg>
