<svg width="24" height="24" viewBox="0 0 24 24" fill="none" xmlns="http://www.w3.org/2000/svg">
<path d="M0.5 12C0.5 5.64873 5.64873 0.5 12 0.5C18.3513 0.5 23.5 5.64873 23.5 12C23.5 18.3513 18.3513 23.5 12 23.5C5.64873 23.5 0.5 18.3513 0.5 12Z" stroke="#D7FF7B"/>
<g clip-path="url(#clip0_1_271)">
<path d="M17.5447 6.91332C16.5074 6.43716 15.4126 6.09761 14.2879 5.90318C14.2777 5.90128 14.2672 5.90264 14.2578 5.90708C14.2484 5.91152 14.2406 5.91881 14.2356 5.92792C14.0949 6.17812 13.9391 6.50445 13.8301 6.76092C12.6003 6.57678 11.3767 6.57678 10.1722 6.76092C10.0631 6.49872 9.90167 6.17812 9.7604 5.92792C9.75517 5.91902 9.74738 5.91191 9.73804 5.90751C9.72871 5.90311 9.71826 5.90162 9.70807 5.90325C8.58326 6.09723 7.48846 6.43674 6.45127 6.91325C6.4424 6.91704 6.43492 6.92349 6.42987 6.93172C4.3556 10.0306 3.78734 13.0534 4.06614 16.0386C4.06692 16.046 4.06917 16.053 4.07274 16.0595C4.07632 16.0659 4.08114 16.0715 4.08694 16.076C5.45547 17.0811 6.78114 17.6912 8.0822 18.0956C8.09232 18.0987 8.10312 18.0985 8.11315 18.0952C8.12318 18.0919 8.13197 18.0857 8.13834 18.0772C8.44607 17.657 8.7204 17.2138 8.95567 16.7478C8.9589 16.7414 8.96075 16.7344 8.96108 16.7273C8.96142 16.7201 8.96024 16.713 8.95762 16.7063C8.955 16.6997 8.951 16.6936 8.94589 16.6886C8.94077 16.6836 8.93465 16.6798 8.92794 16.6773C8.49274 16.5122 8.0784 16.311 7.6798 16.0824C7.67253 16.0782 7.66643 16.0722 7.66202 16.065C7.65762 16.0578 7.65506 16.0496 7.65456 16.0412C7.65405 16.0328 7.65563 16.0244 7.65915 16.0168C7.66267 16.0091 7.66802 16.0024 7.67474 15.9973C7.7586 15.9344 7.84254 15.8691 7.9226 15.803C7.92972 15.7972 7.93833 15.7934 7.94747 15.7922C7.95661 15.7909 7.96592 15.7923 7.97434 15.796C10.5929 16.9916 13.4277 16.9916 16.0153 15.796C16.0237 15.792 16.0331 15.7905 16.0424 15.7916C16.0516 15.7927 16.0604 15.7965 16.0676 15.8024C16.1477 15.8684 16.2316 15.9344 16.3161 15.9973C16.3229 16.0024 16.3282 16.009 16.3318 16.0166C16.3354 16.0242 16.337 16.0326 16.3366 16.041C16.3361 16.0494 16.3337 16.0576 16.3293 16.0648C16.325 16.072 16.3189 16.0781 16.3117 16.0824C15.913 16.3153 15.4953 16.5141 15.0631 16.6766C15.0564 16.6792 15.0503 16.6832 15.0452 16.6883C15.0401 16.6933 15.0362 16.6994 15.0336 16.7061C15.031 16.7129 15.0299 16.72 15.0303 16.7272C15.0307 16.7344 15.0326 16.7414 15.0359 16.7478C15.2762 17.2131 15.5505 17.6563 15.8526 18.0766C15.8588 18.0853 15.8675 18.0918 15.8776 18.0952C15.8877 18.0986 15.8986 18.0988 15.9087 18.0956C17.2161 17.6912 18.5417 17.081 19.9103 16.076C19.9162 16.0717 19.9211 16.0662 19.9247 16.0599C19.9283 16.0536 19.9305 16.0465 19.9311 16.0392C20.2647 12.5879 19.3723 9.58998 17.5655 6.93232C17.561 6.92368 17.5537 6.91698 17.5447 6.91332ZM9.34667 14.2209C8.55834 14.2209 7.90874 13.4971 7.90874 12.6082C7.90874 11.7194 8.54574 10.9956 9.34674 10.9956C10.1539 10.9956 10.7972 11.7258 10.7846 12.6083C10.7846 13.4971 10.1476 14.2209 9.34667 14.2209ZM14.6632 14.2209C13.8749 14.2209 13.2253 13.4971 13.2253 12.6082C13.2253 11.7194 13.8622 10.9956 14.6632 10.9956C15.4704 10.9956 16.1137 11.7258 16.1011 12.6083C16.1011 13.4971 15.4704 14.2209 14.6632 14.2209Z" fill="#D7FF7B"/>
</g>
<defs>
<clipPath id="clip0_1_271">
<rect width="16" height="16" fill="white" transform="translate(4 4)"/>
</clipPath>
</defs>
</svg>
