<svg width="21" height="22" viewBox="0 0 21 22" fill="none" xmlns="http://www.w3.org/2000/svg">
<path d="M2.51123 14.8308L3.33004 19.5146C3.33004 19.5146 8.18648 22.9762 14.4395 21.077C14.4395 21.077 17.0634 20.518 17.9558 19.6257L19.337 14.6855L2.51123 14.8308Z" fill="#D0DCFF" stroke="black" stroke-width="0.170941" stroke-miterlimit="10"/>
<path d="M10.7915 15.7659C15.595 15.7659 19.4889 14.3806 19.4889 12.6718C19.4889 10.9631 15.595 9.57782 10.7915 9.57782C5.98799 9.57782 2.09399 10.9631 2.09399 12.6718C2.09399 14.3806 5.98799 15.7659 10.7915 15.7659Z" fill="black"/>
<path d="M10.8137 16.5847C6.05642 16.5847 1 15.2138 1 12.6719C1 10.13 6.05642 8.75903 10.8137 8.75903C15.571 8.75903 20.6274 10.13 20.6274 12.6719C20.6274 15.2138 15.571 16.5847 10.8137 16.5847ZM10.8137 9.85134C8.40002 9.85134 6.14018 10.1898 4.44787 10.8052C2.97436 11.3402 2.09403 12.0377 2.09403 12.6719C2.09403 13.3061 2.97436 14.0035 4.44787 14.5385C6.14018 15.1539 8.40002 15.4924 10.8137 15.4924C13.2274 15.4924 15.4873 15.1539 17.1796 14.5385C18.6531 14.0035 19.5334 13.3061 19.5334 12.6719C19.5334 12.0377 18.6531 11.3402 17.1796 10.8052C15.4873 10.1898 13.2274 9.85134 10.8137 9.85134Z" fill="white" stroke="black" stroke-width="0.170941" stroke-miterlimit="10"/>
<path d="M11.0445 15.7984C11.7778 15.7762 12.506 15.7334 13.2445 15.6565C13.8017 15.5984 14.3214 15.5163 14.8513 15.3283C15.253 15.1864 15.6462 15.0206 16.0445 14.8719C16.1864 14.6428 16.2838 14.3505 16.3231 13.9727C16.6188 11.118 16.9163 8.26158 17.212 5.40687C15.3316 6.56927 13.1231 7.0838 10.9419 7.04619C9.56067 7.02226 8.18801 6.78124 6.86151 6.38295C6.16749 6.1744 4.03587 4.83422 4.22732 6.41542C4.4239 8.04107 4.62048 9.66672 4.81706 11.2924C4.94356 12.3368 4.7162 14.7608 5.92475 15.0326C7.53502 15.395 9.2205 15.6873 10.9008 15.7898C10.9487 15.7932 10.9966 15.795 11.0445 15.7967V15.7984Z" fill="#8385F2" stroke="black" stroke-width="0.128206" stroke-miterlimit="10"/>
<path d="M10.7128 7.91628C15.015 7.91628 18.5026 6.36802 18.5026 4.45814C18.5026 2.54826 15.015 1 10.7128 1C6.41063 1 2.92303 2.54826 2.92303 4.45814C2.92303 6.36802 6.41063 7.91628 10.7128 7.91628Z" fill="white" stroke="black" stroke-width="0.170941" stroke-miterlimit="10"/>
<path d="M10.7437 7.04617C14.5785 7.04617 17.6873 5.87829 17.6873 4.43762C17.6873 2.99695 14.5785 1.82906 10.7437 1.82906C6.90881 1.82906 3.80005 2.99695 3.80005 4.43762C3.80005 5.87829 6.90881 7.04617 10.7437 7.04617Z" fill="black"/>
</svg>
