<svg width="477" height="500" viewBox="0 0 477 500" fill="none" xmlns="http://www.w3.org/2000/svg">
<path d="M418.31 450.67H345.81C345.5 450.67 345.25 450.42 345.25 450.11C345.25 449.8 345.5 449.55 345.81 449.55H417.75V362.54C417.75 362.23 418 361.98 418.31 361.98C418.62 361.98 418.87 362.23 418.87 362.54V450.1C418.87 450.41 418.62 450.66 418.31 450.66V450.67Z" fill="#010000"/>
<path d="M409.581 338.311H289.961V441.891H409.581V338.311Z" fill="white"/>
<path d="M409.581 432.33H289.961V441.89H409.581V432.33Z" fill="#1FFFB4" stroke="black" stroke-miterlimit="10"/>
<path d="M426.941 382.891H407.331C400.361 382.891 394.711 388.541 394.711 395.511C394.711 402.481 400.361 408.131 407.331 408.131H426.941C433.911 408.131 439.561 402.481 439.561 395.511C439.561 388.541 433.911 382.891 426.941 382.891Z" fill="black"/>
<path d="M426.94 408.69H407.33C400.06 408.69 394.15 402.78 394.15 395.51C394.15 388.24 400.06 382.33 407.33 382.33H426.94C434.21 382.33 440.12 388.24 440.12 395.51C440.12 402.78 434.21 408.69 426.94 408.69ZM407.33 383.45C400.68 383.45 395.27 388.86 395.27 395.51C395.27 402.16 400.68 407.57 407.33 407.57H426.94C433.59 407.57 439 402.16 439 395.51C439 388.86 433.59 383.45 426.94 383.45H407.33Z" fill="black"/>
<path d="M407.721 397.68C406.521 397.68 405.551 396.71 405.551 395.51C405.551 394.31 406.521 393.34 407.721 393.34C408.921 393.34 409.891 394.31 409.891 395.51C409.891 396.71 408.921 397.68 407.721 397.68ZM407.721 394.46C407.141 394.46 406.671 394.93 406.671 395.51C406.671 396.09 407.141 396.56 407.721 396.56C408.301 396.56 408.771 396.09 408.771 395.51C408.771 394.93 408.301 394.46 407.721 394.46Z" fill="white"/>
<path d="M426.561 397.68C425.361 397.68 424.391 396.71 424.391 395.51C424.391 394.31 425.361 393.34 426.561 393.34C427.761 393.34 428.731 394.31 428.731 395.51C428.731 396.71 427.761 397.68 426.561 397.68ZM426.561 394.46C425.981 394.46 425.511 394.93 425.511 395.51C425.511 396.09 425.981 396.56 426.561 396.56C427.141 396.56 427.611 396.09 427.611 395.51C427.611 394.93 427.141 394.46 426.561 394.46Z" fill="white"/>
<path d="M417.5 397.68C416.31 397.68 415.33 396.71 415.33 395.51C415.33 394.31 416.3 393.34 417.5 393.34C418.7 393.34 419.67 394.31 419.67 395.51C419.67 396.71 418.7 397.68 417.5 397.68ZM417.5 394.46C416.92 394.46 416.45 394.93 416.45 395.51C416.45 396.09 416.92 396.56 417.5 396.56C418.08 396.56 418.55 396.09 418.55 395.51C418.55 394.93 418.08 394.46 417.5 394.46Z" fill="white"/>
<path d="M77.9604 112.87C77.6504 112.87 77.4004 112.62 77.4004 112.31V30.1401C77.4004 29.8301 77.6504 29.5801 77.9604 29.5801H145.99C146.3 29.5801 146.55 29.8301 146.55 30.1401C146.55 30.4501 146.3 30.7001 145.99 30.7001H78.5204V112.31C78.5204 112.62 78.2704 112.87 77.9604 112.87Z" fill="#010000"/>
<path d="M198.39 37.8496H86.1504V135.04H198.39V37.8496Z" fill="white"/>
<path d="M198.39 37.8496H86.1504V46.8196H198.39V37.8496Z" fill="#1FFFB4" stroke="black" stroke-width="0.5" stroke-miterlimit="10"/>
<path d="M69.8615 93.221H88.2615C94.8015 93.221 100.101 87.921 100.101 81.381C100.101 74.841 94.8015 69.541 88.2615 69.541H69.8615C63.3215 69.541 58.0215 74.841 58.0215 81.381C58.0215 87.921 63.3215 93.221 69.8615 93.221Z" fill="black"/>
<path d="M88.2609 93.7707H69.8609C63.0209 93.7707 57.4609 88.2107 57.4609 81.3707C57.4609 74.5307 63.0209 68.9707 69.8609 68.9707H88.2609C95.1009 68.9707 100.661 74.5307 100.661 81.3707C100.661 88.2107 95.1009 93.7707 88.2609 93.7707ZM69.8609 70.0907C63.6409 70.0907 58.5809 75.1507 58.5809 81.3707C58.5809 87.5907 63.6409 92.6507 69.8609 92.6507H88.2609C94.4809 92.6507 99.5409 87.5907 99.5409 81.3707C99.5409 75.1507 94.4809 70.0907 88.2609 70.0907H69.8609Z" fill="black"/>
<path d="M87.9001 83.4408C86.7601 83.4408 85.8301 82.5108 85.8301 81.3708C85.8301 80.2308 86.7601 79.3008 87.9001 79.3008C89.0401 79.3008 89.9701 80.2308 89.9701 81.3708C89.9701 82.5108 89.0401 83.4408 87.9001 83.4408ZM87.9001 80.4208C87.3801 80.4208 86.9501 80.8508 86.9501 81.3708C86.9501 81.8908 87.3801 82.3208 87.9001 82.3208C88.4201 82.3208 88.8501 81.8908 88.8501 81.3708C88.8501 80.8508 88.4201 80.4208 87.9001 80.4208Z" fill="white"/>
<path d="M70.2204 83.4408C69.0804 83.4408 68.1504 82.5108 68.1504 81.3708C68.1504 80.2308 69.0804 79.3008 70.2204 79.3008C71.3604 79.3008 72.2904 80.2308 72.2904 81.3708C72.2904 82.5108 71.3604 83.4408 70.2204 83.4408ZM70.2204 80.4208C69.7004 80.4208 69.2704 80.8508 69.2704 81.3708C69.2704 81.8908 69.7004 82.3208 70.2204 82.3208C70.7404 82.3208 71.1704 81.8908 71.1704 81.3708C71.1704 80.8508 70.7404 80.4208 70.2204 80.4208Z" fill="white"/>
<path d="M78.7204 83.4408C77.5804 83.4408 76.6504 82.5108 76.6504 81.3708C76.6504 80.2308 77.5804 79.3008 78.7204 79.3008C79.8604 79.3008 80.7904 80.2308 80.7904 81.3708C80.7904 82.5108 79.8604 83.4408 78.7204 83.4408ZM78.7204 80.4208C78.2004 80.4208 77.7704 80.8508 77.7704 81.3708C77.7704 81.8908 78.2004 82.3208 78.7204 82.3208C79.2404 82.3208 79.6704 81.8908 79.6704 81.3708C79.6704 80.8508 79.2404 80.4208 78.7204 80.4208Z" fill="white"/>
<path d="M385.041 59.4805H118.581C117.686 59.4805 116.961 60.2058 116.961 61.1005V417.47C116.961 418.365 117.686 419.09 118.581 419.09H385.041C385.936 419.09 386.661 418.365 386.661 417.47V61.1005C386.661 60.2058 385.936 59.4805 385.041 59.4805Z" fill="url(#paint0_linear_223_8392)"/>
<path d="M384.86 419.65H118.77C117.47 419.65 116.4 418.59 116.4 417.28V61.2899C116.4 59.9899 117.46 58.9199 118.77 58.9199H384.86C386.17 58.9199 387.23 59.9799 387.23 61.2899V417.29C387.23 418.59 386.17 419.66 384.86 419.66V419.65ZM118.77 60.0399C118.08 60.0399 117.52 60.5999 117.52 61.2899V417.29C117.52 417.98 118.08 418.54 118.77 418.54H384.86C385.55 418.54 386.11 417.98 386.11 417.29V61.2899C386.11 60.5999 385.55 60.0399 384.86 60.0399H118.77Z" fill="#010000"/>
<path d="M375.292 119.34H128.352V366.28H375.292V119.34Z" fill="#6E8DF9" stroke="black" stroke-miterlimit="10"/>
<path d="M375.281 366.839H128.351C128.041 366.839 127.791 366.589 127.791 366.279V119.339C127.791 119.029 128.041 118.779 128.351 118.779H375.281C375.591 118.779 375.841 119.029 375.841 119.339V366.279C375.841 366.589 375.591 366.839 375.281 366.839ZM128.901 365.719H374.721V119.899H128.901V365.719Z" fill="#010000"/>
<path d="M146.641 106.731C155.627 106.731 162.911 99.4471 162.911 90.4614C162.911 81.4757 155.627 74.1914 146.641 74.1914C137.655 74.1914 130.371 81.4757 130.371 90.4614C130.371 99.4471 137.655 106.731 146.641 106.731Z" fill="url(#paint1_linear_223_8392)"/>
<path d="M146.641 107.291C137.361 107.291 129.811 99.7409 129.811 90.4609C129.811 81.1809 137.361 73.6309 146.641 73.6309C155.921 73.6309 163.471 81.1809 163.471 90.4609C163.471 99.7409 155.921 107.291 146.641 107.291Z" fill="#D0DCFF" stroke="black" stroke-miterlimit="10"/>
<path d="M142.771 85.4909C142.771 87.6209 144.501 89.3509 146.631 89.3509C148.761 89.3509 150.491 87.6209 150.491 85.4909C150.491 83.3609 148.761 81.6309 146.631 81.6309C144.501 81.6309 142.771 83.3609 142.771 85.4909Z" fill="#F8F6F4"/>
<path d="M146.641 89.9103C144.201 89.9103 142.221 87.9303 142.221 85.4903C142.221 83.0503 144.201 81.0703 146.641 81.0703C149.081 81.0703 151.061 83.0503 151.061 85.4903C151.061 87.9303 149.081 89.9103 146.641 89.9103ZM146.641 82.1803C144.821 82.1803 143.341 83.6603 143.341 85.4803C143.341 87.3003 144.821 88.7803 146.641 88.7803C148.461 88.7803 149.941 87.3003 149.941 85.4803C149.941 83.6603 148.461 82.1803 146.641 82.1803Z" fill="#010000"/>
<path d="M151.001 99.3008H142.241C140.911 99.3008 139.831 98.2208 139.831 96.8908V95.2508C139.831 92.4008 142.141 90.0908 144.991 90.0908H148.281C151.131 90.0908 153.441 92.4008 153.441 95.2508V96.8508C153.441 98.2008 152.351 99.2908 151.001 99.2908V99.3008Z" fill="#F8F6F4"/>
<path d="M150.711 99.8613H142.521C140.731 99.8613 139.271 98.4013 139.271 96.6113V95.8613C139.271 92.3713 142.111 89.5312 145.601 89.5312H147.681C151.171 89.5312 154.011 92.3713 154.011 95.8613V96.5713C154.011 98.3813 152.531 99.8613 150.721 99.8613H150.711ZM145.591 90.6513C142.721 90.6513 140.381 92.9913 140.381 95.8613V96.6113C140.381 97.7913 141.341 98.7412 142.511 98.7412H150.701C151.901 98.7412 152.871 97.7713 152.871 96.5713V95.8613C152.871 92.9913 150.531 90.6513 147.661 90.6513H145.581H145.591Z" fill="#010000"/>
<path d="M306.001 125.08C303.431 123.92 300.551 123.05 298.661 121.15C297.691 120.18 297.101 119.061 296.741 117.87L296.471 100.07C296.161 80.0005 279.411 63.9005 258.731 63.4105C260.161 60.9505 260.961 58.0805 260.881 55.0205C260.651 46.2405 253.341 39.3205 244.561 39.5505C235.781 39.7805 228.861 47.0905 229.091 55.8705C229.231 61.3005 232.091 66.0105 236.321 68.7705C223.761 75.7705 215.391 88.9205 215.621 103.86L215.871 119.93C215.641 120.26 215.381 120.58 215.081 120.89C213.201 122.8 210.321 123.68 207.761 124.85C196.251 130.09 190.291 142.97 194.341 153.83C194.731 154.881 195.261 155.98 196.311 156.62C196.971 157.02 317.261 157.01 317.571 156.81C318.611 156.16 319.141 155.07 319.531 154.01C323.541 143.13 317.531 130.28 306.001 125.08Z" fill="black"/>
<path d="M227.391 112.832H227.841L228.131 132.002C228.151 133.112 228.231 134.202 228.361 135.272H227.731C221.311 135.382 216.041 130.432 215.941 124.232C215.851 118.032 220.971 112.922 227.391 112.832Z" fill="white"/>
<path d="M227.54 135.841C220.91 135.841 215.48 130.671 215.38 124.241C215.28 117.741 220.66 112.371 227.38 112.271H227.83C228.17 112.301 228.39 112.511 228.4 112.811L228.69 131.991C228.71 133.031 228.78 134.111 228.92 135.201C228.94 135.361 228.89 135.521 228.79 135.641C228.69 135.761 228.54 135.831 228.38 135.831H227.75C227.69 135.841 227.62 135.841 227.56 135.841H227.54ZM227.28 113.391C221.23 113.541 216.41 118.381 216.5 124.221C216.59 130.041 221.53 134.721 227.54 134.721C227.6 134.721 227.66 134.721 227.72 134.721H227.73C227.63 133.801 227.58 132.881 227.56 132.001L227.28 113.381V113.391Z" fill="#010000"/>
<path d="M285.361 113.111H285.761C291.531 113.021 296.281 117.621 296.371 123.401C296.461 129.171 291.851 133.921 286.081 134.011H285.511C285.601 133.011 285.641 132.001 285.631 130.971L285.361 113.111Z" fill="white"/>
<path d="M285.521 134.571C285.371 134.571 285.221 134.511 285.111 134.391C285.001 134.271 284.951 134.121 284.961 133.961C285.051 132.941 285.091 131.931 285.081 130.971L284.811 113.111C284.811 112.961 284.861 112.821 284.971 112.711C285.071 112.601 285.211 112.541 285.361 112.541H285.761C285.821 112.541 285.881 112.541 285.931 112.541C288.811 112.541 291.521 113.641 293.591 115.651C295.701 117.701 296.891 120.451 296.931 123.391C296.971 126.331 295.871 129.111 293.821 131.231C291.771 133.341 289.021 134.531 286.081 134.571H285.511H285.521ZM285.931 113.661L286.191 130.961C286.201 131.771 286.181 132.601 286.121 133.451C288.751 133.401 291.201 132.331 293.021 130.451C294.861 128.551 295.851 126.051 295.811 123.411C295.771 120.771 294.701 118.301 292.811 116.461C290.951 114.661 288.511 113.671 285.931 113.671V113.661Z" fill="#010000"/>
<path d="M285.78 130.379L285.51 112.729L285.43 107.799C285.43 107.389 285.4 106.989 285.38 106.579C269.37 103.849 257.3 93.1491 254.88 79.8691C254.8 79.8691 254.73 79.8791 254.65 79.8891C253.02 92.6091 242.58 103.459 227.95 107.579C227.95 107.939 227.93 108.309 227.94 108.679L228.02 113.609L228.29 131.259C228.31 132.279 228.38 133.279 228.5 134.269C229.19 139.919 231.56 145.029 235.09 149.149V197.499H278.64V149.529C282.54 145.129 285.1 139.549 285.66 133.399C285.75 132.409 285.79 131.399 285.78 130.379Z" fill="white"/>
<path d="M278.641 198.06H235.091C234.781 198.06 234.531 197.81 234.531 197.5V149.35C230.901 145.04 228.621 139.86 227.951 134.33C227.821 133.29 227.751 132.26 227.731 131.26L227.391 108.67C227.391 108.29 227.391 107.92 227.401 107.55C227.401 107.31 227.571 107.09 227.811 107.03C242.191 102.98 252.511 92.2998 254.111 79.7998C254.141 79.5298 254.361 79.3298 254.631 79.3098H254.751C255.041 79.2798 255.391 79.4698 255.441 79.7498C257.811 92.7998 269.891 103.35 285.481 106.01C285.741 106.05 285.931 106.27 285.941 106.53C285.971 106.94 285.981 107.36 285.991 107.77L286.331 130.36C286.351 131.35 286.301 132.38 286.211 133.44C285.661 139.48 283.231 145.11 279.191 149.73V197.49C279.191 197.8 278.941 198.05 278.631 198.05L278.641 198.06ZM235.641 196.94H278.071V149.53C278.071 149.39 278.121 149.26 278.211 149.16C282.181 144.69 284.561 139.22 285.101 133.35C285.191 132.33 285.231 131.34 285.221 130.39L284.881 107.8C284.881 107.55 284.871 107.3 284.851 107.05C269.891 104.35 258.151 94.5298 254.831 82.1798C252.331 94.0398 242.251 104 228.501 108.01C228.501 108.23 228.501 108.45 228.501 108.67L228.841 131.26C228.861 132.22 228.931 133.21 229.051 134.21C229.711 139.58 231.941 144.63 235.511 148.79C235.601 148.89 235.641 149.02 235.641 149.15V196.94Z" fill="#010000"/>
<path d="M251.311 158.952C257.201 162.652 269.661 169.892 278.341 170.822V150.012C272.881 155.802 265.151 159.432 256.561 159.432C254.771 159.432 253.011 159.262 251.311 158.952Z" fill="black"/>
<path d="M278.89 171.441L278.27 171.371C269.63 170.441 257.48 163.491 251 159.421L248.58 157.901L251.4 158.401C253.15 158.711 254.89 158.871 256.56 158.871C264.73 158.871 272.31 155.591 277.93 149.631L278.9 148.611V171.451L278.89 171.441ZM253.84 159.861C260.34 163.791 270.32 169.161 277.77 170.191V151.381C272.05 156.941 264.57 159.991 256.55 159.991C255.66 159.991 254.75 159.951 253.83 159.861H253.84Z" fill="black"/>
<path d="M290.33 126.381C290.21 126.381 290.08 126.341 289.98 126.261L287.93 124.611C287.71 124.431 287.58 124.161 287.59 123.881C287.59 123.591 287.73 123.331 287.96 123.161L290.23 121.481C290.48 121.301 290.83 121.351 291.01 121.601C291.19 121.851 291.14 122.201 290.89 122.381L288.83 123.901L290.67 125.381C290.91 125.571 290.95 125.931 290.76 126.171C290.65 126.311 290.49 126.381 290.32 126.381H290.33Z" fill="black"/>
<path d="M222.18 127.421C222.02 127.421 221.87 127.351 221.76 127.221C221.56 126.991 221.59 126.631 221.82 126.431L223.62 124.891L221.52 123.431C221.27 123.251 221.2 122.911 221.38 122.651C221.56 122.401 221.9 122.331 222.16 122.511L224.48 124.121C224.71 124.281 224.86 124.541 224.87 124.831C224.88 125.121 224.77 125.381 224.55 125.571L222.56 127.281C222.46 127.371 222.33 127.411 222.2 127.411L222.18 127.421Z" fill="black"/>
<path d="M250.381 117.111C250.401 118.461 249.321 119.571 247.971 119.591C246.621 119.611 245.511 118.531 245.491 117.181C245.471 115.831 246.55 114.721 247.9 114.701C249.25 114.681 250.361 115.761 250.381 117.111Z" fill="black"/>
<path d="M276.3 116.881C276.32 118.231 275.24 119.341 273.89 119.361C272.54 119.381 271.43 118.301 271.41 116.951C271.39 115.601 272.47 114.491 273.82 114.471C275.17 114.451 276.28 115.531 276.3 116.881Z" fill="black"/>
<path d="M277.43 109.001C276.75 109.181 275.93 108.981 275.12 108.831C274.31 108.661 273.5 108.511 272.79 108.411C272.08 108.301 271.25 108.211 270.43 108.141C269.62 108.051 268.77 108.011 268.18 107.641C267.61 107.291 267.47 106.511 268.33 105.711C269.14 104.921 271.06 104.221 273.43 104.571C275.79 104.921 277.39 106.151 277.92 107.131C278.48 108.151 278.1 108.851 277.44 109.011L277.43 109.001Z" fill="black"/>
<path d="M243.55 111.521C244.26 111.541 245.01 111.161 245.76 110.831C246.51 110.481 247.27 110.151 247.93 109.891C248.6 109.631 249.38 109.351 250.16 109.091C250.93 108.821 251.75 108.581 252.24 108.091C252.72 107.621 252.68 106.831 251.66 106.241C250.69 105.661 248.66 105.411 246.44 106.281C244.23 107.161 242.94 108.721 242.65 109.801C242.33 110.921 242.86 111.511 243.54 111.531L243.55 111.521Z" fill="black"/>
<path d="M259.44 127.57C259.15 127.57 258.9 127.34 258.88 127.04C258.86 126.73 259.1 126.47 259.41 126.45L261.54 126.33C264.47 126.17 266.72 123.65 266.56 120.72C266.54 120.38 266.39 120.08 266.14 119.85C265.89 119.62 265.55 119.52 265.23 119.53C262.91 119.68 260.93 117.89 260.8 115.58L260.51 110.32C260.49 110.01 260.73 109.75 261.04 109.73C261.38 109.73 261.61 109.95 261.63 110.26L261.92 115.52C262.02 117.22 263.5 118.53 265.17 118.42C265.79 118.38 266.41 118.6 266.89 119.02C267.36 119.44 267.64 120.03 267.68 120.66C267.88 124.21 265.15 127.25 261.61 127.45L259.48 127.57C259.48 127.57 259.46 127.57 259.45 127.57H259.44Z" fill="black"/>
<path d="M245.57 129.071C246.21 128.501 247.16 128.481 247.87 128.961C249.16 129.841 251.9 131.321 255.5 131.171C256.38 131.131 256.98 132.081 256.72 132.921C256.15 134.781 254.34 137.781 249.45 136.301C243.49 134.491 243.92 130.561 245.58 129.071H245.57Z" fill="white"/>
<path d="M251.881 137.262C251.121 137.262 250.251 137.132 249.281 136.842C245.301 135.632 244.281 133.552 244.031 132.422C243.731 131.052 244.181 129.572 245.201 128.662C246.021 127.932 247.241 127.872 248.181 128.502C249.431 129.352 252.051 130.762 255.471 130.612C256.061 130.582 256.561 130.842 256.921 131.302C257.311 131.812 257.441 132.482 257.251 133.092C256.911 134.192 255.631 137.262 251.891 137.262H251.881ZM246.771 129.182C246.471 129.182 246.171 129.282 245.941 129.492C245.401 129.982 244.851 130.972 245.121 132.172C245.461 133.722 247.061 134.992 249.601 135.772C254.101 137.142 255.651 134.472 256.171 132.772C256.251 132.512 256.201 132.212 256.031 131.992C255.951 131.892 255.791 131.732 255.511 131.732C251.791 131.882 248.911 130.352 247.551 129.422C247.311 129.262 247.031 129.172 246.771 129.172V129.182Z" fill="black"/>
<path d="M292.26 138.73C289.77 138.73 287.73 136.73 287.69 134.23C287.65 131.71 289.67 129.63 292.19 129.59C292.21 129.59 292.24 129.59 292.26 129.59C294.75 129.59 296.79 131.59 296.83 134.09C296.87 136.61 294.85 138.69 292.33 138.73C292.31 138.73 292.28 138.73 292.26 138.73ZM292.26 130.71C292.26 130.71 292.22 130.71 292.21 130.71C290.31 130.74 288.78 132.31 288.81 134.21C288.84 136.1 290.38 137.61 292.26 137.61C292.28 137.61 292.3 137.61 292.31 137.61C294.21 137.58 295.74 136.01 295.71 134.11C295.68 132.22 294.14 130.71 292.26 130.71Z" fill="url(#paint2_linear_223_8392)"/>
<path d="M220.991 138.951C219.801 138.951 218.671 138.491 217.811 137.661C216.931 136.811 216.441 135.671 216.421 134.451C216.381 131.931 218.401 129.851 220.921 129.811C220.941 129.811 220.971 129.811 220.991 129.811C223.481 129.811 225.521 131.811 225.561 134.311C225.581 135.531 225.121 136.691 224.271 137.561C223.421 138.441 222.281 138.931 221.061 138.951C221.041 138.951 221.011 138.951 220.991 138.951ZM221.001 130.931C221.001 130.931 220.961 130.931 220.951 130.931C219.051 130.961 217.521 132.531 217.551 134.431C217.561 135.351 217.941 136.211 218.601 136.861C219.261 137.501 220.141 137.881 221.061 137.831C221.981 137.821 222.841 137.441 223.491 136.781C224.131 136.121 224.481 135.251 224.461 134.321C224.431 132.431 222.891 130.921 221.011 130.921L221.001 130.931Z" fill="url(#paint3_linear_223_8392)"/>
<path d="M310.719 329.31L303.819 317.69L298.869 309.35L250.219 309.1L200.759 309.35L195.809 317.69L188.909 329.31L181.679 341.47C177.039 349.28 173.229 357.6 170.279 366.27H329.359C326.409 357.6 322.599 349.28 317.959 341.47L310.729 329.31H310.719Z" fill="black"/>
<path d="M309.238 327.35H191.458C191.148 327.35 190.898 327.1 190.898 326.79C190.898 326.48 191.148 326.23 191.458 326.23H309.238C309.548 326.23 309.798 326.48 309.798 326.79C309.798 327.1 309.548 327.35 309.238 327.35Z" fill="#FFF7F7"/>
<path d="M246.119 346.85C245.809 346.85 245.559 346.6 245.559 346.29V326.79C245.559 326.48 245.809 326.23 246.119 326.23C246.429 326.23 246.679 326.48 246.679 326.79V346.29C246.679 346.6 246.429 346.85 246.119 346.85Z" fill="#FFF7F7"/>
<path d="M257.759 346.85C257.449 346.85 257.199 346.6 257.199 346.29V326.79C257.199 326.48 257.449 326.23 257.759 326.23C258.069 326.23 258.319 326.48 258.319 326.79V346.29C258.319 346.6 258.069 346.85 257.759 346.85Z" fill="#FFF7F7"/>
<path d="M187.429 347.101C187.189 347.101 186.959 346.941 186.889 346.691C186.809 346.391 186.979 346.081 187.279 346.001C205.379 340.991 202.309 327.501 202.169 326.931C202.099 326.631 202.279 326.331 202.579 326.251C202.879 326.181 203.179 326.361 203.259 326.661C203.299 326.811 206.749 341.771 187.579 347.081C187.529 347.091 187.479 347.101 187.429 347.101Z" fill="#FFF7F7"/>
<path d="M308.818 347.101C308.818 347.101 308.718 347.101 308.668 347.081C289.498 341.771 292.958 326.811 292.988 326.661C293.058 326.361 293.368 326.181 293.668 326.251C293.968 326.321 294.148 326.631 294.078 326.931C293.938 327.501 290.868 340.991 308.968 346.001C309.268 346.081 309.438 346.391 309.358 346.691C309.288 346.941 309.068 347.101 308.818 347.101Z" fill="#FFF7F7"/>
<path d="M194.909 260.391C193.589 258.041 168.059 238.611 158.489 231.371C156.419 229.801 155.779 226.971 156.979 224.671L173.789 192.321C180.579 179.251 193.479 170.751 207.819 169.661C208.859 169.581 209.909 169.531 210.969 169.531H232.279L254.989 186.601L278.949 169.531H295.499C296.559 169.531 297.599 169.581 298.649 169.661C310.089 170.531 322.499 176.721 330.659 184.701C335.579 189.521 360.679 218.221 360.679 218.221L310.039 254.281L303.889 315.321C303.889 315.321 197.419 316.611 195.919 315.581C195.839 315.521 194.939 260.381 194.939 260.381L194.909 260.391Z" fill="#8854FF"/>
<path d="M220.389 316.54C206.279 316.54 196.099 316.41 195.579 316.05C195.366 315.904 194.959 297.407 194.359 260.56C192.999 258.69 179.229 247.76 158.159 231.82C155.869 230.09 155.159 226.97 156.489 224.42L173.299 192.07C180.189 178.81 193.079 170.23 207.779 169.11C208.919 169.02 209.959 168.98 210.969 168.98H232.279C232.399 168.98 232.519 169.02 232.619 169.09L254.999 185.92L278.629 169.09C278.719 169.02 278.839 168.99 278.949 168.99H295.499C296.499 168.99 297.549 169.03 298.689 169.12C309.779 169.97 322.479 175.93 331.039 184.32C335.919 189.1 360.839 217.58 361.089 217.87C361.189 217.99 361.239 218.15 361.229 218.3C361.209 218.46 361.129 218.6 360.999 218.69L310.569 254.61L304.439 315.4C304.409 315.68 304.179 315.9 303.889 315.9C287.549 316.1 246.989 316.56 220.409 316.56L220.389 316.54ZM196.429 315.17C201.589 315.84 274.479 315.12 303.359 314.78L309.459 254.24C309.479 254.08 309.559 253.93 309.689 253.84L359.829 218.14C356.569 214.41 334.759 189.54 330.249 185.12C321.859 176.9 309.429 171.06 298.589 170.23C297.479 170.15 296.459 170.1 295.489 170.1H279.119L255.299 187.07C255.099 187.21 254.829 187.21 254.639 187.07L232.079 170.11H210.959C209.979 170.11 208.969 170.15 207.849 170.24C193.539 171.33 180.989 179.69 174.279 192.6L157.469 224.95C156.389 227.02 156.959 229.54 158.819 230.95C171.919 240.85 194.079 257.81 195.389 260.14C195.439 260.22 195.459 260.31 195.459 260.41C195.749 278.2 196.299 311.33 196.419 315.2L196.429 315.17Z" fill="#010000"/>
<path d="M256.491 238.289C256.331 238.289 256.171 238.219 256.061 238.089C216.701 190.069 230.281 169.849 230.871 169.019C231.051 168.769 231.401 168.709 231.651 168.889C231.901 169.069 231.961 169.419 231.781 169.669C231.641 169.869 218.191 190.129 256.921 237.389C257.121 237.629 257.081 237.979 256.841 238.179C256.741 238.269 256.611 238.309 256.491 238.309V238.289Z" fill="black"/>
<path d="M257.15 238.289C257.03 238.289 256.9 238.249 256.8 238.169C256.56 237.979 256.52 237.629 256.71 237.379C294.76 189.749 280.38 169.699 280.23 169.499C280.04 169.249 280.09 168.899 280.34 168.719C280.59 168.529 280.94 168.579 281.12 168.829C281.75 169.659 296.17 189.779 257.58 238.079C257.47 238.219 257.31 238.289 257.14 238.289H257.15Z" fill="black"/>
<path d="M270.635 238.695L243.676 238.832C242.991 238.835 242.438 239.393 242.442 240.078L242.661 283.377C242.664 284.062 243.222 284.615 243.907 284.611L270.867 284.475C271.552 284.471 272.104 283.913 272.101 283.228L271.881 239.929C271.878 239.244 271.32 238.692 270.635 238.695Z" fill="url(#paint4_linear_223_8392)"/>
<path d="M244.061 285.169C242.991 285.169 242.121 284.299 242.111 283.239L241.871 240.239C241.871 239.169 242.731 238.289 243.801 238.279L270.471 238.139C271.541 238.139 272.411 239.009 272.421 240.069L272.661 283.069C272.661 284.139 271.801 285.019 270.731 285.029L244.061 285.169ZM270.491 239.249L243.821 239.389C243.361 239.389 242.991 239.769 243.001 240.219L243.241 283.219C243.241 283.679 243.611 284.039 244.071 284.039L270.741 283.899C271.201 283.899 271.571 283.519 271.561 283.069L271.321 240.069C271.321 239.609 270.951 239.249 270.491 239.249Z" fill="#010000"/>
<path d="M265.493 246.031L249.293 246.113L249.363 259.873L265.562 259.791L265.493 246.031Z" fill="#D0DCFF" stroke="black" stroke-miterlimit="10"/>
<path d="M249.37 260.419C249.06 260.419 248.81 260.169 248.81 259.859L248.73 246.099C248.73 245.949 248.79 245.809 248.89 245.699C248.99 245.589 249.14 245.539 249.28 245.529L265.48 245.449C265.79 245.449 266.04 245.699 266.04 246.009L266.12 259.769C266.12 259.919 266.06 260.059 265.96 260.169C265.86 260.279 265.71 260.329 265.57 260.339L249.37 260.419ZM249.85 246.659L249.92 259.299L265 259.219L264.93 246.579L249.85 246.659Z" fill="#D0DCFF" stroke="black" stroke-miterlimit="10"/>
<path d="M250.031 269.868C249.721 269.868 249.471 269.618 249.471 269.308C249.471 268.998 249.721 268.748 250.031 268.748L265.011 268.668C265.321 268.668 265.571 268.918 265.571 269.228C265.571 269.538 265.321 269.788 265.011 269.788L250.031 269.868Z" fill="black"/>
<path d="M250.06 275.139C249.75 275.139 249.5 274.889 249.5 274.579C249.5 274.269 249.75 274.019 250.06 274.019L265.04 273.939C265.35 273.939 265.6 274.189 265.6 274.499C265.6 274.809 265.35 275.059 265.04 275.059L250.06 275.139Z" fill="black"/>
<path d="M222.406 209.815L157.76 210.503C156.285 210.519 155.103 211.727 155.118 213.201L156.06 301.646C156.076 303.121 157.284 304.303 158.758 304.288L223.405 303.599C224.879 303.584 226.062 302.375 226.046 300.901L225.104 212.456C225.089 210.981 223.881 209.799 222.406 209.815Z" fill="#010000"/>
<path d="M159.051 304.84C157.111 304.84 155.521 303.27 155.501 301.33L154.561 213.52C154.561 212.57 154.911 211.68 155.571 211C156.231 210.32 157.121 209.94 158.071 209.93L222.081 209.25C222.971 209.25 223.921 209.6 224.601 210.26C225.281 210.92 225.661 211.81 225.671 212.76L226.611 300.57C226.611 301.52 226.261 302.41 225.601 303.09C224.941 303.77 224.051 304.15 223.101 304.16L159.091 304.84H159.051ZM222.121 210.37H222.091L158.081 211.05C156.741 211.06 155.661 212.17 155.681 213.51L156.621 301.32C156.631 302.66 157.731 303.7 159.081 303.72L223.091 303.04C223.741 303.04 224.351 302.77 224.801 302.31C225.261 301.85 225.501 301.23 225.491 300.58L224.551 212.77C224.551 212.12 224.281 211.51 223.821 211.06C223.361 210.61 222.761 210.37 222.121 210.37Z" fill="#010000"/>
<path d="M211.202 207.161C211.172 204.201 208.742 201.821 205.782 201.851L196.662 201.951C196.702 201.691 196.732 201.431 196.732 201.161C196.702 198.181 194.262 195.791 191.272 195.821C188.292 195.851 185.902 198.291 185.932 201.281C185.932 201.551 185.982 201.811 186.022 202.071L176.662 202.171C173.702 202.201 171.322 204.631 171.352 207.591L171.412 212.961L211.252 212.531L211.192 207.161H211.202Z" fill="url(#paint5_linear_223_8392)"/>
<path d="M171.421 213.51C171.271 213.51 171.131 213.45 171.031 213.35C170.921 213.25 170.861 213.11 170.861 212.96L170.801 207.59C170.771 204.32 173.391 201.64 176.661 201.6L185.391 201.51C185.391 201.43 185.381 201.35 185.381 201.28C185.361 199.69 185.971 198.19 187.081 197.05C188.191 195.91 189.681 195.28 191.271 195.26C194.521 195.23 197.251 197.87 197.291 201.15C197.291 201.23 197.291 201.31 197.291 201.38L205.781 201.29C207.371 201.27 208.861 201.87 209.991 202.98C211.121 204.09 211.751 205.57 211.771 207.15L211.831 212.52C211.831 212.83 211.591 213.08 211.281 213.08L171.441 213.51H171.421ZM191.331 196.38C191.331 196.38 191.301 196.38 191.281 196.38C189.991 196.39 188.781 196.91 187.871 197.83C186.971 198.75 186.481 199.97 186.491 201.27C186.491 201.5 186.531 201.71 186.561 201.93C186.591 202.09 186.541 202.28 186.441 202.4C186.341 202.52 186.191 202.62 186.021 202.62L176.661 202.72C174.011 202.75 171.871 204.93 171.901 207.58L171.951 212.39L210.671 211.98L210.621 207.17C210.611 205.89 210.091 204.68 209.181 203.79C208.271 202.9 207.081 202.42 205.821 202.42C205.801 202.42 205.781 202.42 205.771 202.42L196.651 202.52C196.521 202.55 196.331 202.45 196.221 202.33C196.111 202.21 196.061 202.05 196.091 201.88C196.131 201.62 196.161 201.4 196.161 201.17C196.131 198.52 193.971 196.38 191.321 196.38H191.331Z" fill="#010000"/>
<path d="M193.371 201.19C193.381 202.32 192.481 203.24 191.351 203.25C190.221 203.26 189.301 202.36 189.291 201.23C189.281 200.1 190.181 199.18 191.311 199.17C192.441 199.16 193.361 200.06 193.371 201.19Z" fill="url(#paint6_linear_223_8392)"/>
<path d="M191.331 203.81C190.651 203.81 190.001 203.55 189.511 203.07C189.011 202.58 188.741 201.93 188.731 201.24C188.711 199.81 189.871 198.63 191.301 198.61C192.761 198.59 193.911 199.75 193.931 201.18C193.951 202.61 192.791 203.79 191.361 203.81H191.331ZM191.331 199.73H191.311C190.491 199.73 189.841 200.41 189.841 201.23C189.841 201.63 190.001 202 190.291 202.27C190.571 202.55 190.941 202.66 191.341 202.69C192.161 202.69 192.811 202.01 192.811 201.19C192.811 200.38 192.141 199.72 191.331 199.72V199.73Z" fill="#010000"/>
<path d="M184.819 252.53L160.349 254.26L161.469 244.08C161.929 241.74 161.399 239.64 159.429 238.31C155.819 235.88 150.899 237.32 149.159 241.3L135.219 276.29C130.869 287.2 128.949 310.5 140.429 312.97L141.169 313.25C149.299 316.35 158.339 313.89 164.219 307.48C165.419 306.18 166.599 305.32 167.649 305.33C170.009 305.37 172.919 304.23 175.159 303.7C177.879 303.07 180.539 302.19 183.079 301.02C184.279 300.46 185.489 299.83 186.399 298.86C189.189 295.9 187.019 290.8 182.799 291.33L176.519 292.13C180.919 291.2 184.899 290.22 187.709 289.48C189.709 288.95 191.289 287.29 191.489 285.23C191.779 282.33 189.399 280.04 186.659 280.26L172.869 281.37C181.449 280.22 187.099 278.73 190.429 277.62C192.709 276.86 194.149 274.6 193.889 272.21L193.829 271.66C193.539 268.9 191.049 265.88 188.299 266.17L186.559 266.22C190.239 265.7 192.849 262.36 192.459 258.66C192.059 254.85 188.629 252.08 184.819 252.5V252.53Z" fill="white"/>
<path d="M148.41 315.16C145.91 315.16 143.39 314.71 140.96 313.79L140.22 313.51C137.52 312.93 135.34 311.17 133.8 308.28C129.35 299.92 131.46 284.22 134.69 276.1L148.63 241.11C149.53 239.04 151.28 237.5 153.43 236.88C155.58 236.26 157.88 236.61 159.73 237.86C161.77 239.23 162.56 241.43 162.01 244.2L160.97 253.66L184.76 251.98C186.75 251.77 188.7 252.34 190.26 253.59C191.82 254.85 192.8 256.64 193.01 258.63C193.32 261.55 191.92 264.25 189.59 265.72C190.57 265.94 191.54 266.52 192.39 267.42C193.48 268.58 194.22 270.15 194.38 271.63L194.44 272.18C194.72 274.86 193.14 277.33 190.6 278.18C189.08 278.69 187.02 279.29 184.35 279.91L186.6 279.73C188.09 279.61 189.56 280.15 190.61 281.23C191.66 282.31 192.18 283.79 192.03 285.31C191.81 287.54 190.12 289.44 187.83 290.04C186.89 290.29 185.77 290.58 184.5 290.89C185.83 291.21 186.96 292.08 187.62 293.38C188.62 295.35 188.29 297.66 186.78 299.26C185.81 300.29 184.53 300.96 183.29 301.54C180.85 302.68 178.14 303.59 175.26 304.26C174.61 304.41 173.9 304.62 173.16 304.83C171.38 305.35 169.34 305.94 167.61 305.9C167.06 305.87 166.11 306.23 164.6 307.87C160.26 312.6 154.36 315.15 148.38 315.15L148.41 315.16ZM155.54 237.69C154.94 237.69 154.34 237.78 153.75 237.95C151.92 238.48 150.43 239.79 149.67 241.54L135.74 276.52C132.59 284.44 130.5 299.71 134.8 307.77C136.18 310.35 138.11 311.93 140.55 312.45L141.37 312.75C149.15 315.71 157.96 313.5 163.81 307.13C165.26 305.54 166.55 304.81 167.66 304.8C169.25 304.85 171.17 304.27 172.88 303.78C173.64 303.56 174.37 303.35 175.04 303.19C177.85 302.54 180.48 301.65 182.85 300.54C184.16 299.93 185.2 299.35 186 298.51C187.18 297.26 187.44 295.45 186.65 293.9C185.91 292.45 184.5 291.71 182.87 291.92L176.59 292.72C176.29 292.76 176.02 292.55 175.97 292.26C175.92 291.96 176.11 291.68 176.41 291.62C180.96 290.66 184.99 289.65 187.58 288.97C189.42 288.48 190.78 286.97 190.95 285.21C191.07 284 190.68 282.86 189.84 282.02C189.02 281.19 187.88 280.76 186.72 280.85L172.93 281.96C172.63 281.98 172.36 281.76 172.33 281.46C172.3 281.16 172.51 280.89 172.81 280.85C181.47 279.69 187.08 278.18 190.26 277.12C192.3 276.44 193.57 274.46 193.35 272.3L193.29 271.75C193.16 270.5 192.53 269.17 191.6 268.19C190.62 267.15 189.48 266.65 188.37 266.76L186.59 266.81C186.28 266.78 186.04 266.59 186.02 266.3C185.99 266 186.2 265.74 186.5 265.7C189.9 265.22 192.28 262.17 191.92 258.76C191.74 257.06 190.91 255.54 189.58 254.47C188.25 253.4 186.58 252.91 184.89 253.1C184.89 253.1 184.88 253.1 184.87 253.1L160.4 254.83C160.23 254.83 160.07 254.78 159.96 254.66C159.85 254.54 159.79 254.38 159.81 254.21L160.93 244.03C161.4 241.65 160.79 239.9 159.13 238.79C158.06 238.07 156.82 237.7 155.56 237.7L155.54 237.69Z" fill="#010000"/>
<path d="M165.901 269.529C165.621 269.529 165.381 269.329 165.351 269.049C165.311 268.739 165.521 268.459 165.831 268.419L187.971 265.439C188.281 265.379 188.561 265.609 188.601 265.919C188.641 266.229 188.431 266.509 188.121 266.549L165.981 269.529C165.981 269.529 165.931 269.529 165.901 269.529Z" fill="black"/>
<path d="M167.789 282.671C167.519 282.671 167.279 282.471 167.239 282.191C167.199 281.881 167.409 281.601 167.709 281.561L184.519 279.101C184.819 279.061 185.109 279.271 185.149 279.571C185.189 279.881 184.979 280.161 184.679 280.201L167.869 282.661C167.869 282.661 167.819 282.661 167.789 282.661V282.671Z" fill="black"/>
<path d="M170.149 293.869C169.879 293.869 169.649 293.679 169.599 293.409C169.549 293.109 169.749 292.819 170.049 292.759L183.009 290.439C183.319 290.389 183.599 290.589 183.659 290.889C183.709 291.189 183.509 291.479 183.209 291.539L170.249 293.859C170.249 293.859 170.179 293.859 170.149 293.859V293.869Z" fill="black"/>
<path d="M154.65 255.699C154.37 255.699 154.13 255.489 154.1 255.209C154.06 254.899 154.28 254.629 154.59 254.589L164.31 253.399C164.62 253.349 164.89 253.579 164.93 253.889C164.97 254.199 164.75 254.469 164.44 254.509L154.72 255.699C154.72 255.699 154.67 255.699 154.65 255.699Z" fill="black"/>
<path d="M372.309 158.72C372.069 152.67 359.099 134.75 352.149 131.01L357.699 115.91C359.449 111.15 357.259 105.73 353.009 105.29C350.079 104.99 347.019 107.04 343.639 112.65C343.639 112.65 330.989 138.87 328.799 140.84C311.299 156.62 317.009 183.98 317.009 183.98L308.439 253.26C307.449 263.86 307.309 276.99 314.839 285.45C321.109 292.5 331.949 294.37 340.879 291.34C368.019 282.12 365.739 250.69 364.929 227.69C364.669 220.29 363.049 180.98 363.049 180.98L369.289 170.56C371.499 166.87 372.479 162.75 372.319 158.72H372.309Z" fill="white"/>
<path d="M332.37 293.3C325.41 293.3 318.7 290.64 314.41 285.83C306.73 277.19 306.88 263.86 307.88 253.21L316.44 184C316.1 182.21 311.4 155.78 328.42 140.43C329.96 139.04 338.06 122.91 343.13 112.41C346.46 106.88 349.71 104.39 353.06 104.73C354.89 104.92 356.49 105.97 357.55 107.68C359.01 110.02 359.27 113.25 358.22 116.1L352.83 130.75C359.94 135 372.62 152.59 372.86 158.69C373.03 162.96 371.95 167.16 369.75 170.84L363.6 181.12C363.72 183.92 365.22 220.59 365.47 227.66L365.57 230.36C366.4 252.52 367.53 282.86 341.05 291.86C338.22 292.82 335.27 293.29 332.36 293.29L332.37 293.3ZM352.45 105.82C349.73 105.82 346.99 108.16 344.11 112.94C342.83 115.59 331.37 139.27 329.17 141.26C312.12 156.64 317.49 183.6 317.55 183.87C317.56 183.93 317.57 183.99 317.55 184.05L308.98 253.33C308.01 263.74 307.84 276.77 315.24 285.08C321.02 291.58 331.48 293.94 340.69 290.81C366.39 282.08 365.32 253.43 364.46 230.41L364.36 227.71C364.1 220.39 362.49 181.4 362.48 181.01C362.48 180.9 362.5 180.79 362.56 180.7L368.8 170.28C370.89 166.79 371.91 162.8 371.75 158.74C371.52 152.9 358.52 135.08 351.88 131.5C351.64 131.37 351.52 131.08 351.62 130.82L357.17 115.72C358.1 113.19 357.88 110.34 356.6 108.28C355.72 106.87 354.42 106.01 352.94 105.85C352.78 105.83 352.61 105.82 352.44 105.82H352.45Z" fill="#010000"/>
<path d="M326.17 115.901L318.03 119.501C314.05 121.261 309.31 119.251 307.44 115.011L306.73 113.411C304.86 109.171 306.56 104.321 310.54 102.561L318.68 98.9609L326.16 115.901H326.17Z" fill="black"/>
<path d="M315.01 120.691C313.91 120.691 312.79 120.461 311.72 120.011C309.59 119.111 307.89 117.411 306.92 115.231L306.21 113.631C305.25 111.451 305.14 109.051 305.91 106.861C306.68 104.661 308.24 102.951 310.31 102.041L318.45 98.4415C318.59 98.3815 318.74 98.3815 318.88 98.4415C319.02 98.4915 319.13 98.6015 319.19 98.7415L326.67 115.681C326.8 115.961 326.67 116.291 326.39 116.421L318.25 120.021C317.22 120.481 316.12 120.711 315.01 120.711V120.691ZM318.4 99.7015L310.77 103.071C308.99 103.861 307.64 105.341 306.97 107.241C306.3 109.161 306.39 111.271 307.24 113.181L307.95 114.781C308.8 116.701 310.29 118.191 312.16 118.981C314.02 119.771 316.02 119.771 317.8 118.981L325.43 115.611L318.4 99.7015Z" fill="black"/>
<path d="M368.67 178.841C364.83 180.541 360.11 178.281 358.12 173.791L338.73 129.901C336.75 125.411 338.25 120.401 342.1 118.701C345.94 117.001 350.66 119.261 352.65 123.751L372.04 167.641C374.02 172.131 372.52 177.141 368.67 178.841Z" fill="black"/>
<path d="M365.981 179.971C364.811 179.971 363.621 179.691 362.461 179.141C360.351 178.131 358.631 176.311 357.611 174.021L338.221 130.131C337.211 127.841 337.021 125.341 337.691 123.101C338.371 120.831 339.861 119.081 341.871 118.201C345.991 116.381 351.051 118.781 353.151 123.541L372.541 167.431C374.641 172.191 373.011 177.551 368.891 179.371C367.961 179.781 366.971 179.981 365.971 179.981L365.981 179.971ZM344.791 118.691C343.951 118.691 343.121 118.861 342.331 119.211C340.621 119.961 339.361 121.461 338.771 123.411C338.171 125.401 338.341 127.621 339.251 129.671L358.641 173.561C359.551 175.611 361.071 177.231 362.951 178.131C364.791 179.011 366.751 179.081 368.451 178.331C372.001 176.761 373.391 172.071 371.531 167.871L352.141 123.981C350.701 120.721 347.721 118.701 344.791 118.701V118.691Z" fill="black"/>
<path d="M347.119 107.426L332.228 114.006C329.111 115.383 327.701 119.027 329.078 122.144L330.545 125.464C331.922 128.581 335.566 129.991 338.682 128.614L353.573 122.033C356.69 120.656 358.1 117.013 356.723 113.896L355.256 110.576C353.879 107.459 350.235 106.049 347.119 107.426Z" fill="#FFF8F2"/>
<path d="M336.191 129.71C335.371 129.71 334.551 129.56 333.761 129.25C332.081 128.6 330.761 127.34 330.031 125.69L328.561 122.37C327.061 118.98 328.601 114.99 332.001 113.49L346.891 106.91C350.281 105.41 354.261 106.95 355.771 110.35L357.241 113.67C357.971 115.31 358.011 117.14 357.361 118.82C356.711 120.5 355.451 121.82 353.801 122.55L338.911 129.13C338.041 129.51 337.121 129.71 336.191 129.71ZM349.601 107.47C348.841 107.47 348.081 107.62 347.341 107.95L332.451 114.53C329.621 115.78 328.331 119.1 329.581 121.93L331.051 125.25C331.661 126.62 332.761 127.67 334.161 128.22C335.561 128.76 337.081 128.73 338.451 128.12L353.341 121.54C356.171 120.29 357.461 116.97 356.211 114.14L354.741 110.82C353.811 108.72 351.751 107.48 349.601 107.48V107.47Z" fill="black"/>
<path d="M351.519 114.69L334.409 122.25C326.049 125.94 316.089 121.72 312.149 112.81L310.669 109.45C306.739 100.55 310.319 90.3301 318.679 86.6401L335.789 79.0801L351.519 114.68V114.69Z" fill="#1FFFB4" stroke="black" stroke-miterlimit="10"/>
<path d="M328.1 124.14C321.33 124.14 314.71 119.96 311.65 113.04L310.17 109.68C308.21 105.24 307.99 100.35 309.55 95.9104C311.11 91.4504 314.28 87.9804 318.47 86.1304L335.58 78.5704C335.72 78.5104 335.87 78.5104 336.01 78.5704C336.15 78.6204 336.26 78.7304 336.32 78.8704L352.05 114.47C352.18 114.75 352.05 115.08 351.77 115.21L334.66 122.77C332.54 123.71 330.32 124.15 328.12 124.15L328.1 124.14ZM335.51 79.8304L318.91 87.1604C315.01 88.8804 312.06 92.1204 310.6 96.2804C309.13 100.45 309.34 105.05 311.19 109.23L312.67 112.59C316.47 121.2 326.12 125.3 334.19 121.74L350.78 114.41L335.5 79.8304H335.51Z" fill="#010000"/>
<path d="M335.801 79.0905L351.531 114.69C364.411 109 378.961 107.91 393.201 111.57L415.721 117L376.761 28.9805L366.161 50.3805C359.281 63.3705 348.681 73.4005 335.801 79.0905Z" fill="#FBEEE1"/>
<path d="M415.721 117.561C415.721 117.561 415.631 117.561 415.591 117.541L393.071 112.111C378.881 108.461 364.591 109.521 351.761 115.191C351.621 115.251 351.471 115.251 351.331 115.191C351.191 115.141 351.081 115.031 351.021 114.891L335.291 79.2906C335.161 79.0106 335.291 78.6806 335.571 78.5506C348.401 72.8806 358.811 63.0406 365.661 50.0906L376.251 28.7006C376.351 28.5106 376.551 28.3906 376.761 28.3906C376.981 28.3906 377.171 28.5206 377.261 28.7206L416.221 116.741C416.311 116.931 416.271 117.161 416.141 117.321C416.031 117.451 415.871 117.521 415.711 117.521L415.721 117.561ZM376.551 108.871C382.101 108.871 387.721 109.591 393.331 111.031L414.751 116.191L376.731 30.2906L366.661 50.6206C359.771 63.6306 349.361 73.5606 336.531 79.3606L351.811 113.941C359.651 110.561 368.011 108.861 376.551 108.861V108.871Z" fill="black"/>
<path d="M335.801 79.0905L351.531 114.69C364.411 109 378.961 107.91 393.201 111.57L415.721 117L376.761 28.9805L366.161 50.3805C359.281 63.3705 348.681 73.4005 335.801 79.0905Z" fill="#010000"/>
<path d="M415.721 117.561C415.721 117.561 415.631 117.561 415.591 117.541L393.071 112.111C378.881 108.461 364.591 109.521 351.761 115.191C351.621 115.251 351.471 115.251 351.331 115.191C351.191 115.141 351.081 115.031 351.021 114.891L335.291 79.2906C335.161 79.0106 335.291 78.6806 335.571 78.5506C348.401 72.8806 358.811 63.0406 365.661 50.0906L376.251 28.7006C376.351 28.5106 376.551 28.3906 376.761 28.3906C376.981 28.3906 377.171 28.5206 377.261 28.7206L416.221 116.741C416.311 116.931 416.271 117.161 416.141 117.321C416.031 117.451 415.871 117.521 415.711 117.521L415.721 117.561ZM376.551 108.871C382.101 108.871 387.721 109.591 393.331 111.031L414.751 116.191L376.731 30.2906L366.661 50.6206C359.771 63.6306 349.361 73.5606 336.531 79.3606L351.811 113.941C359.651 110.561 368.011 108.861 376.551 108.861V108.871Z" fill="#010000"/>
<path d="M420.309 116.579C429.073 112.625 427.058 89.2021 415.808 64.2621C404.558 39.322 388.332 22.3092 379.567 26.2629C370.803 30.2167 372.818 53.6398 384.068 78.5799C395.318 103.52 411.544 120.533 420.309 116.579Z" fill="white"/>
<path d="M417.52 117.701C408.06 117.701 393.85 101.701 383.48 78.631C374.81 59.351 371.39 40.161 374.96 30.891C375.95 28.311 377.45 26.571 379.4 25.721C388.63 21.681 404.88 38.581 416.39 64.201C425.06 83.481 428.48 102.671 424.91 111.941C423.92 114.521 422.42 116.261 420.47 117.111C419.55 117.511 418.57 117.711 417.52 117.711V117.701ZM382.4 26.231C381.49 26.231 380.64 26.401 379.85 26.741C378.18 27.471 376.88 29.001 376 31.291C372.53 40.301 375.94 59.141 384.5 78.171C394.55 100.521 408.6 116.591 417.48 116.601C418.39 116.601 419.24 116.431 420.03 116.091C421.7 115.361 423 113.831 423.88 111.541C427.35 102.531 423.94 83.691 415.38 64.661C405.33 42.311 391.28 26.231 382.4 26.231Z" fill="black"/>
<path d="M410.179 66.2116C418.949 85.8316 421.099 103.922 414.979 106.612C408.859 109.302 396.799 95.5716 388.029 75.9416C379.259 56.3216 377.109 38.2316 383.229 35.5416C389.349 32.8516 401.409 46.5816 410.179 66.2116Z" fill="#F8F8F8"/>
<mask id="mask0_223_8392" style="mask-type:luminance" maskUnits="userSpaceOnUse" x="379" y="35" width="40" height="72">
<path d="M410.179 66.2116C418.949 85.8316 421.099 103.922 414.979 106.612C408.859 109.302 396.799 95.5716 388.029 75.9416C379.259 56.3216 377.109 38.2316 383.229 35.5416C389.349 32.8516 401.409 46.5816 410.179 66.2116Z" fill="white"/>
</mask>
<g mask="url(#mask0_223_8392)">
<path d="M376.359 71.2003L387.939 66.1604C392.669 64.1004 398.579 67.0803 401.139 72.8103C403.699 78.5403 401.929 84.8603 397.199 86.9203L385.619 91.9603L376.359 71.2103V71.2003Z" fill="#1FFFB4" stroke="black" stroke-miterlimit="10"/>
<path d="M385.62 92.5212C385.41 92.5212 385.2 92.4012 385.11 92.1912L375.85 71.4412C375.79 71.3012 375.79 71.1512 375.85 71.0112C375.9 70.8712 376.01 70.7612 376.15 70.7012L387.73 65.6612C392.73 63.4812 398.98 66.5912 401.66 72.5912C403.11 75.8412 403.28 79.4212 402.12 82.4012C401.22 84.7212 399.55 86.5112 397.44 87.4412L385.86 92.4812C385.79 92.5112 385.71 92.5312 385.64 92.5312L385.62 92.5212ZM377.09 71.4912L385.9 91.2212L396.98 86.4012C398.82 85.6012 400.27 84.0312 401.07 81.9912C402.12 79.2812 401.96 76.0212 400.63 73.0412C398.2 67.6012 392.61 64.7412 388.17 66.6812L377.1 71.5012L377.09 71.4912Z" fill="#010000"/>
<path d="M398.59 75.4103C397.72 73.1903 397.84 70.8403 398.73 69.3203C399.9 70.1703 400.94 71.5303 401.61 73.2603C402.42 75.3303 402.53 77.5003 402.04 79.2303C400.66 78.7303 399.34 77.3503 398.58 75.4103H398.59Z" fill="white"/>
<path d="M402.05 79.7908C401.99 79.7908 401.92 79.7808 401.86 79.7608C400.27 79.1908 398.86 77.6408 398.07 75.6208C397.17 73.2908 397.23 70.7708 398.25 69.0408C398.33 68.9008 398.46 68.8108 398.62 68.7808C398.77 68.7508 398.93 68.7808 399.06 68.8708C400.36 69.8108 401.45 71.3008 402.14 73.0608C402.96 75.1608 403.13 77.4708 402.59 79.3808C402.55 79.5308 402.45 79.6608 402.31 79.7308C402.23 79.7708 402.14 79.7908 402.05 79.7908ZM399.11 75.2008C399.68 76.6608 400.61 77.8308 401.66 78.4308C401.94 76.8808 401.74 75.1108 401.1 73.4608C400.59 72.1408 399.83 71.0108 398.93 70.2008C398.39 71.6008 398.44 73.4908 399.11 75.2108V75.2008Z" fill="#010000"/>
</g>
<path d="M410.179 66.2116C418.949 85.8316 421.099 103.922 414.979 106.612C408.859 109.302 396.799 95.5716 388.029 75.9416C379.259 56.3216 377.109 38.2316 383.229 35.5416C389.349 32.8516 401.409 46.5816 410.179 66.2116Z" stroke="black" stroke-linecap="round" stroke-linejoin="round"/>
<path d="M339.531 77.3105L355.141 113.211L351.521 114.571L335.801 79.0905L339.531 77.3105Z" fill="#FFF8F2"/>
<path d="M351.521 115.12C351.311 115.12 351.101 115 351.011 114.79L335.281 79.3198C335.161 79.0398 335.281 78.7198 335.551 78.5898L339.291 76.8098C339.431 76.7498 339.581 76.7398 339.731 76.7898C339.871 76.8398 339.991 76.9498 340.051 77.0898L355.661 112.99C355.721 113.13 355.721 113.29 355.661 113.43C355.601 113.57 355.491 113.68 355.341 113.74L351.721 115.1C351.661 115.12 351.591 115.14 351.521 115.14V115.12ZM336.531 79.3598L351.821 113.86L354.391 112.9L339.251 78.0698L336.531 79.3698V79.3598Z" fill="black"/>
<path d="M367.959 148.701C367.349 149.031 366.789 149.431 366.249 149.871L355.909 158.191C353.339 160.261 353.129 164.321 355.769 166.311C357.589 167.681 360.189 167.731 364.089 165.821L373.849 159.141C376.749 157.161 378.149 153.451 376.919 150.161C375.929 147.511 373.529 145.691 367.969 148.691L367.959 148.701Z" fill="white"/>
<path d="M358.839 167.851C357.519 167.851 356.389 167.481 355.419 166.751C354.109 165.761 353.339 164.211 353.319 162.511C353.289 160.671 354.129 158.891 355.549 157.741L365.889 149.421C366.539 148.901 367.109 148.511 367.689 148.201C370.529 146.661 372.859 146.221 374.609 146.871C375.889 147.351 376.829 148.391 377.419 149.961C378.699 153.371 377.319 157.421 374.139 159.601L364.379 166.281C362.239 167.331 360.399 167.851 358.829 167.851H358.839ZM372.889 147.701C371.619 147.701 370.059 148.201 368.229 149.191C367.709 149.471 367.189 149.821 366.599 150.301L356.259 158.621C355.099 159.551 354.419 161.011 354.439 162.501C354.459 163.871 355.049 165.071 356.099 165.861C357.849 167.181 360.379 167.001 363.839 165.311L373.529 158.681C376.289 156.791 377.489 153.291 376.389 150.361C375.919 149.101 375.189 148.281 374.229 147.921C373.829 147.771 373.379 147.691 372.889 147.691V147.701Z" fill="#010000"/>
<path d="M361.51 139.969C360.9 140.299 360.34 140.699 359.8 141.139L349.46 149.459C346.89 151.529 346.68 155.589 349.32 157.579C351.14 158.949 353.74 158.999 357.64 157.089L367.4 150.409C370.3 148.429 371.7 144.719 370.47 141.429C369.48 138.779 367.08 136.959 361.52 139.959L361.51 139.969Z" fill="white"/>
<path d="M352.39 159.13C351.07 159.13 349.94 158.76 348.97 158.03C347.66 157.04 346.89 155.49 346.87 153.79C346.84 151.95 347.68 150.17 349.1 149.02L359.44 140.7C360.08 140.19 360.67 139.79 361.24 139.48C364.08 137.94 366.41 137.5 368.16 138.15C369.44 138.63 370.38 139.67 370.97 141.24C372.25 144.65 370.87 148.7 367.69 150.88L357.93 157.56C355.79 158.61 353.95 159.13 352.38 159.13H352.39ZM361.77 140.46C361.26 140.74 360.73 141.1 360.14 141.57L349.8 149.89C348.64 150.82 347.96 152.27 347.98 153.77C348 155.14 348.59 156.34 349.64 157.13C351.39 158.46 353.92 158.28 357.38 156.58L367.07 149.95C369.83 148.06 371.03 144.56 369.93 141.63C369.46 140.37 368.73 139.55 367.77 139.2C366.33 138.66 364.32 139.09 361.77 140.46Z" fill="#010000"/>
<path d="M355.17 129.57C354.58 129.93 354.03 130.36 353.51 130.82L343.57 139.61C341.1 141.8 341.08 145.87 343.8 147.73C345.68 149.02 348.28 148.94 352.09 146.85L361.53 139.73C364.33 137.61 365.56 133.84 364.18 130.62C363.06 128.02 360.59 126.31 355.17 129.57Z" fill="white"/>
<path d="M346.64 149.14C345.45 149.14 344.41 148.82 343.49 148.19C342.13 147.26 341.3 145.75 341.19 144.06C341.08 142.23 341.83 140.41 343.2 139.19L353.14 130.4C353.77 129.85 354.32 129.43 354.88 129.09C357.65 127.42 359.95 126.87 361.73 127.44C363.03 127.86 364.02 128.85 364.69 130.39C366.13 133.74 364.94 137.85 361.87 140.17L352.43 147.29C350.2 148.52 348.28 149.13 346.64 149.13V149.14ZM360.26 128.34C358.96 128.34 357.35 128.91 355.46 130.05C354.96 130.35 354.46 130.73 353.88 131.24L343.94 140.03C342.82 141.02 342.21 142.5 342.31 143.99C342.4 145.36 343.04 146.53 344.12 147.27C345.93 148.51 348.45 148.21 351.82 146.36L361.19 139.28C363.86 137.27 364.9 133.71 363.66 130.83C363.13 129.6 362.37 128.81 361.39 128.5C361.04 128.39 360.67 128.33 360.26 128.33V128.34Z" fill="#010000"/>
<path d="M349.909 174.879C349.909 174.879 351.449 158.169 334.549 160.719C331.799 161.129 354.629 156.089 353.999 148.629C353.369 141.179 341.069 143.799 328.799 147.659" fill="white"/>
<path d="M349.909 175.44C349.909 175.44 349.879 175.44 349.859 175.44C349.549 175.41 349.329 175.14 349.349 174.83C349.349 174.76 349.939 167.71 345.729 163.74C343.219 161.37 339.479 160.54 334.619 161.27C334.439 161.3 333.879 161.38 333.759 160.86C333.639 160.33 333.879 160.26 335.199 159.86C350.659 155.25 353.639 151.24 353.429 148.68C353.309 147.28 352.749 146.26 351.709 145.56C347.589 142.8 336.749 145.74 328.959 148.2C328.669 148.29 328.349 148.13 328.259 147.83C328.169 147.54 328.329 147.22 328.619 147.13C337.309 144.39 347.859 141.63 352.329 144.63C353.649 145.52 354.389 146.85 354.539 148.58C354.879 152.58 349.709 156.3 338.749 159.91C341.939 160.07 344.529 161.08 346.489 162.92C351.099 167.27 350.479 174.61 350.449 174.92C350.419 175.21 350.179 175.43 349.889 175.43L349.909 175.44Z" fill="#010000"/>
<path d="M430.721 18.1895L427.021 37.1195L423.671 33.1095L417.141 46.2095L421.371 25.0695L424.841 28.5495L430.721 18.1895Z" fill="url(#paint7_linear_223_8392)"/>
<path d="M417.14 46.7599C417.08 46.7599 417.02 46.7599 416.96 46.7299C416.69 46.6399 416.54 46.3699 416.59 46.0899L420.82 24.9599C420.86 24.7599 421.01 24.5899 421.21 24.5299C421.41 24.4699 421.62 24.5299 421.77 24.6699L424.73 27.6299L430.25 17.8999C430.38 17.6599 430.67 17.5599 430.93 17.6499C431.19 17.7399 431.34 18.0099 431.28 18.2799L427.58 37.2099C427.54 37.4199 427.38 37.5899 427.17 37.6399C426.96 37.6899 426.74 37.6199 426.6 37.4599L423.79 34.1099L417.64 46.4399C417.54 46.6299 417.35 46.7499 417.14 46.7499V46.7599ZM421.71 26.2099L418.51 42.2099L423.17 32.8699C423.25 32.6999 423.42 32.5899 423.6 32.5599C423.78 32.5399 423.97 32.6099 424.09 32.7599L426.69 35.8699L429.51 21.4499L425.32 28.8299C425.23 28.9799 425.08 29.0799 424.91 29.1099C424.74 29.1299 424.56 29.0699 424.44 28.9499L421.7 26.2099H421.71Z" fill="#010000"/>
<path d="M461.121 86.3392L443.031 87.9992L445.771 83.9092L432.201 81.4692L452.421 79.6992L450.201 83.7592L461.121 86.3392Z" fill="url(#paint8_linear_223_8392)"/>
<path d="M443.031 88.5592C442.831 88.5592 442.651 88.4593 442.551 88.2893C442.441 88.1093 442.451 87.8693 442.571 87.6893L444.831 84.3092L432.111 82.0192C431.831 81.9692 431.641 81.7193 431.651 81.4393C431.661 81.1593 431.881 80.9293 432.161 80.9093L452.381 79.1392C452.591 79.1192 452.781 79.2192 452.901 79.3892C453.011 79.5592 453.021 79.7792 452.921 79.9592L451.051 83.3792L461.261 85.7792C461.531 85.8392 461.711 86.0892 461.691 86.3592C461.671 86.6292 461.461 86.8492 461.181 86.8792L443.091 88.5493C443.091 88.5493 443.061 88.5493 443.041 88.5493L443.031 88.5592ZM436.431 81.6593L445.871 83.3592C446.061 83.3892 446.211 83.5193 446.281 83.6893C446.351 83.8593 446.341 84.0593 446.231 84.2193L444.151 87.3392L457.661 86.0992L450.071 84.3092C449.901 84.2692 449.761 84.1492 449.691 83.9892C449.621 83.8292 449.631 83.6492 449.711 83.4892L451.431 80.3492L436.431 81.6593Z" fill="#010000"/>
<path d="M474.85 40.6308L449.66 59.0808L450.07 50.6308L427.92 59.0308L456.16 38.5508L456.47 46.4908L474.85 40.6308Z" fill="#F04194" stroke="black" stroke-width="0.5" stroke-miterlimit="10"/>
<path d="M73.7103 422.98H226.67C233.381 422.98 238.82 417.541 238.82 410.83V405.7C238.82 398.99 233.381 393.55 226.67 393.55H73.7103C67 393.55 61.5603 398.99 61.5603 405.7V410.83C61.5603 417.541 67 422.98 73.7103 422.98Z" fill="#777EF6" stroke="black" stroke-miterlimit="10"/>
<path d="M225.25 423.54H75.13C67.34 423.54 61 417.2 61 409.41V407.13C61 399.34 67.34 393 75.13 393H225.25C233.04 393 239.38 399.34 239.38 407.13V409.41C239.38 417.2 233.04 423.54 225.25 423.54ZM75.13 394.11C67.95 394.11 62.12 399.95 62.12 407.12V409.4C62.12 416.58 67.96 422.41 75.13 422.41H225.25C232.43 422.41 238.26 416.57 238.26 409.4V407.12C238.26 399.94 232.42 394.11 225.25 394.11H75.13Z" fill="#010000"/>
<path d="M83.7694 415.551H196.999C197.612 415.551 198.109 415.054 198.109 414.441V402.091C198.109 401.478 197.612 400.981 196.999 400.981H83.7694C83.1563 400.981 82.6594 401.478 82.6594 402.091V414.441C82.6594 415.054 83.1563 415.551 83.7694 415.551Z" fill="white"/>
<path d="M218.581 412.01C216.971 412.01 215.431 411.31 214.381 410.08C213.511 409.08 213.041 407.79 213.041 406.46C213.041 403.4 215.531 400.92 218.581 400.92C221.631 400.92 224.121 403.41 224.121 406.46C224.121 409.51 221.631 412 218.581 412V412.01ZM218.581 402.11C216.181 402.11 214.221 404.06 214.221 406.46C214.221 407.5 214.591 408.51 215.281 409.3C216.111 410.26 217.311 410.81 218.581 410.81C220.981 410.81 222.931 408.86 222.931 406.46C222.931 404.06 220.981 402.11 218.581 402.11Z" fill="white"/>
<path d="M209.341 415.6C209.191 415.6 209.041 415.54 208.921 415.43C208.691 415.2 208.691 414.82 208.921 414.59L214.321 409.19C214.551 408.96 214.931 408.96 215.161 409.19C215.391 409.42 215.391 409.8 215.161 410.03L209.761 415.43C209.641 415.55 209.491 415.6 209.341 415.6Z" fill="white"/>
<path d="M178.45 467.411V435.951C161.07 435.951 146.99 450.041 146.99 467.411C146.99 484.781 161.08 498.871 178.45 498.871C195.82 498.871 209.91 484.781 209.91 467.411H178.45Z" fill="black"/>
<path d="M178.45 499.431C160.79 499.431 146.43 485.071 146.43 467.411C146.43 449.751 160.79 435.391 178.45 435.391C178.76 435.391 179.01 435.641 179.01 435.951V466.851H209.91C210.22 466.851 210.47 467.101 210.47 467.411C210.47 485.071 196.11 499.431 178.45 499.431ZM177.89 436.511C161.11 436.811 147.54 450.551 147.54 467.411C147.54 484.271 161.4 498.311 178.44 498.311C195.48 498.311 209.04 484.751 209.34 467.961H178.44C178.13 467.961 177.88 467.711 177.88 467.401V436.501L177.89 436.511Z" fill="black"/>
<path d="M174.911 467.411V435.951C157.531 435.951 143.451 450.041 143.451 467.411C143.451 484.781 157.541 498.871 174.911 498.871C192.281 498.871 206.371 484.781 206.371 467.411H174.911Z" fill="#777EF6" stroke="black" stroke-miterlimit="10"/>
<path d="M174.911 499.431C157.251 499.431 142.891 485.071 142.891 467.411C142.891 449.751 157.251 435.391 174.911 435.391C175.221 435.391 175.471 435.641 175.471 435.951V466.851H206.371C206.681 466.851 206.931 467.101 206.931 467.411C206.931 485.071 192.571 499.431 174.911 499.431ZM174.351 436.511C157.571 436.811 144.001 450.551 144.001 467.411C144.001 484.271 157.861 498.311 174.901 498.311C191.941 498.311 205.501 484.751 205.801 467.961H174.901C174.591 467.961 174.341 467.711 174.341 467.401V436.501L174.351 436.511Z" fill="#010000"/>
<path d="M201.101 456.261C201.101 447.561 194.051 440.521 185.361 440.521V456.261H201.101Z" fill="url(#paint9_linear_223_8392)"/>
<path d="M201.101 456.821H185.361C185.051 456.821 184.801 456.571 184.801 456.261V440.521C184.801 440.211 185.051 439.961 185.361 439.961C194.351 439.961 201.661 447.271 201.661 456.261C201.661 456.571 201.411 456.821 201.101 456.821ZM185.921 455.701H200.541C200.251 447.771 193.851 441.371 185.921 441.081V455.701Z" fill="#010000"/>
<path d="M191.911 458.381C191.911 453.401 187.871 449.361 182.881 449.361V458.381H191.911Z" fill="url(#paint10_linear_223_8392)"/>
<path d="M191.91 458.941H182.88C182.57 458.941 182.32 458.691 182.32 458.381V449.361C182.32 449.051 182.57 448.801 182.88 448.801C188.16 448.801 192.46 453.101 192.46 458.381C192.46 458.691 192.21 458.941 191.9 458.941H191.91ZM183.44 457.821H191.33C191.05 453.601 187.66 450.211 183.44 449.931V457.821Z" fill="#010000"/>
<path d="M358.48 8.03002C358.47 3.86002 355.08 0.490022 350.91 0.500022L313.96 0.590022C309.79 0.600022 306.42 3.99002 306.43 8.16002L306.49 32.62C306.5 36.79 309.89 40.16 314.06 40.15L322 40.13L332.17 50.25L342.29 40.08L351.02 40.06C355.19 40.05 358.56 36.66 358.55 32.49L358.49 8.03002H358.48Z" fill="#1FFFB4" stroke="black" stroke-miterlimit="10"/>
<path d="M332.599 10.5193L335.199 15.7893C335.309 16.0193 335.529 16.1793 335.779 16.2093L341.589 17.0493C342.219 17.1393 342.479 17.9193 342.019 18.3693L337.809 22.4693C337.629 22.6493 337.539 22.8993 337.589 23.1493L338.579 28.9393C338.689 29.5693 338.029 30.0493 337.459 29.7593L332.259 27.0293C332.029 26.9093 331.769 26.9093 331.539 27.0293L326.339 29.7593C325.769 30.0593 325.109 29.5793 325.219 28.9393L326.209 23.1493C326.249 22.8993 326.169 22.6393 325.989 22.4693L321.779 18.3693C321.319 17.9193 321.569 17.1393 322.209 17.0493L328.019 16.2093C328.269 16.1693 328.489 16.0193 328.599 15.7893L331.199 10.5193C331.479 9.9493 332.299 9.9493 332.589 10.5193H332.599Z" fill="url(#paint11_linear_223_8392)"/>
<path d="M325.98 30.4195C325.71 30.4195 325.43 30.3295 325.2 30.1595C324.79 29.8595 324.58 29.3595 324.67 28.8595L325.66 23.0695C325.67 22.9995 325.65 22.9295 325.6 22.8795L321.39 18.7795C321.02 18.4195 320.89 17.8995 321.05 17.4095C321.21 16.9195 321.62 16.5795 322.13 16.4995L327.94 15.6495C328.01 15.6395 328.07 15.5995 328.1 15.5295L330.7 10.2595C330.93 9.79953 331.38 9.51953 331.89 9.51953C332.4 9.51953 332.86 9.79953 333.08 10.2595L335.68 15.5295C335.71 15.5895 335.77 15.6395 335.84 15.6495L341.66 16.4995C342.17 16.5695 342.58 16.9195 342.73 17.4095C342.89 17.8995 342.76 18.4195 342.39 18.7795L338.18 22.8795C338.13 22.9295 338.11 22.9995 338.12 23.0695L339.11 28.8595C339.2 29.3595 338.99 29.8595 338.58 30.1595C338.17 30.4595 337.63 30.4995 337.18 30.2595L331.98 27.5295C331.92 27.4995 331.84 27.4995 331.78 27.5295L326.58 30.2595C326.38 30.3595 326.17 30.4095 325.96 30.4095L325.98 30.4195ZM331.9 10.6495C331.9 10.6495 331.76 10.6695 331.71 10.7695L329.11 16.0395C328.92 16.4295 328.54 16.7095 328.11 16.7695L322.3 17.6195C322.18 17.6395 322.14 17.7195 322.13 17.7695C322.11 17.8195 322.1 17.9095 322.18 17.9895L326.39 22.0895C326.7 22.3995 326.85 22.8395 326.77 23.2695L325.78 29.0595C325.76 29.1695 325.82 29.2395 325.86 29.2695C325.9 29.2995 325.98 29.3395 326.09 29.2895L331.29 26.5595C331.68 26.3495 332.14 26.3595 332.53 26.5595L337.73 29.2895C337.83 29.3395 337.92 29.2995 337.96 29.2695C338 29.2395 338.06 29.1695 338.05 29.0595L337.06 23.2695C336.99 22.8395 337.13 22.3995 337.44 22.0895L341.65 17.9895C341.73 17.9095 341.72 17.8195 341.7 17.7695C341.68 17.7195 341.64 17.6395 341.53 17.6195L335.72 16.7695C335.29 16.7095 334.91 16.4295 334.72 16.0395L332.12 10.7695C332.07 10.6695 331.98 10.6495 331.93 10.6495H331.9Z" fill="#010000"/>
<defs>
<linearGradient id="paint0_linear_223_8392" x1="116.961" y1="239.28" x2="386.671" y2="239.28" gradientUnits="userSpaceOnUse">
<stop stop-color="white"/>
<stop offset="0.94" stop-color="#F8F8F8"/>
</linearGradient>
<linearGradient id="paint1_linear_223_8392" x1="135.131" y1="78.9614" x2="158.141" y2="101.971" gradientUnits="userSpaceOnUse">
<stop stop-color="white"/>
<stop offset="1" stop-color="#905EFF"/>
</linearGradient>
<linearGradient id="paint2_linear_223_8392" x1="287.69" y1="134.16" x2="296.83" y2="134.16" gradientUnits="userSpaceOnUse">
<stop stop-color="#FBFEFE"/>
<stop offset="0.13" stop-color="#C1F8F5"/>
<stop offset="0.25" stop-color="#8EF2EC"/>
<stop offset="0.37" stop-color="#62EDE5"/>
<stop offset="0.5" stop-color="#3EE9E0"/>
<stop offset="0.62" stop-color="#23E6DB"/>
<stop offset="0.74" stop-color="#0FE4D8"/>
<stop offset="0.87" stop-color="#03E3D6"/>
<stop offset="1" stop-color="#00E3D6"/>
</linearGradient>
<linearGradient id="paint3_linear_223_8392" x1="216.431" y1="134.381" x2="225.571" y2="134.381" gradientUnits="userSpaceOnUse">
<stop stop-color="#FBFEFE"/>
<stop offset="0.13" stop-color="#C1F8F5"/>
<stop offset="0.25" stop-color="#8EF2EC"/>
<stop offset="0.37" stop-color="#62EDE5"/>
<stop offset="0.5" stop-color="#3EE9E0"/>
<stop offset="0.62" stop-color="#23E6DB"/>
<stop offset="0.74" stop-color="#0FE4D8"/>
<stop offset="0.87" stop-color="#03E3D6"/>
<stop offset="1" stop-color="#00E3D6"/>
</linearGradient>
<linearGradient id="paint4_linear_223_8392" x1="242.434" y1="261.652" x2="272.124" y2="261.652" gradientUnits="userSpaceOnUse">
<stop stop-color="white"/>
<stop offset="0.94" stop-color="#F8F8F8"/>
</linearGradient>
<linearGradient id="paint5_linear_223_8392" x1="171.362" y1="204.391" x2="211.262" y2="204.391" gradientUnits="userSpaceOnUse">
<stop stop-color="white"/>
<stop offset="0.94" stop-color="#F8F8F8"/>
</linearGradient>
<linearGradient id="paint6_linear_223_8392" x1="189.291" y1="201.21" x2="193.371" y2="201.21" gradientUnits="userSpaceOnUse">
<stop stop-color="white"/>
<stop offset="0.94" stop-color="#F8F8F8"/>
</linearGradient>
<linearGradient id="paint7_linear_223_8392" x1="415.157" y1="33.5641" x2="432.624" y2="30.8914" gradientUnits="userSpaceOnUse">
<stop stop-color="white"/>
<stop offset="0.12" stop-color="#FAFEFE"/>
<stop offset="0.25" stop-color="#EEFDFC"/>
<stop offset="0.37" stop-color="#D9FAF9"/>
<stop offset="0.5" stop-color="#BCF7F4"/>
<stop offset="0.63" stop-color="#97F3EE"/>
<stop offset="0.76" stop-color="#69EEE7"/>
<stop offset="0.89" stop-color="#34E8DE"/>
<stop offset="1" stop-color="#00E3D6"/>
</linearGradient>
<linearGradient id="paint8_linear_223_8392" x1="432.859" y1="86.0402" x2="460.398" y2="81.8261" gradientUnits="userSpaceOnUse">
<stop stop-color="white"/>
<stop offset="0.12" stop-color="#FAFEFE"/>
<stop offset="0.25" stop-color="#EEFDFC"/>
<stop offset="0.37" stop-color="#D9FAF9"/>
<stop offset="0.5" stop-color="#BCF7F4"/>
<stop offset="0.63" stop-color="#97F3EE"/>
<stop offset="0.76" stop-color="#69EEE7"/>
<stop offset="0.89" stop-color="#34E8DE"/>
<stop offset="1" stop-color="#00E3D6"/>
</linearGradient>
<linearGradient id="paint9_linear_223_8392" x1="183.051" y1="442.821" x2="198.801" y2="458.561" gradientUnits="userSpaceOnUse">
<stop stop-color="#FBFEFE"/>
<stop offset="0.13" stop-color="#C1F8F5"/>
<stop offset="0.25" stop-color="#8EF2EC"/>
<stop offset="0.37" stop-color="#62EDE5"/>
<stop offset="0.5" stop-color="#3EE9E0"/>
<stop offset="0.62" stop-color="#23E6DB"/>
<stop offset="0.74" stop-color="#0FE4D8"/>
<stop offset="0.87" stop-color="#03E3D6"/>
<stop offset="1" stop-color="#00E3D6"/>
</linearGradient>
<linearGradient id="paint10_linear_223_8392" x1="181.561" y1="450.681" x2="190.591" y2="459.701" gradientUnits="userSpaceOnUse">
<stop stop-color="#FBFEFE"/>
<stop offset="0.13" stop-color="#C1F8F5"/>
<stop offset="0.25" stop-color="#8EF2EC"/>
<stop offset="0.37" stop-color="#62EDE5"/>
<stop offset="0.5" stop-color="#3EE9E0"/>
<stop offset="0.62" stop-color="#23E6DB"/>
<stop offset="0.74" stop-color="#0FE4D8"/>
<stop offset="0.87" stop-color="#03E3D6"/>
<stop offset="1" stop-color="#00E3D6"/>
</linearGradient>
<linearGradient id="paint11_linear_223_8392" x1="324.669" y1="14.3793" x2="339.139" y2="28.8593" gradientUnits="userSpaceOnUse">
<stop stop-color="white"/>
<stop offset="0.94" stop-color="#F8F8F8"/>
</linearGradient>
</defs>
</svg>
