<svg width="56" height="36" viewBox="0 0 56 36" fill="none" xmlns="http://www.w3.org/2000/svg">
<path d="M0.88623 27.7665L1.97973 3.39831C1.97973 3.39831 1.82481 0.619009 4.6922 1.04426C7.56111 1.47102 35.6214 5.46228 35.6214 5.46228C35.6214 5.46228 38.9156 5.46228 38.8001 8.79592C38.6832 12.1296 37.9481 35.5015 37.9481 35.5015L0.88623 27.7665Z" fill="#D0DCFF" stroke="black" stroke-width="0.151874" stroke-miterlimit="10"/>
<path d="M38.0209 33.1732L55.7507 25.6995V27.5235L37.9465 35.5015L38.0209 33.1732Z" fill="white" stroke="black" stroke-width="0.151874" stroke-miterlimit="10"/>
<path d="M38.381 21.7827L55.7509 25.6995L38.0211 33.1733L38.381 21.7827Z" fill="#4662FF" stroke="black" stroke-width="0.151874" stroke-miterlimit="10"/>
<path d="M38.3552 22.6256L52.5038 26.0109L38.0211 31.5725L38.3552 22.6256Z" fill="white" stroke="black" stroke-width="0.151874" stroke-miterlimit="10"/>
<path d="M38.3552 24.0973L50.1421 26.9176" stroke="black" stroke-width="0.151874" stroke-miterlimit="10"/>
<path d="M38.2199 26.2326L46.6793 28.2571" stroke="black" stroke-width="0.151874" stroke-miterlimit="10"/>
<path d="M48.0066 24.9356L38.1287 28.6899L42.6591 29.7743" stroke="black" stroke-width="0.151874" stroke-miterlimit="10"/>
<path d="M42.6591 23.5794L38.1287 25.8119V28.6899" stroke="black" stroke-width="0.151874" stroke-miterlimit="10"/>
<path d="M17.7078 17.5788C19.0373 17.5788 20.115 16.5011 20.115 15.1716C20.115 13.8421 19.0373 12.7644 17.7078 12.7644C16.3783 12.7644 15.3006 13.8421 15.3006 15.1716C15.3006 16.5011 16.3783 17.5788 17.7078 17.5788Z" fill="#4662FF" stroke="black" stroke-width="0.151874" stroke-miterlimit="10"/>
<path d="M17.7079 16.2621C18.3101 16.2621 18.7983 15.7738 18.7983 15.1716C18.7983 14.5694 18.3101 14.0811 17.7079 14.0811C17.1056 14.0811 16.6174 14.5694 16.6174 15.1716C16.6174 15.7738 17.1056 16.2621 17.7079 16.2621Z" fill="#CEFF62" stroke="black" stroke-width="0.151874" stroke-miterlimit="10"/>
</svg>
