<svg width="24" height="24" viewBox="0 0 24 24" fill="none" xmlns="http://www.w3.org/2000/svg">
<path d="M0.5 12C0.5 5.64873 5.64873 0.5 12 0.5C18.3513 0.5 23.5 5.64873 23.5 12C23.5 18.3513 18.3513 23.5 12 23.5C5.64873 23.5 0.5 18.3513 0.5 12Z" stroke="#D7FF7B"/>
<path d="M17.6313 17.6345H15.262V13.9218C15.262 13.0365 15.244 11.8971 14.0273 11.8971C12.792 11.8971 12.6033 12.8605 12.6033 13.8565V17.6345H10.234V9.99979H12.51V11.0405H12.5406C12.8586 10.4405 13.632 9.80712 14.7873 9.80712C17.188 9.80712 17.632 11.3871 17.632 13.4438L17.6313 17.6345ZM7.55795 8.95513C6.79528 8.95513 6.18262 8.33779 6.18262 7.57846C6.18262 6.81979 6.79595 6.20312 7.55795 6.20312C8.31795 6.20312 8.93395 6.81979 8.93395 7.57846C8.93395 8.33779 8.31728 8.95513 7.55795 8.95513ZM8.74595 17.6345H6.36995V9.99979H8.74595V17.6345Z" fill="#D7FF7B"/>
</svg>
