<svg width="264" height="284" viewBox="0 0 264 284" fill="none" xmlns="http://www.w3.org/2000/svg">
<g clip-path="url(#clip0_226_16071)">
<path d="M62.8061 17.5374L56.8385 19.1454C55.2309 19.5785 54.2789 21.2329 54.712 22.8405L59.4386 40.3822C59.8717 41.9898 61.5261 42.9418 63.1337 42.5087L69.1012 40.9007C70.7088 40.4676 71.6609 38.8132 71.2277 37.2056L66.5012 19.664C66.068 18.0564 64.4137 17.1043 62.8061 17.5374Z" fill="#4F5DC3"/>
<path d="M0.664088 49.061L0.664137 49.0612C18.7826 113.637 52.5311 228.38 61.607 259.156L61.6071 259.156C62.8121 263.25 67.0257 265.668 71.1728 264.642L71.1731 264.642L224.275 226.894L165.375 2.15098L3.79167 43.6353L0.664088 49.061ZM0.664088 49.061C0.000479942 46.6992 1.41316 44.2499 3.79098 43.6354L0.664088 49.061Z" fill="#8385F2" stroke="black"/>
<g opacity="0.3">
<path d="M121.649 179.787C115.342 164.697 100.324 155.208 85.4101 148.487C70.4961 141.766 54.4764 136.627 41.9805 126.08V131.513C47.9779 150.213 60.5932 166.71 77.0583 177.416C83.6045 181.672 90.803 185.092 96.4107 190.517C109.67 203.347 110.267 226.978 97.6595 240.453C104.421 242.736 112.096 239.14 116.495 233.517C120.894 227.901 122.636 220.679 123.773 213.631C125.594 202.321 126.064 190.35 121.649 179.779V179.787Z" fill="#221F4A"/>
</g>
<path d="M245.545 136.968C238.442 127.845 227.935 119.652 218.422 112.867C199.348 99.2498 191.218 88.0106 184.688 66.0014C178.15 43.9525 165.733 1.54102 165.733 1.54102L12.5762 41.3197C12.5762 41.3197 26.13 83.1506 31.9843 105.343C37.8386 127.535 51.5674 149.528 70.6415 163.145C80.1467 169.93 91.4893 174.154 100.525 181.504C120.092 197.412 124.626 227.948 110.476 248.501L256.466 210.839C270.617 190.285 261.525 157.49 245.553 136.976L245.545 136.968Z" fill="#D9DFF2"/>
<path d="M245.759 136.762C241.218 130.972 235.769 125.945 230.074 121.315C224.379 116.686 218.707 112.932 213.147 108.573C204.334 101.677 196.786 93.5553 191.711 83.5172C186.636 73.479 184.011 62.6853 180.885 52.0824C177.759 41.4795 174.61 30.7573 171.476 20.0987C170.283 16.0421 169.097 11.9855 167.904 7.92093C167.308 5.89263 166.846 3.745 166.099 1.76442C166.067 1.66897 166.043 1.57352 166.011 1.47807C165.963 1.31899 165.804 1.23149 165.645 1.27126C160.555 2.59165 155.472 3.91204 150.381 5.23243C138.172 8.40614 125.954 11.5798 113.744 14.7456C98.9736 18.5795 84.2107 22.4134 69.4398 26.2552C56.745 29.5483 44.0502 32.8492 31.3553 36.1423C27.1476 37.232 22.9398 38.3297 18.7321 39.4194C16.7674 39.9284 14.6516 40.2784 12.7426 40.9704C12.6631 41.0022 12.5676 41.0182 12.4881 41.0341C12.337 41.0738 12.2336 41.2488 12.2813 41.4C15.2243 50.4836 18.0878 59.5831 20.9115 68.7066C23.2739 76.3425 25.5965 83.9865 27.8316 91.6543C30.0668 99.3221 31.8008 106.95 34.4734 114.363C40.9401 132.3 52.0759 148.98 67.0933 160.863C75.0713 167.171 84.322 171.291 92.9443 176.581C100.676 181.329 107.198 187.335 111.692 195.289C119.845 209.726 120.832 228.251 113.299 243.149C112.384 244.955 111.35 246.689 110.213 248.359C110.062 248.582 110.308 248.86 110.547 248.796C112.551 248.279 114.556 247.762 116.56 247.245C121.866 245.877 127.163 244.509 132.468 243.141C139.961 241.208 147.462 239.275 154.955 237.342C163.649 235.099 172.343 232.856 181.029 230.613C189.818 228.346 198.615 226.079 207.405 223.805C215.2 221.792 222.995 219.78 230.79 217.775C236.588 216.28 242.395 214.785 248.193 213.281C249.999 212.812 251.805 212.351 253.61 211.881C254.477 211.659 255.471 211.523 256.307 211.189C256.895 210.951 257.094 210.442 257.452 209.869C259.075 207.308 260.379 204.54 261.35 201.66C263.394 195.639 264.014 189.196 263.68 182.865C262.964 169.39 258.184 156.107 251.192 144.653C249.522 141.925 247.708 139.292 245.744 136.762C245.505 136.46 245.091 136.882 245.322 137.184C253.714 148.009 259.671 161.022 262.105 174.513C263.298 181.123 263.601 187.971 262.495 194.621C261.986 197.667 261.175 200.674 260.021 203.545C259.433 205.017 258.741 206.457 257.969 207.841C257.587 208.525 257.182 209.193 256.76 209.853C256.665 209.996 256.466 210.489 256.362 210.561C255.949 210.855 255.026 210.903 254.549 211.03C253.03 211.42 251.518 211.81 249.999 212.207C244.702 213.575 239.404 214.944 234.099 216.312C226.646 218.237 219.193 220.154 211.747 222.078C203.173 224.29 194.59 226.509 186.016 228.72C177.338 230.963 168.652 233.198 159.974 235.441C152.219 237.446 144.455 239.442 136.7 241.447C130.894 242.942 125.079 244.446 119.273 245.941C117.411 246.418 115.55 246.903 113.689 247.381C112.766 247.619 111.629 247.739 110.762 248.136C110.65 248.184 110.507 248.2 110.388 248.232L110.722 248.669C119.917 235.211 121.293 217.489 115.622 202.36C112.79 194.796 108.216 187.884 102.155 182.53C94.5431 175.809 85.0856 171.753 76.4474 166.59C59.2744 156.329 46.2614 140 38.1323 121.872C34.5768 113.942 32.4291 105.654 30.0668 97.3256C27.9032 89.6816 25.6204 82.0775 23.2978 74.4892C19.957 63.5682 16.5288 52.6789 13.021 41.8136C12.9653 41.6306 12.9017 41.4477 12.846 41.2647L12.6392 41.6306C17.7299 40.3102 22.8126 38.9898 27.9032 37.6695C40.1129 34.4958 52.3304 31.322 64.54 28.1563C79.3109 24.3224 94.0738 20.4885 108.845 16.6466C121.539 13.3536 134.234 10.0526 146.929 6.75963C151.137 5.66991 155.345 4.57224 159.552 3.48252L163.482 2.46439C164.07 2.31326 165.017 2.24962 165.542 1.93146C165.605 1.89169 165.725 1.88373 165.796 1.86783L165.43 1.66102C166.934 6.79144 168.437 11.9219 169.94 17.0523C173.035 27.6075 176.137 38.1626 179.247 48.7098C182.357 59.257 184.998 70.1383 189.468 80.2162C193.914 90.2543 200.548 98.7653 208.876 105.884C213.927 110.203 219.447 113.902 224.737 117.919C230.806 122.524 236.7 127.456 241.838 133.095C243.047 134.424 244.208 135.8 245.322 137.216C245.561 137.518 245.974 137.096 245.744 136.794L245.759 136.762Z" fill="#221F4A"/>
<path d="M123.099 22.3029L118.836 6.4662C118.279 4.39016 116.139 3.15727 114.055 3.71406L98.8153 7.8184L100.462 1.95619C100.756 0.922153 99.8016 -0.0402995 98.7676 0.238096L72.2962 7.37297C71.2701 7.65136 70.9201 8.93198 71.6678 9.68763L75.9073 13.9908L60.8819 18.0395C58.8059 18.5963 57.573 20.7439 58.1298 22.8199L62.3932 38.6566C62.95 40.7327 65.0976 41.9656 67.1737 41.4088L120.331 27.0834C122.407 26.5266 123.64 24.3869 123.083 22.3029H123.099Z" fill="#1FFFB4" stroke="black" stroke-width="0.397708" stroke-miterlimit="10"/>
<path d="M59.0363 19.0115C71.93 15.5355 84.8157 12.0675 97.7094 8.59152C101.408 7.59725 105.115 6.59502 108.813 5.60075C109.187 5.49735 109.028 4.92465 108.654 5.02806C95.7606 8.50402 82.8749 11.972 69.9812 15.448C66.2826 16.4423 62.5759 17.4445 58.8772 18.4388C58.5034 18.5422 58.6625 19.1149 59.0363 19.0115Z" fill="#221F4A"/>
<path d="M70.4948 69.0296L57.6457 72.4918C53.9258 73.4941 51.7227 77.3223 52.725 81.0422L56.1872 93.8912C57.1895 97.6112 61.0176 99.8143 64.7376 98.8119L77.5866 95.3498C81.3066 94.3475 83.5097 90.5193 82.5073 86.7994L79.0452 73.9503C78.0429 70.2304 74.2147 68.0273 70.4948 69.0296Z" fill="white"/>
<path d="M90.8365 67.1724L148.553 51.6208C150.105 51.2028 151.696 52.125 152.112 53.6687L152.185 53.9375C152.603 55.4889 151.68 57.0802 150.137 57.4962L92.4196 73.0478C90.8682 73.4658 89.2769 72.5436 88.861 70.9998L88.7885 70.731C88.3705 69.1796 89.2928 67.5884 90.8365 67.1724Z" fill="#B6C2EC"/>
<path d="M130.827 67.4472L96.4732 76.7036C94.925 77.1208 94.0081 78.7141 94.4253 80.2623L94.4977 80.5311C94.9148 82.0793 96.5081 82.9962 98.0563 82.579L132.41 73.3225C133.958 72.9054 134.875 71.3121 134.458 69.7639L134.386 69.4951C133.968 67.9469 132.375 67.03 130.827 67.4472Z" fill="#B6C2EC"/>
<path d="M96.5083 135.467L83.3601 139.015C80.1386 139.882 76.7661 138.267 75.4298 135.205L69.8539 122.447C68.1995 118.668 70.2994 114.309 74.2764 113.236L87.4246 109.688C90.6461 108.821 94.0186 110.436 95.3549 113.498L100.931 126.257C102.585 130.035 100.485 134.394 96.5083 135.467Z" fill="white"/>
<path d="M166.63 91.8101L108.905 107.364C107.357 107.781 106.44 109.374 106.857 110.922L106.929 111.191C107.346 112.739 108.94 113.656 110.488 113.239L168.213 97.6855C169.761 97.2683 170.678 95.6751 170.261 94.1269L170.188 93.8581C169.771 92.3099 168.178 91.393 166.63 91.8101Z" fill="#B6C2EC"/>
<path d="M150.909 106.877L116.555 116.133C115.007 116.55 114.09 118.144 114.507 119.692L114.58 119.961C114.997 121.509 116.59 122.426 118.138 122.009L152.492 112.752C154.04 112.335 154.957 110.742 154.54 109.194L154.468 108.925C154.05 107.377 152.457 106.46 150.909 106.877Z" fill="#B6C2EC"/>
<path d="M154.152 209.21L138.435 213.442C135.476 214.237 132.437 212.456 131.682 209.481L127.705 193.692C126.973 190.789 128.707 187.83 131.602 187.05L147.319 182.818C150.278 182.023 153.317 183.805 154.073 186.78L158.05 202.569C158.781 205.472 157.047 208.431 154.152 209.21Z" fill="white"/>
<path d="M169.034 180.616L226.751 165.064C228.302 164.646 229.893 165.568 230.309 167.112L230.382 167.381C230.8 168.932 229.878 170.524 228.334 170.94L170.617 186.491C169.065 186.909 167.474 185.987 167.058 184.443L166.986 184.174C166.568 182.623 167.49 181.032 169.034 180.616Z" fill="#B6C2EC"/>
<path d="M171.874 191.17L206.22 181.916C207.771 181.498 209.362 182.42 209.778 183.964L209.851 184.233C210.269 185.784 209.346 187.375 207.803 187.791L173.457 197.046C171.905 197.464 170.314 196.542 169.898 194.998L169.826 194.729C169.408 193.178 170.33 191.586 171.874 191.17Z" fill="#B6C2EC"/>
<path d="M134.369 167.529L120.593 171.244C116.671 172.302 112.479 171.228 109.544 168.428L100.317 159.607C98.2732 157.65 99.1481 154.214 101.884 153.474L115.661 149.76C119.582 148.702 123.774 149.775 126.709 152.575L135.936 161.396C137.98 163.353 137.105 166.789 134.369 167.529Z" fill="white"/>
<path d="M197.43 128.523L139.706 144.077C138.157 144.494 137.241 146.087 137.658 147.635L137.73 147.904C138.147 149.452 139.741 150.369 141.289 149.952L199.013 134.398C200.562 133.981 201.478 132.388 201.061 130.84L200.989 130.571C200.572 129.023 198.979 128.106 197.43 128.523Z" fill="#B6C2EC"/>
<path d="M149.182 152.586L183.528 143.332C185.08 142.914 186.671 143.836 187.087 145.38L187.159 145.649C187.577 147.2 186.655 148.791 185.111 149.207L150.765 158.462C149.214 158.88 147.623 157.958 147.207 156.414L147.134 156.145C146.716 154.594 147.638 153.002 149.182 152.586Z" fill="#B6C2EC"/>
<path d="M60.5853 85.7533C63.8386 87.3521 67.0918 88.9429 70.3451 90.5417C70.9576 90.844 71.57 90.5735 71.8087 89.9451C73.7415 84.8306 75.6823 79.7161 77.6152 74.6095C77.8936 73.8857 78.164 73.1539 78.4424 72.4301C78.8958 71.229 76.9709 70.712 76.5255 71.9051C74.5926 77.0197 72.6518 82.1342 70.7189 87.2407C70.4405 87.9646 70.1701 88.6963 69.8917 89.4202L71.3553 88.8236C68.102 87.2248 64.8488 85.634 61.5955 84.0352C60.4501 83.4705 59.44 85.1886 60.5933 85.7533H60.5853Z" fill="black"/>
<path d="M79.6615 126.064C82.9148 127.663 86.168 129.253 89.4213 130.852C90.0337 131.155 90.6462 130.884 90.8848 130.256C92.8177 125.141 94.7585 120.027 96.6914 114.92C96.9697 114.196 97.2402 113.464 97.5186 112.741C97.972 111.54 96.0471 111.023 95.6016 112.216C93.6688 117.33 91.728 122.445 89.7951 127.551C89.5167 128.275 89.2463 129.007 88.9679 129.731L90.4314 129.134C87.1782 127.535 83.9249 125.945 80.6717 124.346C79.5263 123.781 78.5161 125.499 79.6695 126.064H79.6615Z" fill="black"/>
<path d="M4.46937 44.2005C5.05797 46.1573 5.64658 48.114 6.23519 50.0627C7.83397 55.3841 9.43275 60.7054 11.0315 66.0267C13.3939 73.8934 15.7563 81.768 18.1266 89.6346C21.014 99.2353 23.8934 108.836 26.7808 118.445C29.9386 128.96 33.0964 139.483 36.2621 149.999C39.4279 160.514 42.6413 171.228 45.8309 181.847C48.8058 191.742 51.7806 201.645 54.7555 211.54C57.269 219.9 59.7825 228.268 62.296 236.627C64.1016 242.641 65.9072 248.654 67.7128 254.667C68.5639 257.507 69.3991 260.363 70.2741 263.202C70.3138 263.321 70.3456 263.441 70.3854 263.56C70.4968 263.926 71.0695 263.767 70.9581 263.401C70.3695 261.444 69.7809 259.488 69.1923 257.539C67.5935 252.217 65.9947 246.896 64.3959 241.575C62.0336 233.708 59.6712 225.834 57.3008 217.967C54.4135 208.366 51.5341 198.766 48.6467 189.157C45.4889 178.642 42.3311 168.118 39.1654 157.603C35.9996 147.087 32.7861 136.373 29.5965 125.754C26.6217 115.859 23.6468 105.957 20.672 96.0616C18.1585 87.7018 15.6449 79.334 13.1314 70.9742C11.3258 64.9609 9.52025 58.9475 7.71466 52.9342C6.86356 50.0946 6.02838 47.239 5.15342 44.3994C5.11365 44.2801 5.08184 44.1608 5.04206 44.0414C4.93071 43.6756 4.35801 43.8346 4.46937 44.2005Z" fill="#221F4A"/>
<path d="M72.4734 276.543L89.6254 260.565C90.8418 259.432 92.7416 259.499 93.8748 260.716L94.0645 260.92C95.2681 262.212 95.2018 264.241 93.9039 265.45L76.8917 281.297C75.6753 282.431 73.7754 282.363 72.6423 281.147L72.3224 280.803C71.1893 279.587 71.2566 277.687 72.473 276.554L72.4734 276.543Z" fill="#3D60FF" stroke="black" stroke-width="0.795415" stroke-miterlimit="10"/>
<path d="M60.793 268.571L72.0401 274.115L87.7098 259.209L81.776 244.955L60.793 268.571Z" fill="#1FFFB4" stroke="black" stroke-width="0.397708" stroke-miterlimit="10"/>
<path d="M90.7638 267.575L79.723 277.86C78.4694 279.028 78.3998 280.991 79.5676 282.244L79.7628 282.454C80.9305 283.708 82.8935 283.777 84.1471 282.609L95.1879 272.324C96.4415 271.157 96.511 269.194 95.3433 267.94L95.1481 267.731C93.9803 266.477 92.0174 266.407 90.7638 267.575Z" fill="#3D60FF" stroke="black" stroke-width="0.795415" stroke-miterlimit="10"/>
<path d="M54.2069 270.553C71.385 269.812 84.7099 255.286 83.9689 238.108C83.2279 220.93 68.7016 207.605 51.5235 208.346C34.3455 209.087 21.0206 223.613 21.7616 240.791C22.5026 257.969 37.0289 271.294 54.2069 270.553Z" fill="#1FFFB4" stroke="black" stroke-width="0.397708" stroke-miterlimit="10"/>
<path d="M74.9127 270.315C66.4415 265.081 58.4794 259.036 51.1855 252.259C49.4037 250.605 47.2641 248.855 46.6755 246.373C46.0868 243.891 47.7015 241.704 50.1514 241.147C52.4024 240.63 54.6614 241.616 56.4352 242.953C58.0897 244.201 60.985 247.121 58.7817 249.205C56.5784 251.289 54.0489 247.367 53.3172 245.721C52.307 243.454 52.2752 240.813 53.9615 238.856C57.2386 235.046 63.1008 236.215 66.5051 239.214C67.404 240.01 68.2073 241.147 67.9051 242.412C67.4835 244.193 65.3677 244.074 64.1507 243.255C62.2417 241.974 60.985 239.508 60.8736 237.242C60.7623 234.975 62.0588 232.716 64.2621 231.857C66.3461 231.045 68.3744 231.92 69.5834 233.71C70.8958 235.651 71.381 238.077 72.1049 240.264C72.9321 242.754 73.8786 245.204 74.9365 247.606C77.1319 252.577 79.8124 257.326 82.9146 261.788C83.1293 262.098 83.6463 261.804 83.4316 261.486C79.7965 256.276 76.7421 250.66 74.3798 244.766C73.2741 242.006 72.4549 239.158 71.4765 236.359C70.7686 234.33 69.7186 232.151 67.6187 231.276C65.7097 230.481 63.5223 231.18 62.0747 232.564C60.3805 234.179 59.943 236.597 60.4998 238.816C61.0566 241.036 62.6394 243.549 64.8745 244.281C66.8949 244.941 68.8596 243.493 68.4937 241.33C68.096 238.96 65.2802 237.409 63.2758 236.597C60.9134 235.651 58.2169 235.5 55.8943 236.629C53.8501 237.623 52.2831 239.508 52.0206 241.807C51.7422 244.257 52.8797 246.954 54.5342 248.735C55.8625 250.167 58.3521 251.145 59.6169 249.077C60.8816 247.009 59.3544 244.703 57.7715 243.287C55.942 241.648 53.5399 240.232 50.9946 240.407C48.9981 240.55 46.9379 241.688 46.2141 243.637C45.2437 246.23 46.8743 248.815 48.6242 250.62C50.8116 252.879 53.2217 254.955 55.608 256.992C60.3884 261.064 65.4154 264.85 70.6572 268.302C71.9617 269.162 73.2821 270.005 74.6104 270.824C74.9366 271.023 75.2388 270.514 74.9127 270.307V270.315Z" fill="#221F4A"/>
<path d="M86.7457 254.982L67.2308 273.161C65.9772 274.329 65.9076 276.292 67.0754 277.545L67.2706 277.755C68.4384 279.008 70.4013 279.078 71.6549 277.91L91.1698 259.731C92.4234 258.564 92.493 256.601 91.3252 255.347L91.13 255.137C89.9622 253.884 87.9993 253.814 86.7457 254.982Z" fill="#3D60FF" stroke="black" stroke-width="0.795415" stroke-miterlimit="10"/>
<path d="M71.5474 278.348C78.2288 272.176 84.9183 266.003 91.5998 259.823C91.8861 259.56 91.4566 259.139 91.1782 259.401C84.4967 265.574 77.8073 271.746 71.1258 277.926C70.8394 278.189 71.269 278.611 71.5474 278.348Z" fill="#221F4A"/>
<path d="M78.6261 280.265C83.5577 275.604 88.4972 270.943 93.4288 266.29C93.7072 266.027 93.2856 265.606 93.0072 265.868C88.0757 270.529 83.1361 275.19 78.2045 279.844C77.9262 280.106 78.3477 280.528 78.6261 280.265Z" fill="#221F4A"/>
<path d="M54.693 213.037C60.9688 212.003 67.1969 215.519 71.6751 219.631C76.1533 223.744 78.8736 228.818 80.0508 234.513C80.1781 235.142 81.1405 234.871 81.0133 234.251C79.7565 228.166 76.5271 222.55 71.8421 218.454C67.1571 214.358 60.8734 211.025 54.4225 212.083C53.7942 212.186 54.0566 213.149 54.685 213.045L54.693 213.037Z" fill="white"/>
<g opacity="0.3">
<path d="M29.6455 226.869C32.9624 224.515 35.5077 226.686 37.0031 229.136C38.5064 231.586 38.5223 234.64 38.3394 237.512C38.1564 240.375 37.8224 243.342 38.745 246.063C39.3098 247.733 40.3279 249.22 41.012 250.843C41.696 252.474 42.0301 254.398 41.2029 255.965C40.2245 257.819 37.8303 258.582 35.7781 258.169C33.726 257.755 31.992 256.387 30.5602 254.852C23.9901 247.789 22.0175 237.345 27.3229 229.287C27.3229 229.287 28.8183 227.45 29.6455 226.869Z" fill="white"/>
</g>
</g>
<defs>
<clipPath id="clip0_226_16071">
<rect width="263.784" height="283.82" fill="white"/>
</clipPath>
</defs>
</svg>
