<svg width="43" height="32" viewBox="0 0 43 32" fill="none" xmlns="http://www.w3.org/2000/svg">
<path d="M42.0449 24.3085C42.0432 23.5839 41.4541 22.9983 40.7294 23L34.3085 23.0156C33.5839 23.0174 32.9983 23.6065 33 24.3311L33.0104 28.5816C33.0122 29.3062 33.6013 29.8918 34.3259 29.8901L35.7057 29.8866L37.4729 31.6452L39.2315 29.8779L40.7485 29.8745C41.4732 29.8727 42.0588 29.2836 42.0571 28.559L42.0466 24.3085H42.0449Z" fill="#1FFFB4" stroke="black" stroke-width="0.173773" stroke-miterlimit="10"/>
<path d="M37.5477 24.7412L37.9995 25.657C38.0186 25.697 38.0568 25.7248 38.1003 25.73L39.1099 25.8759C39.2194 25.8916 39.2645 26.0271 39.1846 26.1053L38.453 26.8178C38.4217 26.8491 38.4061 26.8925 38.4148 26.936L38.5868 27.9421C38.6059 28.0516 38.4913 28.135 38.3922 28.0846L37.4886 27.6102C37.4486 27.5894 37.4034 27.5894 37.3635 27.6102L36.4598 28.0846C36.3608 28.1367 36.2461 28.0533 36.2652 27.9421L36.4373 26.936C36.4442 26.8925 36.4303 26.8473 36.399 26.8178L35.6674 26.1053C35.5875 26.0271 35.6309 25.8916 35.7422 25.8759L36.7518 25.73C36.7952 25.723 36.8335 25.697 36.8526 25.657L37.3044 24.7412C37.353 24.6422 37.4955 24.6422 37.5459 24.7412H37.5477Z" fill="url(#paint0_linear_15_3)"/>
<path d="M36.3972 28.1993C36.3503 28.1993 36.3016 28.1837 36.2617 28.1541C36.1904 28.102 36.1539 28.0151 36.1696 27.9282L36.3416 26.9221C36.3433 26.9099 36.3399 26.8977 36.3312 26.889L35.5996 26.1766C35.5353 26.114 35.5127 26.0237 35.5405 25.9385C35.5683 25.8534 35.6396 25.7943 35.7282 25.7804L36.7378 25.6327C36.75 25.6309 36.7604 25.624 36.7656 25.6118L37.2174 24.696C37.2574 24.6161 37.3356 24.5674 37.4242 24.5674C37.5128 24.5674 37.5928 24.6161 37.631 24.696L38.0828 25.6118C38.088 25.6222 38.0984 25.6309 38.1106 25.6327L39.122 25.7804C39.2106 25.7925 39.2818 25.8534 39.3079 25.9385C39.3357 26.0237 39.3131 26.114 39.2488 26.1766L38.5172 26.889C38.5085 26.8977 38.5051 26.9099 38.5068 26.9221L38.6788 27.9282C38.6945 28.0151 38.658 28.102 38.5867 28.1541C38.5155 28.2062 38.4217 28.2132 38.3435 28.1715L37.4398 27.6971C37.4294 27.6919 37.4155 27.6919 37.4051 27.6971L36.5015 28.1715C36.4667 28.1889 36.4302 28.1976 36.3937 28.1976L36.3972 28.1993ZM37.4259 24.7638C37.4259 24.7638 37.4016 24.7673 37.3929 24.7847L36.9411 25.7004C36.9081 25.7682 36.8421 25.8169 36.7673 25.8273L35.7577 25.975C35.7369 25.9785 35.7299 25.9924 35.7282 26.0011C35.7247 26.0098 35.723 26.0254 35.7369 26.0393L36.4685 26.7518C36.5223 26.8056 36.5484 26.8821 36.5345 26.9568L36.3625 27.963C36.359 27.9821 36.3694 27.9942 36.3763 27.9995C36.3833 28.0047 36.3972 28.0116 36.4163 28.0029L37.3199 27.5285C37.3877 27.492 37.4676 27.4938 37.5354 27.5285L38.439 28.0029C38.4564 28.0116 38.4721 28.0047 38.479 27.9995C38.486 27.9942 38.4964 27.9821 38.4946 27.963L38.3226 26.9568C38.3104 26.8821 38.3348 26.8056 38.3886 26.7518L39.1202 26.0393C39.1341 26.0254 39.1324 26.0098 39.1289 26.0011C39.1254 25.9924 39.1185 25.9785 39.0994 25.975L38.0898 25.8273C38.015 25.8169 37.949 25.7682 37.916 25.7004L37.4642 24.7847C37.4555 24.7673 37.4398 24.7638 37.4312 24.7638H37.4259Z" fill="#010000"/>
<path d="M27.5788 3.63575V1H29.991V3.86167L32.3151 2.43084L33.4667 4.47571L31.1623 5.75362L33.4667 7.13L32.2896 9.15866L29.991 7.75679V10.5119H27.5788V7.85642L25.3022 9.18415L24 7.15549L26.3797 5.75593L24 4.4259L25.3022 2.20723L27.5788 3.63575Z" fill="#DF64C1" stroke="black" stroke-width="0.115857" stroke-miterlimit="10"/>
<path d="M12.8733 9.51099L11.2885 18.6603L8.79565 21.1532L10.7176 10.2704L12.8733 9.51099Z" fill="#8385F2" stroke="black" stroke-width="0.0868884" stroke-miterlimit="10"/>
<path d="M17.8354 21.022L16.8788 27.6759L14.4033 29.9167L15.4529 23.3801L17.8354 21.022Z" fill="#D0DCFF" stroke="black" stroke-width="0.0868884" stroke-miterlimit="10"/>
<path d="M14.4034 29.9167L1 25.4507L4.02893 8.98879L10.7176 10.2704L4.02893 8.98879L6.42705 8L12.8733 9.51099L11.2885 18.6603L8.79563 21.1532L15.453 23.3801" fill="#8385F2"/>
<path d="M14.4034 29.9167L1 25.4507L4.02893 8.98879L10.7176 10.2704L4.02893 8.98879L6.42705 8L12.8733 9.51099L11.2885 18.6603L8.79563 21.1532L15.453 23.3801" stroke="black" stroke-width="0.0868884" stroke-miterlimit="10"/>
<path d="M11.2885 18.6603L17.8355 21.022L15.453 23.3801L8.79565 21.1532L11.2885 18.6603Z" fill="#D0DCFF" stroke="black" stroke-width="0.0868884" stroke-miterlimit="10"/>
<path d="M12.8733 9.51099L10.7176 10.2704L8.79565 21.1532L11.2885 18.6603L12.8733 9.51099Z" fill="#8385F2" stroke="black" stroke-width="0.0868884" stroke-miterlimit="10"/>
<defs>
<linearGradient id="paint0_linear_15_3" x1="36.1696" y1="25.412" x2="38.6841" y2="27.9282" gradientUnits="userSpaceOnUse">
<stop stop-color="white"/>
<stop offset="0.94" stop-color="#F8F8F8"/>
</linearGradient>
</defs>
</svg>
