<svg width="808" height="96" viewBox="0 0 808 96" fill="none" xmlns="http://www.w3.org/2000/svg">
<g clip-path="url(#clip0_223_6159)">
<path d="M0.333984 86.9297H312.183" stroke="#1A2E35" stroke-width="0.662169" stroke-linecap="round" stroke-linejoin="round"/>
<path d="M807.671 86.9297H0.333984V95.3299H807.671V86.9297Z" fill="#006CFF" stroke="#1A2E35" stroke-width="0.662169" stroke-linecap="round" stroke-linejoin="round"/>
<path d="M806.964 0.333984H539.858C537.79 0.333984 535.732 0.695167 533.789 1.40112L530.451 2.61053C527.808 3.56822 525.411 5.11693 523.512 7.19099C508.14 24.0134 499.844 44.9894 498.634 66.2882C498.443 69.6921 499.214 73.0796 500.883 76.0566L506.98 86.9304H806.964" fill="white"/>
<path d="M806.964 0.333984H539.858C537.79 0.333984 535.732 0.695167 533.789 1.40112L530.451 2.61053C527.808 3.56822 525.411 5.11693 523.512 7.19099C508.14 24.0134 499.844 44.9894 498.634 66.2882C498.443 69.6921 499.214 73.0795 500.883 76.0566L506.98 86.9304H806.964" stroke="#1A2E35" stroke-width="0.662169" stroke-linecap="round" stroke-linejoin="round"/>
<path d="M597.828 15.6899V86.925H621.207V15.6899C621.207 14.3984 620.156 13.3477 618.864 13.3477H600.176C598.884 13.3477 597.834 14.3984 597.834 15.6899H597.828Z" stroke="black" stroke-width="0.662169" stroke-miterlimit="10"/>
<path d="M597.828 86.9305H621.207V15.6899C621.207 14.3984 620.156 13.3477 618.864 13.3477H600.176C598.884 13.3477 597.834 14.3984 597.834 15.6899V86.925L597.828 86.9305Z" fill="#1FFFB4" stroke="black" stroke-width="0.547247" stroke-miterlimit="10"/>
<path d="M616.472 15.7383H602.561C601.267 15.7383 600.219 16.7869 600.219 18.0805V41.2892C600.219 42.5828 601.267 43.6315 602.561 43.6315H616.472C617.766 43.6315 618.814 42.5828 618.814 41.2892V18.0805C618.814 16.7869 617.766 15.7383 616.472 15.7383Z" fill="#999999"/>
<mask id="mask0_223_6159" style="mask-type:luminance" maskUnits="userSpaceOnUse" x="600" y="15" width="19" height="29">
<path d="M616.472 15.7383H602.561C601.267 15.7383 600.219 16.7869 600.219 18.0805V41.2892C600.219 42.5828 601.267 43.6315 602.561 43.6315H616.472C617.766 43.6315 618.814 42.5828 618.814 41.2892V18.0805C618.814 16.7869 617.766 15.7383 616.472 15.7383Z" fill="white"/>
</mask>
<g mask="url(#mask0_223_6159)">
<path d="M605.084 43.6311H616.472C617.764 43.6311 618.814 42.5803 618.814 41.2888V18.0856C618.814 16.8488 617.851 15.8419 616.631 15.7598L605.084 43.6365V43.6311Z" fill="white"/>
</g>
<path d="M616.472 15.7383H602.561C601.267 15.7383 600.219 16.7869 600.219 18.0805V41.2892C600.219 42.5828 601.267 43.6315 602.561 43.6315H616.472C617.766 43.6315 618.814 42.5828 618.814 41.2892V18.0805C618.814 16.7869 617.766 15.7383 616.472 15.7383Z" stroke="#1A2E35" stroke-width="0.662169" stroke-linecap="round" stroke-linejoin="round"/>
<path d="M621.207 86.9305H644.585V15.6899C644.585 14.3984 643.535 13.3477 642.243 13.3477H623.555C622.263 13.3477 621.213 14.3984 621.213 15.6899V86.925L621.207 86.9305Z" fill="#1FFFB4" stroke="black" stroke-width="0.547247" stroke-miterlimit="10"/>
<path d="M639.851 15.7383H625.94C624.646 15.7383 623.598 16.7869 623.598 18.0805V41.2892C623.598 42.5828 624.646 43.6315 625.94 43.6315H639.851C641.144 43.6315 642.193 42.5828 642.193 41.2892V18.0805C642.193 16.7869 641.144 15.7383 639.851 15.7383Z" fill="#999999"/>
<mask id="mask1_223_6159" style="mask-type:luminance" maskUnits="userSpaceOnUse" x="623" y="15" width="20" height="29">
<path d="M639.851 15.7383H625.94C624.646 15.7383 623.598 16.7869 623.598 18.0805V41.2892C623.598 42.5828 624.646 43.6315 625.94 43.6315H639.851C641.144 43.6315 642.193 42.5828 642.193 41.2892V18.0805C642.193 16.7869 641.144 15.7383 639.851 15.7383Z" fill="white"/>
</mask>
<g mask="url(#mask1_223_6159)">
<path d="M630.154 15.7383H625.94C624.648 15.7383 623.598 16.789 623.598 18.0805V31.5647L630.154 15.7383Z" fill="white"/>
</g>
<path d="M639.851 15.7383H625.94C624.646 15.7383 623.598 16.7869 623.598 18.0805V41.2892C623.598 42.5828 624.646 43.6315 625.94 43.6315H639.851C641.144 43.6315 642.193 42.5828 642.193 41.2892V18.0805C642.193 16.7869 641.144 15.7383 639.851 15.7383Z" stroke="#1A2E35" stroke-width="0.662169" stroke-linecap="round" stroke-linejoin="round"/>
<path d="M746.63 15.7383H649.313C648.019 15.7383 646.971 16.7869 646.971 18.0805V41.2892C646.971 42.5828 648.019 43.6315 649.313 43.6315H746.63C747.923 43.6315 748.972 42.5828 748.972 41.2892V18.0805C748.972 16.7869 747.923 15.7383 746.63 15.7383Z" fill="#5AE4A7" stroke="#1A2E35" stroke-width="0.662169" stroke-linecap="round" stroke-linejoin="round"/>
<path d="M743.844 18.5293H652.104C650.81 18.5293 649.762 19.5779 649.762 20.8715V38.4983C649.762 39.7919 650.81 40.8406 652.104 40.8406H743.844C745.138 40.8406 746.187 39.7919 746.187 38.4983V20.8715C746.187 19.5779 745.138 18.5293 743.844 18.5293Z" fill="#D0DCFF"/>
<mask id="mask2_223_6159" style="mask-type:luminance" maskUnits="userSpaceOnUse" x="649" y="18" width="98" height="23">
<path d="M743.844 18.5293H652.104C650.81 18.5293 649.762 19.5779 649.762 20.8715V38.4983C649.762 39.7919 650.81 40.8406 652.104 40.8406H743.844C745.138 40.8406 746.187 39.7919 746.187 38.4983V20.8715C746.187 19.5779 745.138 18.5293 743.844 18.5293Z" fill="white"/>
</mask>
<g mask="url(#mask2_223_6159)">
<g opacity="0.2">
<path d="M691.61 40.8406L700.852 18.5293H690.909L681.666 40.8406H691.61Z" fill="black"/>
<path d="M706.134 18.5293H703.841L694.598 40.8406H696.891L706.134 18.5293Z" fill="black"/>
</g>
</g>
<path d="M743.844 18.5293H652.104C650.81 18.5293 649.762 19.5779 649.762 20.8715V38.4983C649.762 39.7919 650.81 40.8406 652.104 40.8406H743.844C745.138 40.8406 746.187 39.7919 746.187 38.4983V20.8715C746.187 19.5779 745.138 18.5293 743.844 18.5293Z" stroke="black" stroke-width="0.547247" stroke-miterlimit="10"/>
<path d="M795.909 13.3477H753.842C752.551 13.3477 751.5 14.3984 751.5 15.6899V86.925H798.251V15.6899C798.251 14.3984 797.201 13.3477 795.909 13.3477Z" fill="#999999" stroke="#1A2E35" stroke-width="0.662169" stroke-linecap="round" stroke-linejoin="round"/>
<path d="M794.613 43.6327C793.321 43.6327 792.27 42.582 792.27 41.2905V18.0872C792.27 16.7957 793.321 15.745 794.613 15.745H798.252V15.6957C798.252 14.4042 797.201 13.3535 795.91 13.3535H792.221C790.93 13.3535 789.879 14.4042 789.879 15.6957V86.9309H798.252V43.6327H794.613Z" fill="#1FFFB4" stroke="black" stroke-width="0.547247" stroke-miterlimit="10"/>
<path d="M757.531 13.3477H753.842C752.551 13.3477 751.5 14.3984 751.5 15.6899V15.7391H755.139C756.431 15.7391 757.481 16.7898 757.481 18.0813V41.2846C757.481 42.5761 756.431 43.6268 755.139 43.6268H751.5V86.925H759.873V15.6899C759.873 14.3984 758.822 13.3477 757.531 13.3477Z" fill="#1FFFB4" stroke="black" stroke-width="0.547247" stroke-miterlimit="10"/>
<path d="M505.744 59.5297C508.305 56.4542 510.166 52.8642 511.244 49.0116C515.151 34.9911 522.298 21.6876 532.707 10.2884C534.611 8.2034 537.014 6.64374 539.668 5.68059L543.006 4.47117C544.954 3.76522 547.006 3.40404 549.075 3.40404H806.971V0.333984H539.87C537.802 0.333984 535.744 0.695167 533.801 1.40112L530.468 2.61053C527.825 3.56822 525.428 5.11693 523.529 7.19099C508.157 24.0134 499.861 44.9894 498.652 66.2882C498.619 66.8792 498.624 67.4703 498.652 68.0613L505.755 59.5297H505.744Z" fill="#5AE4A7" stroke="#1A2E35" stroke-width="0.662169" stroke-linecap="round" stroke-linejoin="round"/>
<path d="M530.21 43.6319H593.099C594.391 43.6319 595.441 42.5811 595.441 41.2896V18.0864C595.441 16.7949 594.391 15.7441 593.099 15.7441H543.201C542.473 15.7441 541.778 16.078 541.335 16.658C535.671 24.0459 531.233 32.0685 528.015 40.4524C527.424 41.9846 528.568 43.6373 530.21 43.6373V43.6319Z" fill="#5AE4A7" stroke="#1A2E35" stroke-width="0.662169" stroke-linecap="round" stroke-linejoin="round"/>
<path d="M534.518 40.8406H590.304C591.596 40.8406 592.646 39.7898 592.646 38.4983V20.8715C592.646 19.58 591.596 18.5293 590.304 18.5293H544.324C543.564 18.5293 542.847 18.8905 542.409 19.5143C538.354 25.2385 534.999 31.3075 532.345 37.6009C531.694 39.1441 532.843 40.846 534.512 40.846L534.518 40.8406Z" fill="#D0DCFF"/>
<mask id="mask3_223_6159" style="mask-type:luminance" maskUnits="userSpaceOnUse" x="532" y="18" width="61" height="23">
<path d="M534.518 40.8406H590.304C591.596 40.8406 592.646 39.7898 592.646 38.4983V20.8715C592.646 19.58 591.596 18.5293 590.304 18.5293H544.324C543.564 18.5293 542.847 18.8905 542.409 19.5143C538.354 25.2385 534.999 31.3075 532.345 37.6009C531.694 39.1441 532.843 40.846 534.512 40.846L534.518 40.8406Z" fill="white"/>
</mask>
<g mask="url(#mask3_223_6159)">
<g opacity="0.2">
<path d="M563.576 40.8406L572.819 18.5293H562.876L553.633 40.8406H563.576Z" fill="#D0DCFF" stroke="black" stroke-width="0.547247" stroke-miterlimit="10"/>
<path d="M578.1 18.5293H575.802L566.559 40.8406H568.857L578.1 18.5293Z" fill="#D0DCFF" stroke="black" stroke-width="0.547247" stroke-miterlimit="10"/>
</g>
</g>
<path d="M534.518 40.8406H590.304C591.596 40.8406 592.646 39.7898 592.646 38.4983V20.8715C592.646 19.58 591.596 18.5293 590.304 18.5293H544.324C543.564 18.5293 542.847 18.8905 542.409 19.5143C538.354 25.2385 534.999 31.3075 532.345 37.6009C531.694 39.1441 532.843 40.846 534.512 40.846L534.518 40.8406Z" stroke="black" stroke-width="0.547247" stroke-miterlimit="10"/>
<path d="M595.441 63.5527H536.038C529.941 63.5527 523.862 64.2751 517.935 65.6979L498.863 70.2784C499.082 71.5754 499.443 72.845 499.941 74.0708L520.999 70.8311C524.901 70.2291 528.841 69.9282 532.787 69.9282H595.441V63.5527Z" fill="#1A2E35" stroke="#1A2E35" stroke-width="0.662169" stroke-linecap="round" stroke-linejoin="round"/>
<path d="M748.972 63.5527H646.971V69.9282H748.972V63.5527Z" fill="#1A2E35" stroke="#1A2E35" stroke-width="0.662169" stroke-linecap="round" stroke-linejoin="round"/>
<path d="M806.963 63.5527H800.773V69.9282H806.963V63.5527Z" fill="#1A2E35" stroke="#1A2E35" stroke-width="0.662169" stroke-linecap="round" stroke-linejoin="round"/>
<path d="M504.27 57.9711C504.27 59.5252 503.482 60.7839 502.508 60.7839C501.534 60.7839 500.746 59.5252 500.746 57.9711C500.746 56.4169 501.534 55.1582 502.508 55.1582C503.482 55.1582 504.27 56.4169 504.27 57.9711Z" fill="white" stroke="#1A2E35" stroke-width="0.662169" stroke-linecap="round" stroke-linejoin="round"/>
<path d="M507.291 54.5327C507.291 55.4193 506.842 56.1416 506.284 56.1416C505.726 56.1416 505.277 55.4247 505.277 54.5327C505.277 53.6407 505.726 52.9238 506.284 52.9238C506.842 52.9238 507.291 53.6407 507.291 54.5327Z" fill="white" stroke="#1A2E35" stroke-width="0.662169" stroke-linecap="round" stroke-linejoin="round"/>
<path d="M500.6 51.7254L511.265 48.9181C514.489 37.393 519.912 26.3551 527.53 16.4608L517.187 14.8848C508.907 26.076 503.38 38.6627 500.6 51.72V51.7254Z" fill="#999999" stroke="#1A2E35" stroke-width="0.662169" stroke-linecap="round" stroke-linejoin="round"/>
<path d="M511.237 49.0121C511.56 47.8574 511.91 46.7082 512.277 45.5645L501.075 49.6305C500.785 50.8509 500.522 52.0767 500.281 53.308L511.122 49.3733C511.155 49.2529 511.199 49.1325 511.232 49.0121H511.237Z" fill="#1A2E35" stroke="#1A2E35" stroke-width="0.662169" stroke-linecap="round" stroke-linejoin="round"/>
<path d="M515.439 17.3315H526.866C527.676 16.2534 528.513 15.1917 529.372 14.1465H517.749C516.955 15.1972 516.184 16.2589 515.439 17.3315Z" fill="#1A2E35" stroke="#1A2E35" stroke-width="0.662169" stroke-linecap="round" stroke-linejoin="round"/>
<path d="M806.965 40.8405H805.903C804.612 40.8405 803.561 39.7898 803.561 38.4983V20.8715C803.561 19.58 804.612 18.5292 805.903 18.5292H806.965V15.7383H803.118C801.826 15.7383 800.775 16.789 800.775 18.0805V41.2838C800.775 42.5753 801.826 43.626 803.118 43.626H806.965V40.835V40.8405Z" fill="#5AE4A7" stroke="#1A2E35" stroke-width="0.662169" stroke-linecap="round" stroke-linejoin="round"/>
<path d="M559.39 0.333984H292.284C290.215 0.333984 288.158 0.695167 286.215 1.40112L282.877 2.61053C280.234 3.56822 277.837 5.11693 275.938 7.19099C260.566 24.0134 252.269 44.9894 251.06 66.2882C250.868 69.6921 251.64 73.0796 253.309 76.0566L259.405 86.9304H559.39" fill="white"/>
<path d="M559.39 0.333984H292.284C290.215 0.333984 288.158 0.695167 286.215 1.40112L282.877 2.61053C280.234 3.56822 277.837 5.11693 275.938 7.19099C260.566 24.0134 252.269 44.9894 251.06 66.2882C250.868 69.6921 251.64 73.0795 253.309 76.0566L259.405 86.9304H559.39" stroke="#1A2E35" stroke-width="0.662169" stroke-linecap="round" stroke-linejoin="round"/>
<path d="M350.254 15.6899V86.925H373.632V15.6899C373.632 14.3984 372.582 13.3477 371.29 13.3477H352.602C351.31 13.3477 350.259 14.3984 350.259 15.6899H350.254Z" stroke="black" stroke-width="0.662169" stroke-miterlimit="10"/>
<path d="M350.254 86.9305H373.632V15.6899C373.632 14.3984 372.582 13.3477 371.29 13.3477H352.602C351.31 13.3477 350.259 14.3984 350.259 15.6899V86.925L350.254 86.9305Z" fill="#1FFFB4" stroke="black" stroke-width="0.547247" stroke-miterlimit="10"/>
<path d="M368.898 15.7383H354.987C353.693 15.7383 352.645 16.7869 352.645 18.0805V41.2892C352.645 42.5828 353.693 43.6315 354.987 43.6315H368.898C370.191 43.6315 371.24 42.5828 371.24 41.2892V18.0805C371.24 16.7869 370.191 15.7383 368.898 15.7383Z" fill="#999999"/>
<mask id="mask4_223_6159" style="mask-type:luminance" maskUnits="userSpaceOnUse" x="352" y="15" width="20" height="29">
<path d="M368.898 15.7383H354.987C353.693 15.7383 352.645 16.7869 352.645 18.0805V41.2892C352.645 42.5828 353.693 43.6315 354.987 43.6315H368.898C370.191 43.6315 371.24 42.5828 371.24 41.2892V18.0805C371.24 16.7869 370.191 15.7383 368.898 15.7383Z" fill="white"/>
</mask>
<g mask="url(#mask4_223_6159)">
<path d="M357.51 43.6311H368.898C370.189 43.6311 371.24 42.5803 371.24 41.2888V18.0856C371.24 16.8488 370.277 15.8419 369.057 15.7598L357.51 43.6365V43.6311Z" fill="white"/>
</g>
<path d="M368.898 15.7383H354.987C353.693 15.7383 352.645 16.7869 352.645 18.0805V41.2892C352.645 42.5828 353.693 43.6315 354.987 43.6315H368.898C370.191 43.6315 371.24 42.5828 371.24 41.2892V18.0805C371.24 16.7869 370.191 15.7383 368.898 15.7383Z" stroke="#1A2E35" stroke-width="0.662169" stroke-linecap="round" stroke-linejoin="round"/>
<path d="M373.633 86.9305H397.011V15.6899C397.011 14.3984 395.96 13.3477 394.669 13.3477H375.98C374.689 13.3477 373.638 14.3984 373.638 15.6899V86.925L373.633 86.9305Z" fill="#1FFFB4" stroke="black" stroke-width="0.547247" stroke-miterlimit="10"/>
<path d="M392.277 15.7383H378.366C377.072 15.7383 376.023 16.7869 376.023 18.0805V41.2892C376.023 42.5828 377.072 43.6315 378.366 43.6315H392.277C393.57 43.6315 394.619 42.5828 394.619 41.2892V18.0805C394.619 16.7869 393.57 15.7383 392.277 15.7383Z" fill="#999999"/>
<mask id="mask5_223_6159" style="mask-type:luminance" maskUnits="userSpaceOnUse" x="376" y="15" width="19" height="29">
<path d="M392.277 15.7383H378.366C377.072 15.7383 376.023 16.7869 376.023 18.0805V41.2892C376.023 42.5828 377.072 43.6315 378.366 43.6315H392.277C393.57 43.6315 394.619 42.5828 394.619 41.2892V18.0805C394.619 16.7869 393.57 15.7383 392.277 15.7383Z" fill="white"/>
</mask>
<g mask="url(#mask5_223_6159)">
<path d="M382.579 15.7383H378.366C377.074 15.7383 376.023 16.789 376.023 18.0805V31.5647L382.579 15.7383Z" fill="white"/>
</g>
<path d="M392.277 15.7383H378.366C377.072 15.7383 376.023 16.7869 376.023 18.0805V41.2892C376.023 42.5828 377.072 43.6315 378.366 43.6315H392.277C393.57 43.6315 394.619 42.5828 394.619 41.2892V18.0805C394.619 16.7869 393.57 15.7383 392.277 15.7383Z" stroke="#1A2E35" stroke-width="0.662169" stroke-linecap="round" stroke-linejoin="round"/>
<path d="M499.056 15.7383H401.739C400.445 15.7383 399.396 16.7869 399.396 18.0805V41.2892C399.396 42.5828 400.445 43.6315 401.739 43.6315H499.056C500.349 43.6315 501.398 42.5828 501.398 41.2892V18.0805C501.398 16.7869 500.349 15.7383 499.056 15.7383Z" fill="#5AE4A7" stroke="#1A2E35" stroke-width="0.662169" stroke-linecap="round" stroke-linejoin="round"/>
<path d="M496.268 18.5293H404.528C403.234 18.5293 402.186 19.5779 402.186 20.8715V38.4983C402.186 39.7919 403.234 40.8406 404.528 40.8406H496.268C497.562 40.8406 498.611 39.7919 498.611 38.4983V20.8715C498.611 19.5779 497.562 18.5293 496.268 18.5293Z" fill="#98BDF4"/>
<mask id="mask6_223_6159" style="mask-type:luminance" maskUnits="userSpaceOnUse" x="402" y="18" width="97" height="23">
<path d="M496.268 18.5293H404.528C403.234 18.5293 402.186 19.5779 402.186 20.8715V38.4983C402.186 39.7919 403.234 40.8406 404.528 40.8406H496.268C497.562 40.8406 498.611 39.7919 498.611 38.4983V20.8715C498.611 19.5779 497.562 18.5293 496.268 18.5293Z" fill="white"/>
</mask>
<g mask="url(#mask6_223_6159)">
<g opacity="0.2">
<path d="M444.033 40.8406L453.276 18.5293H443.333L434.09 40.8406H444.033Z" fill="black"/>
<path d="M458.557 18.5293H456.259L447.016 40.8406H449.314L458.557 18.5293Z" fill="black"/>
</g>
</g>
<path d="M496.268 18.5293H404.528C403.234 18.5293 402.186 19.5779 402.186 20.8715V38.4983C402.186 39.7919 403.234 40.8406 404.528 40.8406H496.268C497.562 40.8406 498.611 39.7919 498.611 38.4983V20.8715C498.611 19.5779 497.562 18.5293 496.268 18.5293Z" stroke="black" stroke-width="0.547247" stroke-miterlimit="10"/>
<path d="M548.335 13.3477H506.268C504.976 13.3477 503.926 14.3984 503.926 15.6899V86.925H550.677V15.6899C550.677 14.3984 549.626 13.3477 548.335 13.3477Z" fill="#999999" stroke="#1A2E35" stroke-width="0.662169" stroke-linecap="round" stroke-linejoin="round"/>
<path d="M547.032 43.6327C545.741 43.6327 544.69 42.582 544.69 41.2905V18.0872C544.69 16.7957 545.741 15.745 547.032 15.745H550.672V15.6957C550.672 14.4042 549.621 13.3535 548.329 13.3535H544.641C543.35 13.3535 542.299 14.4042 542.299 15.6957V86.9309H550.672V43.6327H547.032Z" fill="#1FFFB4" stroke="black" stroke-width="0.547247" stroke-miterlimit="10"/>
<path d="M509.956 13.3477H506.268C504.976 13.3477 503.926 14.3984 503.926 15.6899V15.7391H507.565C508.856 15.7391 509.907 16.7898 509.907 18.0813V41.2846C509.907 42.5761 508.856 43.6268 507.565 43.6268H503.926V86.925H512.299V15.6899C512.299 14.3984 511.248 13.3477 509.956 13.3477Z" fill="#1FFFB4" stroke="black" stroke-width="0.547247" stroke-miterlimit="10"/>
<path d="M258.164 59.5297C260.725 56.4542 262.586 52.8642 263.664 49.0116C267.571 34.9911 274.718 21.6876 285.127 10.2884C287.031 8.2034 289.433 6.64374 292.088 5.68059L295.426 4.47117C297.374 3.76522 299.426 3.40404 301.495 3.40404H559.391V0.333984H292.29C290.222 0.333984 288.164 0.695167 286.221 1.40112L282.888 2.61053C280.245 3.56822 277.848 5.11693 275.949 7.19099C260.577 24.0134 252.281 44.9894 251.071 66.2882C251.039 66.8792 251.044 67.4703 251.071 68.0613L258.175 59.5297H258.164Z" fill="#1FFFB4" stroke="black" stroke-width="0.547247" stroke-miterlimit="10"/>
<path d="M282.635 43.6319H345.525C346.817 43.6319 347.867 42.5811 347.867 41.2896V18.0864C347.867 16.7949 346.817 15.7441 345.525 15.7441H295.627C294.899 15.7441 294.204 16.078 293.761 16.658C288.097 24.0459 283.659 32.0685 280.441 40.4524C279.85 41.9846 280.994 43.6373 282.635 43.6373V43.6319Z" fill="#5AE4A7" stroke="#1A2E35" stroke-width="0.662169" stroke-linecap="round" stroke-linejoin="round"/>
<path d="M286.944 40.8406H342.73C344.021 40.8406 345.072 39.7898 345.072 38.4983V20.8715C345.072 19.58 344.021 18.5293 342.73 18.5293H296.75C295.99 18.5293 295.273 18.8905 294.835 19.5143C290.78 25.2385 287.425 31.3075 284.771 37.6009C284.12 39.1441 285.269 40.846 286.938 40.846L286.944 40.8406Z" fill="#98BDF4"/>
<mask id="mask7_223_6159" style="mask-type:luminance" maskUnits="userSpaceOnUse" x="284" y="18" width="62" height="23">
<path d="M286.944 40.8406H342.73C344.021 40.8406 345.072 39.7898 345.072 38.4983V20.8715C345.072 19.58 344.021 18.5293 342.73 18.5293H296.75C295.99 18.5293 295.273 18.8905 294.835 19.5143C290.78 25.2385 287.425 31.3075 284.771 37.6009C284.12 39.1441 285.269 40.846 286.938 40.846L286.944 40.8406Z" fill="white"/>
</mask>
<g mask="url(#mask7_223_6159)">
<g opacity="0.2">
<path d="M316.004 40.8406L325.247 18.5293H315.298L306.055 40.8406H316.004Z" fill="#98BDF4" stroke="black" stroke-width="0.547247" stroke-miterlimit="10"/>
<path d="M330.528 18.5293H328.229L318.986 40.8406H321.285L330.528 18.5293Z" fill="#98BDF4" stroke="black" stroke-width="0.547247" stroke-miterlimit="10"/>
</g>
</g>
<path d="M286.944 40.8406H342.73C344.021 40.8406 345.072 39.7898 345.072 38.4983V20.8715C345.072 19.58 344.021 18.5293 342.73 18.5293H296.75C295.99 18.5293 295.273 18.8905 294.835 19.5143C290.78 25.2385 287.425 31.3075 284.771 37.6009C284.12 39.1441 285.269 40.846 286.938 40.846L286.944 40.8406Z" stroke="black" stroke-width="0.547247" stroke-miterlimit="10"/>
<path d="M347.861 63.5527H288.458C282.361 63.5527 276.281 64.2751 270.355 65.6979L251.283 70.2784C251.502 71.5754 251.863 72.845 252.361 74.0708L273.419 70.8311C277.321 70.2291 281.261 69.9282 285.207 69.9282H347.861V63.5527Z" fill="#1A2E35" stroke="#1A2E35" stroke-width="0.662169" stroke-linecap="round" stroke-linejoin="round"/>
<path d="M501.398 63.5527H399.396V69.9282H501.398V63.5527Z" fill="#1A2E35" stroke="#1A2E35" stroke-width="0.662169" stroke-linecap="round" stroke-linejoin="round"/>
<path d="M559.389 63.5527H553.199V69.9282H559.389V63.5527Z" fill="#1A2E35" stroke="#1A2E35" stroke-width="0.662169" stroke-linecap="round" stroke-linejoin="round"/>
<path d="M256.696 57.9711C256.696 59.5252 255.908 60.7839 254.934 60.7839C253.96 60.7839 253.172 59.5252 253.172 57.9711C253.172 56.4169 253.96 55.1582 254.934 55.1582C255.908 55.1582 256.696 56.4169 256.696 57.9711Z" fill="white" stroke="#1A2E35" stroke-width="0.662169" stroke-linecap="round" stroke-linejoin="round"/>
<path d="M259.711 54.5327C259.711 55.4193 259.262 56.1416 258.704 56.1416C258.146 56.1416 257.697 55.4247 257.697 54.5327C257.697 53.6407 258.146 52.9238 258.704 52.9238C259.262 52.9238 259.711 53.6407 259.711 54.5327Z" fill="white" stroke="#1A2E35" stroke-width="0.662169" stroke-linecap="round" stroke-linejoin="round"/>
<path d="M253.018 51.7254L263.683 48.9181C266.907 37.393 272.33 26.3551 279.948 16.4608L269.605 14.8848C261.325 26.076 255.798 38.6627 253.018 51.72V51.7254Z" fill="#999999" stroke="#1A2E35" stroke-width="0.662169" stroke-linecap="round" stroke-linejoin="round"/>
<path d="M263.663 49.0121C263.986 47.8574 264.336 46.7082 264.703 45.5645L253.501 49.6305C253.211 50.8509 252.948 52.0767 252.707 53.308L263.548 49.3733C263.581 49.2529 263.625 49.1325 263.657 49.0121H263.663Z" fill="#1A2E35" stroke="#1A2E35" stroke-width="0.662169" stroke-linecap="round" stroke-linejoin="round"/>
<path d="M267.865 17.3315H279.292C280.102 16.2534 280.939 15.1917 281.798 14.1465H270.175C269.381 15.1972 268.609 16.2589 267.865 17.3315Z" fill="#1A2E35" stroke="#1A2E35" stroke-width="0.662169" stroke-linecap="round" stroke-linejoin="round"/>
<path d="M559.389 40.8405H558.327C557.035 40.8405 555.985 39.7898 555.985 38.4983V20.8715C555.985 19.58 557.035 18.5292 558.327 18.5292H559.389V15.7383H555.541C554.25 15.7383 553.199 16.789 553.199 18.0805V41.2838C553.199 42.5753 554.25 43.626 555.541 43.626H559.389V40.835V40.8405Z" fill="#5AE4A7" stroke="#1A2E35" stroke-width="0.662169" stroke-linecap="round" stroke-linejoin="round"/>
<path d="M312.183 0.333984H45.0828C43.0142 0.333984 40.9566 0.695167 39.0139 1.40112L35.6757 2.61053C33.0325 3.56822 30.6355 5.11693 28.7366 7.19099C13.3644 24.0079 5.06813 44.9839 3.85871 66.2882C3.66717 69.6921 4.43879 73.0796 6.1079 76.0566L12.2042 86.9304H312.189" fill="white"/>
<path d="M312.183 0.333984H45.0828C43.0142 0.333984 40.9566 0.695167 39.0139 1.40112L35.6757 2.61053C33.0325 3.56822 30.6355 5.11693 28.7366 7.19099C13.3644 24.0079 5.06813 44.9839 3.85871 66.2882C3.66717 69.6921 4.43879 73.0795 6.1079 76.0566L12.2042 86.9304H312.189" stroke="#1A2E35" stroke-width="0.662169" stroke-linecap="round" stroke-linejoin="round"/>
<path d="M103.047 15.6899V86.925H126.425V15.6899C126.425 14.3984 125.375 13.3477 124.083 13.3477H105.395C104.103 13.3477 103.052 14.3984 103.052 15.6899H103.047Z" stroke="black" stroke-width="0.662169" stroke-miterlimit="10"/>
<path d="M103.047 86.9305H126.425V15.6899C126.425 14.3984 125.375 13.3477 124.083 13.3477H105.395C104.103 13.3477 103.052 14.3984 103.052 15.6899V86.925L103.047 86.9305Z" fill="#1FFFB4" stroke="black" stroke-width="0.547247" stroke-miterlimit="10"/>
<path d="M121.693 15.7383H107.782C106.488 15.7383 105.439 16.7869 105.439 18.0805V41.2892C105.439 42.5828 106.488 43.6315 107.782 43.6315H121.693C122.986 43.6315 124.035 42.5828 124.035 41.2892V18.0805C124.035 16.7869 122.986 15.7383 121.693 15.7383Z" fill="#999999"/>
<mask id="mask8_223_6159" style="mask-type:luminance" maskUnits="userSpaceOnUse" x="105" y="15" width="20" height="29">
<path d="M121.691 15.7383H107.78C106.486 15.7383 105.438 16.7869 105.438 18.0805V41.2892C105.438 42.5828 106.486 43.6315 107.78 43.6315H121.691C122.984 43.6315 124.033 42.5828 124.033 41.2892V18.0805C124.033 16.7869 122.984 15.7383 121.691 15.7383Z" fill="white"/>
</mask>
<g mask="url(#mask8_223_6159)">
<path d="M110.303 43.6311H121.691C122.982 43.6311 124.033 42.5803 124.033 41.2888V18.0856C124.033 16.8488 123.07 15.8419 121.85 15.7598L110.303 43.6365V43.6311Z" fill="white"/>
</g>
<path d="M121.693 15.7383H107.782C106.488 15.7383 105.439 16.7869 105.439 18.0805V41.2892C105.439 42.5828 106.488 43.6315 107.782 43.6315H121.693C122.986 43.6315 124.035 42.5828 124.035 41.2892V18.0805C124.035 16.7869 122.986 15.7383 121.693 15.7383Z" stroke="#1A2E35" stroke-width="0.662169" stroke-linecap="round" stroke-linejoin="round"/>
<path d="M126.426 86.9305H149.804V15.6899C149.804 14.3984 148.753 13.3477 147.462 13.3477H128.773C127.482 13.3477 126.431 14.3984 126.431 15.6899V86.925L126.426 86.9305Z" fill="#1FFFB4" stroke="black" stroke-width="0.547247" stroke-miterlimit="10"/>
<path d="M145.066 15.7383H131.155C129.861 15.7383 128.812 16.7869 128.812 18.0805V41.2892C128.812 42.5828 129.861 43.6315 131.155 43.6315H145.066C146.359 43.6315 147.408 42.5828 147.408 41.2892V18.0805C147.408 16.7869 146.359 15.7383 145.066 15.7383Z" fill="#999999"/>
<mask id="mask9_223_6159" style="mask-type:luminance" maskUnits="userSpaceOnUse" x="128" y="15" width="20" height="29">
<path d="M145.066 15.7383H131.155C129.861 15.7383 128.812 16.7869 128.812 18.0805V41.2892C128.812 42.5828 129.861 43.6315 131.155 43.6315H145.066C146.359 43.6315 147.408 42.5828 147.408 41.2892V18.0805C147.408 16.7869 146.359 15.7383 145.066 15.7383Z" fill="white"/>
</mask>
<g mask="url(#mask9_223_6159)">
<path d="M135.369 15.7383H131.155C129.863 15.7383 128.812 16.789 128.812 18.0805V31.5647L135.369 15.7383Z" fill="white"/>
</g>
<path d="M145.066 15.7383H131.155C129.861 15.7383 128.812 16.7869 128.812 18.0805V41.2892C128.812 42.5828 129.861 43.6315 131.155 43.6315H145.066C146.359 43.6315 147.408 42.5828 147.408 41.2892V18.0805C147.408 16.7869 146.359 15.7383 145.066 15.7383Z" stroke="#1A2E35" stroke-width="0.662169" stroke-linecap="round" stroke-linejoin="round"/>
<path d="M251.849 15.7383H154.532C153.238 15.7383 152.189 16.7869 152.189 18.0805V41.2892C152.189 42.5828 153.238 43.6315 154.532 43.6315H251.849C253.142 43.6315 254.191 42.5828 254.191 41.2892V18.0805C254.191 16.7869 253.142 15.7383 251.849 15.7383Z" fill="#5AE4A7" stroke="#1A2E35" stroke-width="0.662169" stroke-linecap="round" stroke-linejoin="round"/>
<path d="M301.124 13.3477H259.057C257.766 13.3477 256.715 14.3984 256.715 15.6899V86.925H303.466V15.6899C303.466 14.3984 302.415 13.3477 301.124 13.3477Z" fill="#999999" stroke="#1A2E35" stroke-width="0.662169" stroke-linecap="round" stroke-linejoin="round"/>
<path d="M299.827 43.6327C298.536 43.6327 297.485 42.582 297.485 41.2905V18.0872C297.485 16.7957 298.536 15.745 299.827 15.745H303.467V15.6957C303.467 14.4042 302.416 13.3535 301.124 13.3535H297.436C296.144 13.3535 295.094 14.4042 295.094 15.6957V86.9309H303.467V43.6327H299.827Z" fill="#1FFFB4" stroke="black" stroke-width="0.547247" stroke-miterlimit="10"/>
<path d="M262.746 13.3477H259.057C257.766 13.3477 256.715 14.3984 256.715 15.6899V15.7391H260.354C261.646 15.7391 262.696 16.7898 262.696 18.0813V41.2846C262.696 42.5761 261.646 43.6268 260.354 43.6268H256.715V86.925H265.088V15.6899C265.088 14.3984 264.037 13.3477 262.746 13.3477Z" fill="#1FFFB4" stroke="black" stroke-width="0.547247" stroke-miterlimit="10"/>
<path d="M10.9564 59.5297C13.5175 56.4542 15.3781 52.8642 16.4562 49.0116C20.3635 34.9911 27.5106 21.6876 37.9192 10.2884C39.8236 8.2034 42.2261 6.64374 44.8802 5.68059L48.2184 4.47117C50.1666 3.76522 52.2188 3.40404 54.2874 3.40404H312.183V0.333984H45.0827C43.0141 0.333984 40.9564 0.695167 39.0137 1.40112L35.681 2.61053C33.0378 3.56822 30.6408 5.11693 28.7419 7.19099C13.3642 24.0079 5.06797 44.9839 3.85856 66.2882C3.82572 66.8792 3.8312 67.4703 3.85856 68.0613L10.9618 59.5297H10.9564Z" fill="#1FFFB4" stroke="black" stroke-width="0.547247" stroke-miterlimit="10"/>
<path d="M35.4245 43.6319H98.3141C99.6056 43.6319 100.656 42.5811 100.656 41.2896V18.0864C100.656 16.7949 99.6056 15.7441 98.3141 15.7441H48.4161C47.6883 15.7441 46.9933 16.078 46.55 16.658C40.886 24.0459 36.4478 32.0685 33.23 40.4524C32.639 41.9846 33.7828 43.6373 35.4245 43.6373V43.6319Z" fill="#5AE4A7" stroke="#1A2E35" stroke-width="0.662169" stroke-linecap="round" stroke-linejoin="round"/>
<path d="M39.7346 40.8406H95.521C96.8125 40.8406 97.8632 39.7898 97.8632 38.4983V20.8715C97.8632 19.58 96.8125 18.5293 95.521 18.5293H49.5413C48.7806 18.5293 48.0637 18.8905 47.6259 19.5143C43.5708 25.2385 40.2162 31.3075 37.562 37.6009C36.9108 39.1441 38.06 40.846 39.7291 40.846L39.7346 40.8406Z" fill="#98BDF4"/>
<mask id="mask10_223_6159" style="mask-type:luminance" maskUnits="userSpaceOnUse" x="37" y="18" width="61" height="23">
<path d="M39.7346 40.8406H95.521C96.8125 40.8406 97.8632 39.7898 97.8632 38.4983V20.8715C97.8632 19.58 96.8125 18.5293 95.521 18.5293H49.5413C48.7806 18.5293 48.0637 18.8905 47.6259 19.5143C43.5708 25.2385 40.2162 31.3075 37.562 37.6009C36.9108 39.1441 38.06 40.846 39.7291 40.846L39.7346 40.8406Z" fill="white"/>
</mask>
<g mask="url(#mask10_223_6159)">
<g opacity="0.2">
<path d="M68.7947 40.8406L78.0377 18.5293H68.0887L58.8457 40.8406H68.7947Z" fill="white" stroke="black" stroke-width="0.547247" stroke-miterlimit="10"/>
<path d="M83.3133 18.5293H81.0203L71.7773 40.8406H74.0758L83.3133 18.5293Z" fill="white" stroke="black" stroke-width="0.547247" stroke-miterlimit="10"/>
</g>
</g>
<path d="M39.7346 40.8406H95.521C96.8125 40.8406 97.8632 39.7898 97.8632 38.4983V20.8715C97.8632 19.58 96.8125 18.5293 95.521 18.5293H49.5413C48.7806 18.5293 48.0637 18.8905 47.6259 19.5143C43.5708 25.2385 40.2162 31.3075 37.562 37.6009C36.9108 39.1441 38.06 40.846 39.7291 40.846L39.7346 40.8406Z" stroke="black" stroke-width="0.547247" stroke-miterlimit="10"/>
<path d="M100.656 63.5527H41.2526C35.1563 63.5527 29.0764 64.2751 23.1497 65.6979L4.07812 70.2784C4.29702 71.5754 4.65821 72.845 5.1562 74.0708L26.2143 70.8311C30.1161 70.2291 34.0563 69.9282 38.002 69.9282H100.656V63.5527Z" fill="#1A2E35" stroke="#1A2E35" stroke-width="0.662169" stroke-linecap="round" stroke-linejoin="round"/>
<path d="M254.193 63.5527H152.191V69.9282H254.193V63.5527Z" fill="#1A2E35" stroke="#1A2E35" stroke-width="0.662169" stroke-linecap="round" stroke-linejoin="round"/>
<path d="M312.184 63.5527H305.994V69.9282H312.184V63.5527Z" fill="#1A2E35" stroke="#1A2E35" stroke-width="0.662169" stroke-linecap="round" stroke-linejoin="round"/>
<path d="M9.48912 57.9711C9.48912 59.5252 8.70108 60.7839 7.72698 60.7839C6.75288 60.7839 5.96484 59.5252 5.96484 57.9711C5.96484 56.4169 6.75288 55.1582 7.72698 55.1582C8.70108 55.1582 9.48912 56.4169 9.48912 57.9711Z" fill="white" stroke="#1A2E35" stroke-width="0.662169" stroke-linecap="round" stroke-linejoin="round"/>
<path d="M12.5041 54.5327C12.5041 55.4193 12.0554 56.1416 11.4972 56.1416C10.939 56.1416 10.4902 55.4247 10.4902 54.5327C10.4902 53.6407 10.939 52.9238 11.4972 52.9238C12.0554 52.9238 12.5041 53.6407 12.5041 54.5327Z" fill="white" stroke="#1A2E35" stroke-width="0.662169" stroke-linecap="round" stroke-linejoin="round"/>
<path d="M5.8125 51.7254L16.4783 48.9181C19.7016 37.393 25.1249 26.3551 32.7425 16.4608L22.3996 14.8848C14.1197 26.076 8.59252 38.6627 5.8125 51.72V51.7254Z" fill="#006CFF" stroke="#1A2E35" stroke-width="0.662169" stroke-linecap="round" stroke-linejoin="round"/>
<path d="M16.4559 49.0121C16.7788 47.8574 17.129 46.7082 17.4957 45.5645L6.29351 49.6305C6.00347 50.8509 5.74079 52.0767 5.5 53.308L16.341 49.3733C16.3738 49.2529 16.4176 49.1325 16.4504 49.0121H16.4559Z" fill="#1A2E35" stroke="#1A2E35" stroke-width="0.662169" stroke-linecap="round" stroke-linejoin="round"/>
<path d="M20.6582 17.3315H32.0847C32.8947 16.2534 33.7319 15.1917 34.5911 14.1465H22.9676C22.1741 15.1972 21.4025 16.2589 20.6582 17.3315Z" fill="#1A2E35" stroke="#1A2E35" stroke-width="0.662169" stroke-linecap="round" stroke-linejoin="round"/>
<path d="M312.184 40.8405H311.122C309.83 40.8405 308.78 39.7898 308.78 38.4983V20.8715C308.78 19.58 309.83 18.5292 311.122 18.5292H312.184V15.7383H308.336C307.045 15.7383 305.994 16.789 305.994 18.0805V41.2838C305.994 42.5753 307.045 43.626 308.336 43.626H312.184V40.835V40.8405Z" fill="#5AE4A7" stroke="#1A2E35" stroke-width="0.662169" stroke-linecap="round" stroke-linejoin="round"/>
<path d="M249.063 18.5293H157.323C156.029 18.5293 154.98 19.5779 154.98 20.8715V38.4983C154.98 39.7919 156.029 40.8406 157.323 40.8406H249.063C250.357 40.8406 251.405 39.7919 251.405 38.4983V20.8715C251.405 19.5779 250.357 18.5293 249.063 18.5293Z" fill="#D0DCFF"/>
<mask id="mask11_223_6159" style="mask-type:luminance" maskUnits="userSpaceOnUse" x="154" y="18" width="98" height="23">
<path d="M249.063 18.5293H157.323C156.029 18.5293 154.98 19.5779 154.98 20.8715V38.4983C154.98 39.7919 156.029 40.8406 157.323 40.8406H249.063C250.357 40.8406 251.405 39.7919 251.405 38.4983V20.8715C251.405 19.5779 250.357 18.5293 249.063 18.5293Z" fill="white"/>
</mask>
<g mask="url(#mask11_223_6159)">
<g opacity="0.2">
<path d="M196.828 40.8406L206.071 18.5293H196.122L186.885 40.8406H196.828Z" fill="#D0DCFF" stroke="black" stroke-width="0.547247" stroke-miterlimit="10"/>
<path d="M211.352 18.5293H209.054L199.811 40.8406H202.109L211.352 18.5293Z" fill="#D0DCFF" stroke="black" stroke-width="0.547247" stroke-miterlimit="10"/>
</g>
</g>
<path d="M249.063 18.5293H157.323C156.029 18.5293 154.98 19.5779 154.98 20.8715V38.4983C154.98 39.7919 156.029 40.8406 157.323 40.8406H249.063C250.357 40.8406 251.405 39.7919 251.405 38.4983V20.8715C251.405 19.5779 250.357 18.5293 249.063 18.5293Z" stroke="black" stroke-width="0.547247" stroke-miterlimit="10"/>
</g>
<defs>
<clipPath id="clip0_223_6159">
<rect width="808" height="95.6588" fill="white"/>
</clipPath>
</defs>
</svg>
