<svg width="24" height="24" viewBox="0 0 24 24" fill="none" xmlns="http://www.w3.org/2000/svg">
<path d="M0.5 12C0.5 5.64873 5.64873 0.5 12 0.5C18.3513 0.5 23.5 5.64873 23.5 12C23.5 18.3513 18.3513 23.5 12 23.5C5.64873 23.5 0.5 18.3513 0.5 12Z" stroke="#D7FF7B"/>
<g clip-path="url(#clip0_1_278)">
<path d="M16.2175 5.26904H18.4665L13.5531 10.8847L19.3333 18.5264H14.8075L11.2626 13.8917L7.20659 18.5264H4.95625L10.2116 12.5198L4.66663 5.26904H9.30737L12.5116 9.50526L16.2175 5.26904ZM15.4282 17.1802H16.6744L8.63022 6.54446H7.29293L15.4282 17.1802Z" fill="#D7FF7B"/>
</g>
<defs>
<clipPath id="clip0_1_278">
<rect width="16" height="16" fill="white" transform="translate(4 4)"/>
</clipPath>
</defs>
</svg>
