<svg width="24" height="24" viewBox="0 0 24 24" fill="none" xmlns="http://www.w3.org/2000/svg">
<path d="M0.5 12C0.5 5.64873 5.64873 0.5 12 0.5C18.3513 0.5 23.5 5.64873 23.5 12C23.5 18.3513 18.3513 23.5 12 23.5C5.64873 23.5 0.5 18.3513 0.5 12Z" stroke="#D7FF7B"/>
<path d="M19.6653 8.12395C19.5749 7.78346 19.3967 7.47271 19.1484 7.22279C18.9001 6.97287 18.5905 6.79258 18.2507 6.69995C17.0033 6.36328 12 6.36328 12 6.36328C12 6.36328 6.99667 6.36328 5.74867 6.69995C5.40894 6.79274 5.09953 6.9731 4.85139 7.223C4.60324 7.4729 4.42506 7.78357 4.33467 8.12395C4 9.37995 4 11.9999 4 11.9999C4 11.9999 4 14.6199 4.33467 15.8759C4.42506 16.2164 4.60332 16.5272 4.85159 16.7771C5.09987 17.027 5.40945 17.2073 5.74933 17.2999C6.99667 17.6366 12 17.6366 12 17.6366C12 17.6366 17.0033 17.6366 18.2513 17.2999C18.5912 17.2074 18.9009 17.0271 19.1491 16.7772C19.3974 16.5273 19.5757 16.2165 19.666 15.8759C20 14.6199 20 11.9999 20 11.9999C20 11.9999 20 9.37995 19.6653 8.12395ZM10.3633 14.3786V9.62128L14.5453 11.9999L10.3633 14.3786Z" fill="#D7FF7B"/>
</svg>
